<?xml version="1.0" encoding="utf-8"?>
<!-- Generator: Adobe Illustrator 23.0.3, SVG Export Plug-In . SVG Version: 6.00 Build 0)  -->
<svg version="1.1" id="PRINT" xmlns="http://www.w3.org/2000/svg" xmlns:xlink="http://www.w3.org/1999/xlink" x="0px" y="0px"
	 viewBox="0 0 841.3 601" style="enable-background:new 0 0 841.3 601;" xml:space="preserve">
<style type="text/css">
	.st0{clip-path:url(#SVGID_2_);}
	.st1{fill:none;stroke:#000000;stroke-miterlimit:10;}
	.st2{fill:url(#SVGID_3_);}
	.st3{fill:url(#SVGID_4_);}
	.st4{clip-path:url(#SVGID_6_);}
	.st5{fill:url(#SVGID_7_);}
	.st6{opacity:0.16;}
	.st7{fill:#FFFFFF;}
	.st8{fill:url(#SVGID_8_);}
	.st9{fill:url(#SVGID_9_);}
	.st10{fill:url(#SVGID_10_);}
	.st11{clip-path:url(#SVGID_12_);}
	.st12{fill:url(#SVGID_13_);}
	.st13{fill:#262424;}
	.st14{fill:#1B1D1E;}
</style>
<title>RECONOCIMIENTO</title>
<g>
	<defs>
		<rect id="SVGID_1_" x="-4.5" y="-5.7" width="849.8" height="612.4"/>
	</defs>
	<clipPath id="SVGID_2_">
		<use xlink:href="#SVGID_1_"  style="overflow:visible;"/>
	</clipPath>
	<g class="st0">
		<rect x="58.8" y="51.8" class="st1" width="722.8" height="497.8"/>
		<rect x="47.9" y="64.2" class="st1" width="744.5" height="473"/>
		
			<linearGradient id="SVGID_3_" gradientUnits="userSpaceOnUse" x1="-41.4" y1="550.34" x2="897.89" y2="550.34" gradientTransform="matrix(1 0 0 -1 0 601.89)">
			<stop  offset="0" style="stop-color:#F3D240"/>
			<stop  offset="5.000000e-02" style="stop-color:#F1CB3F"/>
			<stop  offset="0.13" style="stop-color:#EDB83D"/>
			<stop  offset="0.22" style="stop-color:#E59939"/>
			<stop  offset="0.33" style="stop-color:#DA6D34"/>
			<stop  offset="0.44" style="stop-color:#CD352E"/>
			<stop  offset="0.47" style="stop-color:#C9262C"/>
			<stop  offset="0.61" style="stop-color:#B1284A"/>
			<stop  offset="0.87" style="stop-color:#8C2C78"/>
			<stop  offset="1" style="stop-color:#7D2D8A"/>
		</linearGradient>
		<polygon class="st2" points="-41.4,-5.7 897.9,-5.7 897.9,108.8 		"/>
		
			<linearGradient id="SVGID_4_" gradientUnits="userSpaceOnUse" x1="712.0581" y1="730.7883" x2="481.938" y2="332.2235" gradientTransform="matrix(0.9996 2.931733e-02 2.931733e-02 -0.9996 1.749 554.5336)">
			<stop  offset="0" style="stop-color:#F3D240"/>
			<stop  offset="5.000000e-02" style="stop-color:#F1CB3F"/>
			<stop  offset="0.13" style="stop-color:#EDB83D"/>
			<stop  offset="0.22" style="stop-color:#E59939"/>
			<stop  offset="0.33" style="stop-color:#DA6D34"/>
			<stop  offset="0.44" style="stop-color:#CD352E"/>
			<stop  offset="0.47" style="stop-color:#C9262C"/>
			<stop  offset="0.61" style="stop-color:#B1284A"/>
			<stop  offset="0.87" style="stop-color:#8C2C78"/>
			<stop  offset="1" style="stop-color:#7D2D8A"/>
		</linearGradient>
		<polygon class="st3" points="1051.6,40.4 1048.5,138.8 194.6,22.3 134.8,15.4 		"/>
		<g>
			<defs>
				<polygon id="SVGID_5_" points="886.3,97.7 -173.5,-31.8 328.4,-33.1 886.3,-21.3 				"/>
			</defs>
			<clipPath id="SVGID_6_">
				<use xlink:href="#SVGID_5_"  style="overflow:visible;"/>
			</clipPath>
			<g class="st4">
				
					<radialGradient id="SVGID_7_" cx="503.7617" cy="-105.525" r="392.6803" gradientTransform="matrix(-1.07 0 0 1 1040.05 340.79)" gradientUnits="userSpaceOnUse">
					<stop  offset="0" style="stop-color:#2D2F31"/>
					<stop  offset="1" style="stop-color:#0F1011"/>
				</radialGradient>
				<rect x="0.4" y="-67.6" class="st5" width="1001.2" height="605.8"/>
				<g>
					<g class="st6">
						<polygon class="st7" points="658.5,-220.1 659.2,-220.3 888.2,603.2 887.6,603.4 						"/>
						<polygon class="st7" points="665.5,-220 666.2,-220.2 895.2,603.3 894.6,603.5 						"/>
						<polygon class="st7" points="672.5,-219.9 673.2,-220.1 902.2,603.4 901.6,603.6 						"/>
						<polygon class="st7" points="679.5,-219.8 680.2,-220 909.2,603.5 908.5,603.7 						"/>
						<polygon class="st7" points="686.5,-219.8 687.2,-219.9 916.2,603.6 915.5,603.7 						"/>
						<polygon class="st7" points="693.5,-219.7 694.1,-219.8 923.2,603.7 922.5,603.8 						"/>
						<polygon class="st7" points="700.5,-219.6 701.1,-219.7 930.2,603.8 929.5,603.9 						"/>
						<polygon class="st7" points="651.5,-220.2 652.2,-220.4 881.2,603.1 880.6,603.3 						"/>
						<polygon class="st7" points="644.5,-220.3 645.2,-220.5 874.2,603 873.6,603.2 						"/>
						<polygon class="st7" points="637.5,-220.4 638.2,-220.5 867.2,603 866.6,603.1 						"/>
						<polygon class="st7" points="588.6,-221 589.2,-221.2 818.2,602.3 817.6,602.5 						"/>
						<polygon class="st7" points="595.6,-220.9 596.2,-221.1 825.2,602.4 824.6,602.6 						"/>
						<polygon class="st7" points="602.6,-220.8 603.2,-221 832.2,602.5 831.6,602.7 						"/>
						<polygon class="st7" points="609.6,-220.7 610.2,-220.9 839.2,602.6 838.6,602.8 						"/>
						<polygon class="st7" points="616.6,-220.6 617.2,-220.8 846.2,602.7 845.6,602.9 						"/>
						<polygon class="st7" points="623.6,-220.6 624.2,-220.7 853.2,602.8 852.6,603 						"/>
						<polygon class="st7" points="630.5,-220.5 631.2,-220.6 860.2,602.9 859.6,603 						"/>
						<polygon class="st7" points="581.6,-221.1 582.2,-221.3 811.2,602.3 810.6,602.4 						"/>
						<polygon class="st7" points="574.6,-221.2 575.2,-221.3 804.2,602.2 803.6,602.3 						"/>
						<polygon class="st7" points="567.6,-221.3 568.2,-221.4 797.2,602.1 796.6,602.2 						"/>
						<polygon class="st7" points="518.6,-221.9 519.2,-222 748.3,601.5 747.6,601.6 						"/>
						<polygon class="st7" points="525.6,-221.8 526.2,-222 755.3,601.5 754.6,601.7 						"/>
						<polygon class="st7" points="532.6,-221.7 533.2,-221.9 762.3,601.6 761.6,601.8 						"/>
						<polygon class="st7" points="539.6,-221.6 540.2,-221.8 769.3,601.7 768.6,601.9 						"/>
						<polygon class="st7" points="546.6,-221.5 547.2,-221.7 776.3,601.8 775.6,602 						"/>
						<polygon class="st7" points="553.6,-221.4 554.2,-221.6 783.3,601.9 782.6,602.1 						"/>
						<polygon class="st7" points="560.6,-221.4 561.2,-221.5 790.3,602 789.6,602.2 						"/>
						<polygon class="st7" points="511.6,-222 512.3,-222.1 741.3,601.4 740.7,601.5 						"/>
						<polygon class="st7" points="504.6,-222.1 505.3,-222.2 734.3,601.3 733.7,601.4 						"/>
						<polygon class="st7" points="497.6,-222.1 498.3,-222.3 727.3,601.2 726.7,601.4 						"/>
						<polygon class="st7" points="448.6,-222.8 449.3,-222.9 678.3,600.6 677.7,600.7 						"/>
						<polygon class="st7" points="455.6,-222.7 456.3,-222.8 685.3,600.7 684.7,600.8 						"/>
						<polygon class="st7" points="462.6,-222.6 463.3,-222.8 692.3,600.8 691.7,600.9 						"/>
						<polygon class="st7" points="469.6,-222.5 470.3,-222.7 699.3,600.8 698.7,601 						"/>
						<polygon class="st7" points="476.6,-222.4 477.3,-222.6 706.3,600.9 705.7,601.1 						"/>
						<polygon class="st7" points="483.6,-222.3 484.3,-222.5 713.3,601 712.7,601.2 						"/>
						<polygon class="st7" points="490.6,-222.2 491.3,-222.4 720.3,601.1 719.7,601.3 						"/>
						<polygon class="st7" points="441.7,-222.9 442.3,-223 671.3,600.5 670.7,600.7 						"/>
						<polygon class="st7" points="434.7,-222.9 435.3,-223.1 664.3,600.4 663.7,600.6 						"/>
						<polygon class="st7" points="427.7,-223 428.3,-223.2 657.3,600.3 656.7,600.5 						"/>
						<polygon class="st7" points="798.5,-218.3 799.1,-218.5 1028.1,605 1027.5,605.2 						"/>
						<polygon class="st7" points="805.5,-218.3 806.1,-218.4 1035.1,605.1 1034.5,605.3 						"/>
						<polygon class="st7" points="812.5,-218.2 813.1,-218.3 1042.1,605.2 1041.5,605.3 						"/>
						<polygon class="st7" points="819.4,-218.1 820.1,-218.2 1049.1,605.3 1048.5,605.4 						"/>
						<polygon class="st7" points="826.4,-218 827.1,-218.2 1056.1,605.3 1055.5,605.5 						"/>
						<polygon class="st7" points="833.4,-217.9 834.1,-218.1 1063.1,605.4 1062.5,605.6 						"/>
						<polygon class="st7" points="840.4,-217.8 841.1,-218 1070.1,605.5 1069.5,605.7 						"/>
						<polygon class="st7" points="791.5,-218.4 792.1,-218.6 1021.1,604.9 1020.5,605.1 						"/>
						<polygon class="st7" points="784.5,-218.5 785.1,-218.7 1014.1,604.8 1013.5,605 						"/>
						<polygon class="st7" points="777.5,-218.6 778.1,-218.8 1007.1,604.7 1006.5,604.9 						"/>
						<polygon class="st7" points="728.5,-219.2 729.1,-219.4 958.2,604.1 957.5,604.3 						"/>
						<polygon class="st7" points="735.5,-219.1 736.1,-219.3 965.2,604.2 964.5,604.4 						"/>
						<polygon class="st7" points="742.5,-219.1 743.1,-219.2 972.1,604.3 971.5,604.5 						"/>
						<polygon class="st7" points="749.5,-219 750.1,-219.1 979.1,604.4 978.5,604.5 						"/>
						<polygon class="st7" points="756.5,-218.9 757.1,-219 986.1,604.5 985.5,604.6 						"/>
						<polygon class="st7" points="763.5,-218.8 764.1,-219 993.1,604.5 992.5,604.7 						"/>
						<polygon class="st7" points="770.5,-218.7 771.1,-218.9 1000.1,604.6 999.5,604.8 						"/>
						<polygon class="st7" points="721.5,-219.3 722.1,-219.5 951.2,604 950.5,604.2 						"/>
						<polygon class="st7" points="714.5,-219.4 715.1,-219.6 944.2,603.9 943.5,604.1 						"/>
						<polygon class="st7" points="707.5,-219.5 708.1,-219.7 937.2,603.8 936.5,604 						"/>
						<polygon class="st7" points="98.8,-227.2 99.5,-227.4 328.5,596.1 327.9,596.3 						"/>
						<polygon class="st7" points="105.8,-227.1 106.5,-227.3 335.5,596.2 334.9,596.4 						"/>
						<polygon class="st7" points="112.8,-227 113.5,-227.2 342.5,596.3 341.9,596.5 						"/>
						<polygon class="st7" points="119.8,-226.9 120.5,-227.1 349.5,596.4 348.9,596.6 						"/>
						<polygon class="st7" points="126.8,-226.9 127.5,-227 356.5,596.5 355.9,596.7 						"/>
						<polygon class="st7" points="133.8,-226.8 134.5,-226.9 363.5,596.6 362.9,596.7 						"/>
						<polygon class="st7" points="140.8,-226.7 141.5,-226.8 370.5,596.7 369.9,596.8 						"/>
						<polygon class="st7" points="91.9,-227.3 92.5,-227.5 321.5,596 320.9,596.2 						"/>
						<polygon class="st7" points="84.9,-227.4 85.5,-227.6 314.5,596 313.9,596.1 						"/>
						<polygon class="st7" points="77.9,-227.5 78.5,-227.6 307.5,595.9 306.9,596 						"/>
						<polygon class="st7" points="28.9,-228.1 29.5,-228.3 258.5,595.2 257.9,595.4 						"/>
						<polygon class="st7" points="35.9,-228 36.5,-228.2 265.5,595.3 264.9,595.5 						"/>
						<polygon class="st7" points="42.9,-227.9 43.5,-228.1 272.5,595.4 271.9,595.6 						"/>
						<polygon class="st7" points="49.9,-227.8 50.5,-228 279.5,595.5 278.9,595.7 						"/>
						<polygon class="st7" points="56.9,-227.7 57.5,-227.9 286.5,595.6 285.9,595.8 						"/>
						<polygon class="st7" points="63.9,-227.7 64.5,-227.8 293.5,595.7 292.9,595.8 						"/>
						<polygon class="st7" points="70.9,-227.6 71.5,-227.7 300.5,595.8 299.9,595.9 						"/>
						<polygon class="st7" points="21.9,-228.2 22.5,-228.3 251.6,595.2 250.9,595.3 						"/>
						<polygon class="st7" points="14.9,-228.3 15.5,-228.4 244.6,595.1 243.9,595.2 						"/>
						<polygon class="st7" points="7.9,-228.4 8.5,-228.5 237.6,595 236.9,595.1 						"/>
						<polygon class="st7" points="-41.1,-229 -40.4,-229.1 188.6,594.4 188,594.5 						"/>
						<polygon class="st7" points="-34.1,-228.9 -33.5,-229.1 195.6,594.5 195,594.6 						"/>
						<polygon class="st7" points="-27.1,-228.8 -26.5,-229 202.6,594.5 201.9,594.7 						"/>
						<polygon class="st7" points="-20.1,-228.7 -19.5,-228.9 209.6,594.6 208.9,594.8 						"/>
						<polygon class="st7" points="-13.1,-228.6 -12.5,-228.8 216.6,594.7 215.9,594.9 						"/>
						<polygon class="st7" points="-6.1,-228.5 -5.5,-228.7 223.6,594.8 222.9,595 						"/>
						<polygon class="st7" points="0.9,-228.4 1.5,-228.6 230.6,594.9 229.9,595 						"/>
						<polygon class="st7" points="-48.1,-229.1 -47.4,-229.2 181.6,594.3 181,594.4 						"/>
						<polygon class="st7" points="-55.1,-229.2 -54.4,-229.3 174.6,594.2 174,594.3 						"/>
						<polygon class="st7" points="-62,-229.2 -61.4,-229.4 167.6,594.1 167,594.3 						"/>
						<polygon class="st7" points="-90,-229.6 -89.4,-229.8 139.6,593.7 139,593.9 						"/>
						<polygon class="st7" points="-83,-229.5 -82.4,-229.7 146.6,593.8 146,594 						"/>
						<polygon class="st7" points="-76.1,-229.4 -75.4,-229.6 153.6,593.9 153,594.1 						"/>
						<polygon class="st7" points="-69.1,-229.3 -68.4,-229.5 160.6,594 160,594.2 						"/>
						<polygon class="st7" points="378.7,-223.7 379.3,-223.8 608.3,599.7 607.7,599.8 						"/>
						<polygon class="st7" points="385.7,-223.6 386.3,-223.7 615.3,599.8 614.7,599.9 						"/>
						<polygon class="st7" points="392.7,-223.5 393.3,-223.7 622.3,599.8 621.7,600 						"/>
						<polygon class="st7" points="399.7,-223.4 400.3,-223.6 629.3,599.9 628.7,600.1 						"/>
						<polygon class="st7" points="406.7,-223.3 407.3,-223.5 636.3,600 635.7,600.2 						"/>
						<polygon class="st7" points="413.7,-223.2 414.3,-223.4 643.3,600.1 642.7,600.3 						"/>
						<polygon class="st7" points="420.7,-223.1 421.3,-223.3 650.3,600.2 649.7,600.4 						"/>
						<polygon class="st7" points="371.7,-223.8 372.3,-223.9 601.3,599.6 600.7,599.8 						"/>
						<polygon class="st7" points="364.7,-223.8 365.3,-224 594.4,599.5 593.7,599.7 						"/>
						<polygon class="st7" points="357.7,-223.9 358.3,-224.1 587.4,599.4 586.7,599.6 						"/>
						<polygon class="st7" points="308.7,-224.6 309.4,-224.7 538.4,598.8 537.8,599 						"/>
						<polygon class="st7" points="315.7,-224.5 316.4,-224.6 545.4,598.9 544.8,599 						"/>
						<polygon class="st7" points="322.7,-224.4 323.4,-224.5 552.4,599 551.8,599.1 						"/>
						<polygon class="st7" points="329.7,-224.3 330.4,-224.5 559.4,599 558.8,599.2 						"/>
						<polygon class="st7" points="336.7,-224.2 337.3,-224.4 566.4,599.1 565.8,599.3 						"/>
						<polygon class="st7" points="343.7,-224.1 344.3,-224.3 573.4,599.2 572.7,599.4 						"/>
						<polygon class="st7" points="350.7,-224 351.3,-224.2 580.4,599.3 579.7,599.5 						"/>
						<polygon class="st7" points="301.7,-224.6 302.4,-224.8 531.4,598.7 530.8,598.9 						"/>
						<polygon class="st7" points="294.7,-224.7 295.4,-224.9 524.4,598.6 523.8,598.8 						"/>
						<polygon class="st7" points="287.8,-224.8 288.4,-225 517.4,598.5 516.8,598.7 						"/>
						<polygon class="st7" points="238.8,-225.4 239.4,-225.6 468.4,597.9 467.8,598.1 						"/>
						<polygon class="st7" points="245.8,-225.4 246.4,-225.5 475.4,598 474.8,598.2 						"/>
						<polygon class="st7" points="252.8,-225.3 253.4,-225.4 482.4,598.1 481.8,598.2 						"/>
						<polygon class="st7" points="259.8,-225.2 260.4,-225.3 489.4,598.2 488.8,598.3 						"/>
						<polygon class="st7" points="266.8,-225.1 267.4,-225.3 496.4,598.3 495.8,598.4 						"/>
						<polygon class="st7" points="273.8,-225 274.4,-225.2 503.4,598.3 502.8,598.5 						"/>
						<polygon class="st7" points="280.8,-224.9 281.4,-225.1 510.4,598.4 509.8,598.6 						"/>
						<polygon class="st7" points="231.8,-225.5 232.4,-225.7 461.4,597.8 460.8,598 						"/>
						<polygon class="st7" points="224.8,-225.6 225.4,-225.8 454.4,597.7 453.8,597.9 						"/>
						<polygon class="st7" points="217.8,-225.7 218.4,-225.9 447.4,597.6 446.8,597.8 						"/>
						<polygon class="st7" points="168.8,-226.3 169.4,-226.5 398.5,597 397.8,597.2 						"/>
						<polygon class="st7" points="175.8,-226.2 176.4,-226.4 405.5,597.1 404.8,597.3 						"/>
						<polygon class="st7" points="182.8,-226.1 183.4,-226.3 412.5,597.2 411.8,597.4 						"/>
						<polygon class="st7" points="189.8,-226.1 190.4,-226.2 419.5,597.3 418.8,597.4 						"/>
						<polygon class="st7" points="196.8,-226 197.4,-226.1 426.5,597.4 425.8,597.5 						"/>
						<polygon class="st7" points="203.8,-225.9 204.4,-226 433.5,597.5 432.8,597.6 						"/>
						<polygon class="st7" points="210.8,-225.8 211.4,-226 440.4,597.5 439.8,597.7 						"/>
						<polygon class="st7" points="161.8,-226.4 162.4,-226.6 391.5,596.9 390.9,597.1 						"/>
						<polygon class="st7" points="154.8,-226.5 155.4,-226.7 384.5,596.8 383.9,597 						"/>
						<polygon class="st7" points="147.8,-226.6 148.4,-226.8 377.5,596.8 376.9,596.9 						"/>
					</g>
				</g>
			</g>
		</g>
		
			<linearGradient id="SVGID_8_" gradientUnits="userSpaceOnUse" x1="-4.5" y1="574.03" x2="547.91" y2="574.03" gradientTransform="matrix(1 0 0 -1 0 601.89)">
			<stop  offset="0" style="stop-color:#F3D240"/>
			<stop  offset="5.000000e-02" style="stop-color:#F1CB3F"/>
			<stop  offset="0.13" style="stop-color:#EDB83D"/>
			<stop  offset="0.22" style="stop-color:#E59939"/>
			<stop  offset="0.33" style="stop-color:#DA6D34"/>
			<stop  offset="0.44" style="stop-color:#CD352E"/>
			<stop  offset="0.47" style="stop-color:#C9262C"/>
			<stop  offset="0.61" style="stop-color:#B1284A"/>
			<stop  offset="0.87" style="stop-color:#8C2C78"/>
			<stop  offset="1" style="stop-color:#7D2D8A"/>
		</linearGradient>
		<polygon class="st8" points="547.9,-5.7 438.8,7.6 -4.5,61.4 -4.5,-5.7 		"/>
		
			<linearGradient id="SVGID_9_" gradientUnits="userSpaceOnUse" x1="531.2267" y1="-1083.5538" x2="527.3297" y2="-1181.7592" gradientTransform="matrix(1 4.000000e-02 -4.000000e-02 1 -41.2544 1716.8999)">
			<stop  offset="0" style="stop-color:#F3D240"/>
			<stop  offset="5.000000e-02" style="stop-color:#F1CB3F"/>
			<stop  offset="0.13" style="stop-color:#EDB83D"/>
			<stop  offset="0.22" style="stop-color:#E59939"/>
			<stop  offset="0.33" style="stop-color:#DA6D34"/>
			<stop  offset="0.44" style="stop-color:#CD352E"/>
			<stop  offset="0.47" style="stop-color:#C9262C"/>
			<stop  offset="0.61" style="stop-color:#B1284A"/>
			<stop  offset="0.87" style="stop-color:#8C2C78"/>
			<stop  offset="1" style="stop-color:#7D2D8A"/>
		</linearGradient>
		<polygon class="st9" points="989.5,655.9 993.7,557.6 133.2,619 73,622.1 		"/>
		
			<linearGradient id="SVGID_10_" gradientUnits="userSpaceOnUse" x1="-26.34" y1="-1195.73" x2="526.08" y2="-1195.73" gradientTransform="matrix(1 0 0 1 0 1779.61)">
			<stop  offset="0" style="stop-color:#F3D240"/>
			<stop  offset="5.000000e-02" style="stop-color:#F1CB3F"/>
			<stop  offset="0.13" style="stop-color:#EDB83D"/>
			<stop  offset="0.22" style="stop-color:#E59939"/>
			<stop  offset="0.33" style="stop-color:#DA6D34"/>
			<stop  offset="0.44" style="stop-color:#CD352E"/>
			<stop  offset="0.47" style="stop-color:#C9262C"/>
			<stop  offset="0.61" style="stop-color:#B1284A"/>
			<stop  offset="0.87" style="stop-color:#8C2C78"/>
			<stop  offset="1" style="stop-color:#7D2D8A"/>
		</linearGradient>
		<polygon class="st10" points="526.1,617.4 416.9,604.2 -26.3,550.3 -26.3,617.4 		"/>
	</g>
</g>
<g>
	<defs>
		<path id="SVGID_11_" d="M305.8,100l-15.6,41.8h-0.3L274.4,100h-6.9v36.8c-0.1,26,44.8,26,44.9,0V100H305.8z"/>
	</defs>
	<clipPath id="SVGID_12_">
		<use xlink:href="#SVGID_11_"  style="overflow:visible;"/>
	</clipPath>
	<g class="st11">
		
			<linearGradient id="SVGID_13_" gradientUnits="userSpaceOnUse" x1="149.3374" y1="115.6202" x2="150.5774" y2="115.6202" gradientTransform="matrix(36.47 0 0 -36.47 -5179.1899 4348.1182)">
			<stop  offset="0" style="stop-color:#F3D340"/>
			<stop  offset="5.000000e-02" style="stop-color:#F1CC3F"/>
			<stop  offset="0.13" style="stop-color:#EDB93D"/>
			<stop  offset="0.22" style="stop-color:#E69A39"/>
			<stop  offset="0.32" style="stop-color:#DC6E33"/>
			<stop  offset="0.43" style="stop-color:#CF372C"/>
			<stop  offset="0.47" style="stop-color:#CB242A"/>
			<stop  offset="0.62" style="stop-color:#B12749"/>
			<stop  offset="0.87" style="stop-color:#8B2A78"/>
			<stop  offset="1" style="stop-color:#7C2C8A"/>
		</linearGradient>
		<rect x="267.3" y="100" class="st12" width="45" height="62.8"/>
	</g>
</g>
<path class="st13" d="M421.3,114.2v6.8c0,2.6,1.2,3.7,2.7,3.7c1.7,0,2.9-1.1,2.9-3.7v-6.8h1.5v6.8c0,3.6-1.9,5-4.4,5
	s-4.2-1.3-4.2-4.9v-6.8L421.3,114.2z"/>
<path class="st13" d="M431,125.7v-11.5h1.7l3.8,5.8c0.8,1.2,1.5,2.4,2.1,3.7h0c-0.1-1.5-0.2-2.9-0.2-4.7v-4.8h1.4v11.5h-1.5
	l-3.7-5.9c-0.8-1.2-1.5-2.5-2.2-3.8l0,0c0.1,1.4,0.1,2.8,0.1,4.8v4.9L431,125.7z"/>
<rect x="442.9" y="114.2" class="st13" width="1.5" height="11.5"/>
<path class="st13" d="M449.8,125.7l-3.8-11.5h1.7l1.8,5.7c0.5,1.6,0.9,3,1.3,4.3l0,0c0.3-1.3,0.8-2.8,1.3-4.3l2-5.7h1.6l-4.2,11.5
	H449.8z"/>
<polygon class="st13" points="463,120.3 458.5,120.3 458.5,124.5 463.5,124.5 463.5,125.7 456.9,125.7 456.9,114.2 463.3,114.2 
	463.3,115.5 458.5,115.5 458.5,119.1 463,119.1 "/>
<path class="st13" d="M467,119.6h1.5c1.6,0,2.6-0.9,2.6-2.2c0-1.5-1.1-2.1-2.7-2.1c-0.5,0-1,0-1.5,0.1L467,119.6z M465.5,114.4
	c1-0.2,1.9-0.2,2.9-0.2c1.2-0.1,2.4,0.2,3.4,0.9c0.6,0.6,0.9,1.4,0.9,2.2c0,1.4-0.9,2.6-2.2,2.9v0.1c0.9,0.4,1.6,1.3,1.7,2.3
	c0.2,1.1,0.5,2.1,0.9,3.2h-1.6c-0.3-0.9-0.6-1.8-0.8-2.8c-0.4-1.6-1-2.2-2.4-2.2H467v5h-1.5V114.4z"/>
<path class="st13" d="M474.7,123.9c0.8,0.5,1.7,0.8,2.7,0.8c1.5,0,2.5-0.8,2.5-2s-0.6-1.7-2.2-2.3c-1.9-0.7-3.1-1.7-3.1-3.3
	c0-1.8,1.5-3.1,3.8-3.1c0.9,0,1.8,0.2,2.6,0.6l-0.4,1.2c-0.7-0.4-1.4-0.6-2.2-0.6c-1.6,0-2.2,1-2.2,1.7c0,1.1,0.7,1.6,2.3,2.2
	c2,0.8,3,1.7,3,3.4s-1.3,3.3-4.1,3.3c-1,0-2.1-0.3-3-0.8L474.7,123.9z"/>
<rect x="483.5" y="114.2" class="st13" width="1.5" height="11.5"/>
<path class="st13" d="M489.1,124.6c0.5,0.1,1,0.1,1.5,0.1c3.3,0,5-1.8,5-4.9c0-2.7-1.6-4.4-4.8-4.4c-0.6,0-1.2,0-1.8,0.2V124.6z
	 M487.6,114.4c1.1-0.2,2.1-0.3,3.2-0.3c1.7-0.1,3.4,0.4,4.7,1.4c1.2,1.1,1.8,2.6,1.7,4.1c0.1,1.7-0.5,3.3-1.7,4.5
	c-1.5,1.2-3.3,1.8-5.2,1.7c-0.9,0-1.8,0-2.7-0.1L487.6,114.4z"/>
<path class="st13" d="M504,121l-1.2-3.3c-0.3-0.8-0.4-1.4-0.6-2.1l0,0c-0.2,0.7-0.3,1.4-0.6,2.1l-1.2,3.3H504z M500.1,122.2
	l-1.2,3.6h-1.6l4-11.5h1.8l4,11.5h-1.6l-1.3-3.6H500.1z"/>
<path class="st13" d="M509.8,124.6c0.5,0.1,1,0.1,1.5,0.1c3.3,0,5-1.8,5-4.9c0-2.7-1.5-4.4-4.8-4.4c-0.6,0-1.2,0-1.8,0.2V124.6z
	 M508.3,114.4c1.1-0.2,2.1-0.3,3.2-0.3c1.7-0.1,3.4,0.4,4.8,1.4c1.1,1.1,1.8,2.6,1.7,4.1c0.1,1.7-0.5,3.3-1.7,4.5
	c-1.5,1.2-3.3,1.8-5.2,1.7c-0.9,0-1.8,0-2.8-0.1L508.3,114.4z"/>
<path class="st13" d="M421.3,140.1c0.4,0,0.9,0.1,1.5,0.1c3.3,0,5-1.8,5-4.9c0-2.7-1.5-4.4-4.8-4.4c-0.6,0-1.2,0-1.8,0.1
	L421.3,140.1z M419.8,129.9c1.1-0.2,2.1-0.3,3.2-0.3c1.7-0.1,3.4,0.4,4.8,1.4c1.1,1.1,1.8,2.6,1.7,4.1c0.1,1.7-0.5,3.3-1.7,4.5
	c-1.5,1.2-3.3,1.8-5.2,1.7c-0.9,0-1.8,0-2.7-0.1V129.9z"/>
<polygon class="st13" points="437.2,135.9 432.6,135.9 432.6,140 437.7,140 437.7,141.3 431.1,141.3 431.1,129.7 437.5,129.7 
	437.5,131 432.6,131 432.6,134.6 437.2,134.6 "/>
<polygon class="st13" points="439.6,129.7 441.1,129.7 441.1,140 446.1,140 446.1,141.3 439.6,141.3 "/>
<path class="st13" d="M453.3,141.3l-3.9-11.5h1.7l1.8,5.7c0.5,1.6,0.9,3,1.3,4.3l0,0c0.3-1.3,0.8-2.8,1.3-4.3l2-5.7h1.6l-4.2,11.5
	H453.3z"/>
<path class="st13" d="M464.4,136.5l-1.2-3.3c-0.3-0.8-0.4-1.4-0.6-2.1l0,0c-0.2,0.7-0.3,1.4-0.6,2.1l-1.1,3.3H464.4z M460.5,137.6
	l-1.2,3.6h-1.6l4-11.5h1.8l4,11.5H466l-1.3-3.6H460.5z"/>
<polygon class="st13" points="468.9,129.7 470.5,129.7 470.5,140 475.5,140 475.5,141.3 468.9,141.3 "/>
<polygon class="st13" points="477.1,129.7 478.7,129.7 478.7,140 483.7,140 483.7,141.3 477.1,141.3 "/>
<polygon class="st13" points="491.4,135.9 486.9,135.9 486.9,140 492,140 492,141.3 485.3,141.3 485.3,129.7 491.7,129.7 491.7,131 
	486.9,131 486.9,134.6 491.4,134.6 "/>
<path class="st13" d="M501.2,136.5c2.1,0,3.1-1.1,3.2-3.1l0,0c0-1.7-0.9-2.8-3-2.8c-0.3,0-0.7,0-1,0.1v5.8
	C500.6,136.6,500.9,136.6,501.2,136.5 M499.1,137.7h-0.2v-8h0.2c0.7-0.1,1.5-0.2,2.2-0.2c1.2-0.1,2.4,0.3,3.4,1
	c0.8,0.8,1.3,1.8,1.2,2.9c0,1.2-0.4,2.3-1.2,3.2c-1,0.8-2.3,1.3-3.6,1.2h-0.1C500.3,137.8,499.7,137.8,499.1,137.7"/>
<polygon class="st13" points="507.5,137.7 507.5,129.5 512.2,129.5 512.2,129.7 512.2,130.8 508.9,130.8 508.9,132.8 512,132.8 
	512,133 512,133.8 512,134.1 508.9,134.1 508.9,136.4 512.3,136.4 512.3,136.7 512.3,137.7 "/>
<path class="st13" d="M521.1,135.4c0.4,0.1,0.8,0.1,1.3,0.1c1.8,0,2.9-0.9,2.9-2.4s-1.1-2.3-2.8-2.3c-0.5,0-1,0-1.4,0.1V135.4z
	 M519.6,129.9c1-0.2,1.9-0.2,2.9-0.2c1.2-0.1,2.4,0.3,3.3,1c0.7,0.6,1,1.5,1,2.4c0,0.9-0.3,1.8-0.9,2.5c-1,0.9-2.3,1.3-3.6,1.3
	c-0.4,0-0.8,0-1.2-0.1v4.6h-1.5L519.6,129.9z"/>
<path class="st13" d="M529.9,129.7v6.9c0,2.6,1.2,3.7,2.7,3.7c1.7,0,2.9-1.1,2.9-3.7v-6.9h1.5v6.7c0,3.6-1.9,5-4.4,5
	s-4.2-1.3-4.2-4.9v-6.8L529.9,129.7z"/>
<polygon class="st13" points="545.1,135.9 540.5,135.9 540.5,140 545.6,140 545.6,141.3 539,141.3 539,129.7 545.3,129.7 545.3,131 
	540.5,131 540.5,134.6 545.1,134.6 "/>
<path class="st13" d="M549.2,140.1c0.4,0.1,0.8,0.1,1.3,0.1c1.6,0,3-0.6,3-2.3s-1.4-2.2-3-2.2h-1.3V140.1z M549.2,134.6h1.4
	c1.6,0,2.5-0.8,2.5-1.9c0-1.3-1-1.9-2.5-1.9c-0.4,0-0.9,0-1.3,0.1V134.6z M547.7,129.9c0.9-0.2,1.8-0.3,2.8-0.3
	c1.1-0.1,2.3,0.2,3.2,0.8c0.6,0.5,1,1.2,1,2c0,1.2-0.9,2.2-2,2.5v0.1c1.4,0.3,2.4,1.5,2.4,2.9c0,0.9-0.3,1.7-1,2.3
	c-0.8,0.7-2.1,1.1-4,1.1c-0.8,0-1.6,0-2.3-0.1L547.7,129.9z"/>
<polygon class="st13" points="556.8,129.7 558.3,129.7 558.3,140 563.3,140 563.3,141.3 556.8,141.3 "/>
<path class="st13" d="M570.7,136.5l-1.2-3.3c-0.3-0.8-0.4-1.4-0.6-2.1l0,0c-0.2,0.7-0.3,1.4-0.6,2.1l-1.2,3.3H570.7z M566.9,137.6
	l-1.2,3.6h-1.6l4-11.5h1.8l4,11.5h-1.6l-1.3-3.6H566.9z"/>
<rect x="499" y="140" class="st13" width="13.5" height="1.3"/>
<rect x="409.9" y="100" class="st13" width="1.5" height="41.4"/>
<path class="st13" d="M335.7,114.2V130c0,5.3,2.2,7.7,5.6,7.7c3.6,0,5.8-2.4,5.8-7.7v-15.8h5v15.4c0,8.3-4.4,12-11,12
	c-6.4,0-10.5-3.5-10.5-12v-15.4H335.7z"/>
<path class="st13" d="M364.3,141.3l-8.9-27h5.5l3.8,12.3c1.1,3.4,2,6.5,2.7,9.8h0.1c0.7-3.2,1.8-6.5,2.8-9.8l4-12.4h5.3l-9.5,27
	L364.3,141.3z"/>
<path class="st13" d="M388.3,127.1c0.8,0.2,1.6,0.3,2.5,0.2c3.8,0,6-1.8,6-5s-2.1-4.6-5.6-4.6c-1,0-1.9,0.1-2.9,0.2L388.3,127.1z
	 M383.3,114.6c2.5-0.4,5.1-0.6,7.7-0.6c3.7,0,6.3,0.8,8.1,2.2c1.8,1.5,2.8,3.7,2.7,6c0.1,2.3-0.7,4.5-2.3,6.1c-2,2-5.1,2.9-8.7,2.9
	c-0.8,0-1.6,0-2.5-0.2v10.2h-5L383.3,114.6z"/>
<path class="st13" d="M305.5,197.8c9.5,3.8,15.3,11.4,7.8,17.9c-2.5,2.1-8.6,4-15.6,4c2.8,1.2,5.4,4,6.5,10.1l1.4,9
	c0.8,5.2,3.8,2.7,6.3,0.7c3.4-2.9,6.3-6.3,8.6-10.1c0.5-0.8,1.1-0.4,0.7,0.2c-2.8,4.8-6.5,9-10.9,12.4c-5.3,4-9.5,4-10.7-3.5
	l-1.3-8.6c-1.1-6.8-3-9.7-6.8-10.1l-1.7,3.3c-8.3,14.7-18.8,25.5-33.7,30.8c-1.8,0.6-3.5,1.1-5.4,1.5c7.7,12.4,23.9,12.9,32,3.9
	c1.1-1.2,1.4-0.6,0.5,0.4c-8.5,9.9-26.1,9.6-35.7-3.6c-8.6,1.4-17.1,0.2-22.2-6.2c-1.3-1.6-1.9-4.4,1.2-5.4
	c2.4,9.7,11.4,11.8,20.1,10.5c-2-3.1-3.4-6.5-4.3-10c-11.6-0.7-14.8-11.8-12.2-21.6c5.1-18.6,22.8-28.9,42.3-30.4
	c10.4-0.8,20.9,0.6,30.7,4c1.1-0.7,2.3-1.3,3.5-1.8c5.5-2.3,11.6-1.5,14.6,3.1c1.1,1.6,1.4,4.1-1.8,5.1c0.1-5.3-4.4-10.6-10.5-7.9
	C307.8,196,306.6,196.8,305.5,197.8z M301.9,197.8c-9.4-3.2-19.3-4.3-29.2-3.3c-17.8,1.8-33.7,15.1-36.8,31.2
	c-1.3,7-0.5,15,5.9,17.1c-0.3-1.6-0.5-3.3-0.6-4.9c-0.3-7,3-18.8,10.9-26.9c15.4-15.5,30.2-9.2,22.5,9.7
	c-3.6,9.1-11.5,18.9-22.1,22.4c-1.9,0.6-3.8,1.1-5.7,1.4c0.4,3.4,1.5,6.6,3.1,9.6c1.8-0.4,3.6-0.9,5.3-1.6
	c14.1-5.4,20.1-16.2,28.3-30.7l3.5-6.3C290.9,209.2,295.5,202.2,301.9,197.8z M246.7,243.3c1.1-0.1,2.2-0.3,3.3-0.6
	c12.7-3.1,19.9-13.9,23.3-22c6.4-14.8-1.9-23.1-15.1-9C249.9,220.5,245.6,233.6,246.7,243.3L246.7,243.3z M304.4,198.7
	c-3.4,3.2-5.8,7.7-8.1,12l-4,7.4c8.6,0.8,14.4-1.9,16.9-4.6C313.8,208.4,312.2,202,304.4,198.7z"/>
<path class="st13" d="M335.2,218.3c4.4,0,7.7,2.7,4.6,7.5c-2.8,4.4-10.9,7-17.8,8.2c-1.5,3.5-1.6,6.8,0.7,8.2
	c3.5,2.1,9,0.3,13.3-2.8c3.5-2.8,6.5-6.3,8.8-10.1c0.4-0.7,1-0.3,0.7,0.3c-2.3,4.1-5.4,7.7-9.1,10.6c-4.5,3.5-9.4,5.5-15.2,3.9
	c-4.1-1.1-7.2-5.9-4-13C320.3,224.2,327.3,218.3,335.2,218.3z M324.6,229.1c-0.8,1.3-1.6,2.6-2.2,3.9c4.9-0.9,9.2-3.9,11.9-8.2
	c1.9-3.2,2-5.5,0.3-5.5C332.3,219.3,328.1,223.5,324.6,229.1z"/>
<path class="st13" d="M360,227.8c-1.6-0.1-3-1.1-2.7-2.7c0.3-2,2.7-3.2,5-2.7c1.1-2.1-0.3-3-2-3c-4.5-0.3-9,5.8-11.5,9.7
	c-1,1.5-1.9,3.1-2.5,4.9c-1.6,3.5-1.6,6.8,0.6,8.2c3.5,2.1,9,0.3,13.2-2.8c3.5-2.8,6.6-6.2,8.9-10.1c0.4-0.7,1-0.3,0.7,0.3
	c-2.3,4.1-5.3,7.7-9,10.6c-4.5,3.5-9.4,5.5-15.3,3.9c-4.1-1.1-7.2-5.9-4-13c3-6.8,10.1-12.8,18-12.8
	C367.5,218.4,366.6,227.9,360,227.8z"/>
<path class="st13" d="M378.2,242.1c0.1,0.2,0.3,0.3,0.6,0.3c2.4,0.8,5.8-0.8,7.8-2.3c3.7-3,6.9-6.7,9.3-10.9
	c0.3-0.7,0.9-0.3,0.6,0.3c-2.4,4.2-5.5,8-9.1,11.2c-3.8,3.1-7.6,4-9.9,3.9c-0.9-0.1-1.8-0.4-2.5-0.8c-1.7,0.6-3.5,0.9-5.4,0.9
	c-7.3,0-7.3-5.9-3.3-13.3s10.7-13.2,18-13.2s7.5,5.9,3.5,13.2C385.3,235.7,382.1,239.3,378.2,242.1z M373.3,242.2
	c-1.1-2.5,1.4-5.6,5.6-5.8c2.7-3.4,4.8-7.3,6.2-11.4c1.2-3.9,0.2-5.4-1.6-5.4c-2.6,0-7.6,5.3-11.3,12s-4.8,12.2-2.1,12.2
	C371.2,243.5,372.4,243,373.3,242.2L373.3,242.2z"/>
<path class="st13" d="M423.6,229.6c-5.4,9-12.6,15.1-17.3,15.1c-2.5,0-4.7-3-0.9-9.9l6.3-11.4c2.6-4.6-0.7-3.6-4.8-0.4
	c-2.3,1.9-4.3,4-5.9,6.5l-8.1,14.7c-2.4,0-5.4-1.6-2.7-6.4l10.5-18.9c2.3,0,5.2,1.6,3,5.9c3.3-3.3,7.8-6.4,10.8-6.4
	c2.4,0,4.8,3,1,9.9l-6.3,11.4c-2.8,5,1.2,2.9,4.5,0.5c3.8-3,6.9-6.7,9.4-10.9C423.4,228.6,424,229,423.6,229.6z"/>
<path class="st13" d="M432.2,242.1c0.1,0.2,0.3,0.3,0.6,0.3c2.4,0.8,5.8-0.8,7.7-2.3c3.7-3,6.9-6.7,9.3-10.9
	c0.3-0.7,0.9-0.3,0.6,0.3c-2.4,4.2-5.5,8-9.1,11.2c-3.8,3.1-7.6,4-9.9,3.9c-0.9-0.1-1.8-0.4-2.5-0.8c-1.7,0.6-3.5,0.9-5.4,0.9
	c-7.3,0-7.3-5.9-3.3-13.3s10.7-13.2,18-13.2s7.5,5.9,3.5,13.2C439.3,235.7,436.1,239.3,432.2,242.1z M427.4,242.2
	c-1.1-2.5,1.4-5.6,5.6-5.8c2.7-3.4,4.8-7.3,6.2-11.4c1.2-3.9,0.2-5.4-1.6-5.4c-2.5,0-7.6,5.3-11.3,12s-4.8,12.2-2.1,12.2
	C425.3,243.5,426.4,243,427.4,242.2z"/>
<path class="st13" d="M465.1,227.8c-1.6-0.1-3-1.1-2.7-2.7c0.3-2,2.7-3.2,5-2.7c1.1-2.1-0.3-3-2-3c-4.5-0.3-9,5.8-11.5,9.7
	c-1,1.5-1.9,3.1-2.6,4.9c-1.6,3.5-1.6,6.8,0.6,8.2c3.5,2.1,9,0.3,13.2-2.8c3.5-2.8,6.6-6.2,8.9-10.1c0.4-0.7,1-0.3,0.7,0.3
	c-2.3,4.1-5.3,7.7-9,10.6c-4.5,3.5-9.4,5.5-15.3,3.9c-4.1-1.1-7.2-5.9-4-13c3-6.8,10.1-12.8,18-12.8
	C472.5,218.4,471.7,227.9,465.1,227.8z"/>
<path class="st13" d="M478.9,218.8c2.4,0,5.4,1.6,2.8,6.4l-8,14.4c-2.8,5,1.2,2.9,4.6,0.5c3.7-3,6.9-6.7,9.3-10.9
	c0.3-0.7,0.9-0.3,0.6,0.3c-5.3,9-12.6,15.1-17.3,15.1c-2.5,0-4.7-3-0.8-9.9L478.9,218.8z M486.1,208.3c1.5-0.2,2.8,0.9,3,2.5
	c0,0.2,0,0.4,0,0.5c-0.5,1.8-2.1,3-4,3.1c-1.9,0-3.3-1.3-3-3.1S484.3,208.3,486.1,208.3L486.1,208.3z"/>
<path class="st13" d="M517.2,223.4c2.6-4.6-0.6-3.6-4.7-0.4c-2.3,1.8-4.3,4-5.9,6.4l-8.1,14.7c-2.5,0-5.5-1.6-2.8-6.4l7.9-14.3
	c2.6-4.6-0.7-3.6-4.8-0.4c-2.3,1.9-4.3,4-5.9,6.5l-8.1,14.7c-2.4,0-5.4-1.6-2.7-6.4l10.5-18.9c2.3,0,5.2,1.6,3,5.9
	c3.3-3.3,7.7-6.4,10.8-6.4c2.1,0,4,2.1,2.3,6.8l0.6-0.5c3.3-3.3,7.7-6.4,10.8-6.4c2.4,0,4.8,3,0.9,9.9l-6.3,11.4
	c-2.9,5,1.2,2.9,4.5,0.5c3.8-3,7-6.7,9.3-10.9c0.5-0.7,1.1-0.3,0.7,0.3c-5.3,9-12.5,15.1-17.3,15.1c-2.4,0-4.7-3-0.9-9.9
	L517.2,223.4z"/>
<path class="st13" d="M533.5,218.8c2.4,0,5.4,1.6,2.8,6.4l-8,14.4c-2.8,5,1.2,2.9,4.6,0.5c3.7-3,6.9-6.7,9.3-10.9
	c0.3-0.7,0.9-0.3,0.6,0.3c-5.3,9-12.6,15.1-17.3,15.1c-2.5,0-4.7-3-0.8-9.9L533.5,218.8z M540.6,208.3c1.5-0.2,2.8,0.9,3,2.5
	c0,0.2,0,0.4,0,0.5c-0.5,1.8-2.1,3-4,3.1c-1.9,0-3.3-1.3-3-3.1S538.8,208.3,540.6,208.3z"/>
<path class="st13" d="M556.7,218.3c4.5,0,7.8,2.7,4.6,7.5c-2.8,4.4-10.9,7-17.8,8.2c-1.5,3.5-1.6,6.8,0.7,8.2
	c3.5,2.1,9,0.3,13.3-2.8c3.5-2.8,6.5-6.3,8.8-10.1c0.4-0.7,1-0.3,0.7,0.3c-2.3,4.1-5.4,7.7-9.1,10.6c-4.5,3.5-9.4,5.5-15.3,3.9
	c-4.1-1.1-7.2-5.9-4-13C541.8,224.2,548.8,218.3,556.7,218.3z M546.1,229.1c-0.8,1.3-1.6,2.6-2.2,3.9c4.9-0.9,9.3-3.9,11.9-8.2
	c1.9-3.2,2-5.5,0.2-5.5C553.8,219.3,549.6,223.5,546.1,229.1z"/>
<path class="st13" d="M594.2,229.6c-5.3,9-12.6,15.1-17.3,15.1c-2.5,0-4.7-3-0.9-9.9l6.3-11.4c2.5-4.6-0.7-3.6-4.8-0.4
	c-2.3,1.9-4.3,4-5.9,6.5l-8.2,14.7c-2.4,0-5.3-1.6-2.7-6.4l10.5-18.9c2.3,0,5.2,1.6,3,5.9c3.3-3.3,7.7-6.4,10.8-6.4
	c2.4,0,4.8,3,1,9.9l-6.3,11.4c-2.8,5,1.2,2.9,4.5,0.5c3.7-3,6.9-6.7,9.3-10.9C593.9,228.6,594.5,229,594.2,229.6z"/>
<path class="st13" d="M599.1,218.8c9-15.8,21.3-32.9,37.2-38.5c11.2-3.9,21.3-4.4,28.1,4c1.3,1.6,1.9,4.4-1.2,5.4
	c-3.4-12.9-15.7-12.6-26.3-8.5c-13.3,5.1-23.4,23.2-31.3,37.5h6.3c1,0,0.6,1.2-0.6,1.2h-6.5l-8.7,15.9c-2.1,3.6-2.7,6.1-1.3,6.6
	s3-0.1,4.9-1c4.9-2.4,9.4-7.3,12.4-12.3c0.4-0.7,0.9-0.3,0.7,0.3c-3.2,5.3-7.1,9.8-12.4,12.9c-8.3,4.9-15.1,1.3-8.2-11l6.3-11.4h-4
	c-1,0-0.8-1.2,0.4-1.2H599.1z"/>
<path class="st13" d="M621.2,242.1c0.1,0.2,0.3,0.3,0.6,0.3c2.4,0.8,5.8-0.8,7.7-2.3c3.7-3,6.9-6.7,9.3-10.9
	c0.3-0.7,0.9-0.3,0.6,0.3c-2.4,4.2-5.5,8-9.2,11.2c-3.8,3.1-7.6,4-9.9,3.9c-0.9-0.1-1.8-0.4-2.6-0.8c-1.7,0.6-3.5,0.9-5.3,0.9
	c-7.3,0-7.3-5.9-3.3-13.3s10.7-13.2,18-13.2s7.5,5.9,3.5,13.2C628.3,235.7,625.1,239.3,621.2,242.1z M616.3,242.2
	c-1.1-2.5,1.4-5.6,5.6-5.8c2.7-3.4,4.8-7.3,6.2-11.4c1.2-3.9,0.2-5.4-1.7-5.4c-2.5,0-7.6,5.3-11.3,12s-4.8,12.2-2.2,12.2
	C614.2,243.5,615.4,243,616.3,242.2z"/>
<path class="st14" d="M401.5,180.6c-1.8,0-2.3-1.3-2.3-2.9s0.5-2.8,2.3-2.8s2.3,1.3,2.3,2.8S403.2,180.6,401.5,180.6z M401.5,175.2
	c-1.3,0-1.8,1.1-1.8,2.4s0.4,2.5,1.8,2.5s1.7-1.1,1.7-2.5S402.9,175.2,401.5,175.2z"/>
<path class="st14" d="M407.5,181c-1.2-0.2-1.8-0.8-1.8-1.8v-3.8h-0.8V175h0.8v-1.4h0.5v1.4h1.3v0.4h-1.3v3.8c0,0.8,0.4,1.2,1.5,1.4
	L407.5,181z"/>
<path class="st14" d="M411,180.6c-1.8,0-2.3-1.3-2.3-2.9s0.5-2.8,2.3-2.8s2.3,1.3,2.3,2.8S412.7,180.6,411,180.6z M411,175.2
	c-1.3,0-1.8,1.1-1.8,2.4s0.4,2.5,1.8,2.5s1.7-1.1,1.7-2.5S412.3,175.2,411,175.2z"/>
<path class="st14" d="M417.6,175.5c-0.3-0.2-0.6-0.3-0.9-0.3c-0.7,0-1.1,1-1.3,1.4v3.8H415v-4.3c0-0.5-0.1-0.9-0.1-1.2h0.4l0.2,1
	c0.2-0.4,0.6-1.2,1.4-1.2c0.4,0,0.7,0.1,1,0.3L417.6,175.5z"/>
<path class="st14" d="M421.1,182.8c-1.8,0-2.4-0.6-2.4-1.5c0-0.7,0.7-1.1,1.2-1.2c-0.4-0.2-0.8-0.4-0.8-0.9c0-0.3,0.2-0.7,0.5-0.9
	c-0.4-0.4-0.7-1-0.6-1.5c0-1.1,0.8-2,1.9-2c0.1,0,0.1,0,0.2,0c0.3,0,0.6,0,0.9,0.2c0.4,0,0.9-0.1,1.5-0.1l-0.2,0.4h-0.8
	c0.9,0.7,1.1,1.9,0.4,2.8c-0.4,0.5-1.1,0.8-1.8,0.8c-0.4,0-0.8-0.1-1.1-0.3c-0.2,0.1-0.3,0.4-0.3,0.6c0,0.4,0.2,0.5,1.6,0.7
	c1.8,0.2,2.3,0.8,2.3,1.4C423.5,182.3,422.5,182.8,421.1,182.8z M420.4,180.3c-0.8,0.2-1.1,0.6-1.1,1.1c0,0.6,0.5,1.1,1.9,1.1
	s1.9-0.5,1.9-1.1S422.2,180.4,420.4,180.3L420.4,180.3z M421.1,175.3c-0.9,0-1.6,0.7-1.6,1.6c0,0.9,0.7,1.6,1.6,1.6
	c1.1,0,1.5-0.8,1.5-1.7c0.1-0.8-0.4-1.5-1.2-1.6C421.3,175.2,421.2,175.2,421.1,175.3L421.1,175.3z"/>
<path class="st14" d="M428.5,180.4c0-0.1-0.2-0.5-0.2-0.7c-0.3,0.5-1,0.8-1.6,0.8c-1,0-1.9-0.5-1.9-1.6s0.6-1.8,2.9-1.8h0.6v-0.5
	c0-0.9-0.4-1.4-1.3-1.4c-0.6,0-1.2,0.2-1.8,0.5l-0.2-0.4c0.6-0.3,1.3-0.4,2-0.4c0.9-0.1,1.7,0.5,1.8,1.4c0,0.1,0,0.2,0,0.4v2.2
	c0,0.4,0.1,1,0.1,1.7L428.5,180.4z M428.3,177.6h-0.4c-1.9,0-2.5,0.4-2.5,1.4c0,0.7,0.5,1.2,1.4,1.2c0.6,0,1.2-0.3,1.6-0.9V177.6z"
	/>
<path class="st14" d="M434.2,177.8c0,1.3,0.4,2.4,1.7,2.4c0.6,0,1.2-0.2,1.7-0.5l0.1,0.4c-0.6,0.3-1.3,0.4-1.9,0.4
	c-1.6,0-2.2-1.3-2.2-2.8c0-1.3,0.5-2.9,2.2-2.9s2.2,1.4,2.2,3L434.2,177.8z M435.8,175.2c-1,0-1.6,0.9-1.6,2.2h3.3
	C437.5,176,437,175.2,435.8,175.2z"/>
<path class="st14" d="M439.7,180.4v-7.9h0.5v7.9H439.7z"/>
<path class="st14" d="M447.5,180.6c-0.6,0-1.3-0.3-1.6-0.8v2.8h-0.5v-6c0-0.5,0-1.1-0.1-1.6h0.4l0.2,0.9c0.3-0.6,0.9-1,1.6-1
	c1.6,0,2.1,1.4,2.1,2.9S448.8,180.6,447.5,180.6z M447.3,175.2c-0.7,0.1-1.3,0.6-1.5,1.2v2.8c0.3,0.6,0.9,0.9,1.6,0.9
	c1,0,1.6-0.8,1.6-2.5C449,176.3,448.6,175.2,447.3,175.2z"/>
<path class="st14" d="M453.9,175.5c-0.3-0.2-0.6-0.3-0.9-0.3c-0.7,0-1.1,1-1.3,1.4v3.8h-0.5v-4.3c0-0.5-0.1-0.9-0.1-1.2h0.4l0.2,1
	c0.2-0.4,0.6-1.2,1.4-1.2c0.4,0,0.7,0.1,1,0.3L453.9,175.5z"/>
<path class="st14" d="M455.7,177.8c0,1.3,0.4,2.4,1.7,2.4c0.6,0,1.2-0.2,1.7-0.5l0.1,0.4c-0.6,0.3-1.3,0.4-1.9,0.4
	c-1.6,0-2.2-1.3-2.2-2.8c0-1.3,0.5-2.9,2.1-2.9s2.2,1.4,2.2,3L455.7,177.8z M457.3,175.2c-1,0-1.5,0.9-1.6,2.2h3.3
	C459,176,458.5,175.2,457.3,175.2L457.3,175.2z"/>
<path class="st14" d="M462.7,180.6c-0.6,0-1.2-0.1-1.8-0.3l0.2-0.4c0.5,0.3,1.1,0.4,1.6,0.4c0.6,0.1,1.2-0.4,1.3-1
	c0-0.1,0-0.1,0-0.2c0-0.8-0.7-1-1.4-1.2s-1.7-0.6-1.7-1.5c0-1.1,0.9-1.5,2-1.5c0.5,0,1.1,0.2,1.5,0.4l-0.2,0.4
	c-0.5-0.3-1-0.4-1.5-0.4c-0.7,0-1.4,0.3-1.4,1.1c0,0.6,0.6,0.8,1.3,1c0.9,0.3,1.8,0.5,1.8,1.7S463.7,180.6,462.7,180.6z"/>
<path class="st14" d="M466.6,177.8c0,1.3,0.4,2.4,1.7,2.4c0.6,0,1.2-0.2,1.7-0.5l0.1,0.4c-0.6,0.3-1.3,0.4-1.9,0.4
	c-1.6,0-2.2-1.3-2.2-2.8c0-1.3,0.5-2.9,2.2-2.9s2.2,1.4,2.2,3L466.6,177.8z M468.2,175.2c-1.1,0-1.6,0.9-1.6,2.2h3.3
	C469.9,176,469.4,175.2,468.2,175.2z"/>
<path class="st14" d="M475.5,180.4v-3.3c0-1-0.2-1.9-1.4-1.9c-0.7,0.1-1.3,0.5-1.5,1.2v4h-0.5v-4.3c0-0.5-0.1-0.7-0.1-1.2h0.4
	l0.1,0.9c0.3-0.6,1-1,1.6-1c1.4,0,1.8,0.9,1.8,2.1v3.4L475.5,180.4z"/>
<path class="st14" d="M480,181c-1.2-0.2-1.8-0.8-1.8-1.8v-3.8h-0.8V175h0.8v-1.4h0.5v1.4h1.3v0.4h-1.3v3.8c0,0.8,0.4,1.2,1.5,1.4
	L480,181z"/>
<path class="st14" d="M481.8,177.8c0,1.3,0.4,2.4,1.7,2.4c0.6,0,1.2-0.2,1.7-0.5l0.1,0.4c-0.6,0.3-1.3,0.4-1.9,0.4
	c-1.6,0-2.2-1.3-2.2-2.8c0-1.3,0.5-2.9,2.1-2.9s2.2,1.4,2.2,3L481.8,177.8z M483.4,175.2c-1,0-1.5,0.9-1.6,2.2h3.3
	C485.1,176,484.6,175.2,483.4,175.2L483.4,175.2z"/>
</svg>
