<?xml version="1.0" encoding="utf-8"?>
<!-- Generator: Adobe Illustrator 25.4.1, SVG Export Plug-In . SVG Version: 6.00 Build 0)  -->
<svg version="1.1" xmlns="http://www.w3.org/2000/svg" xmlns:xlink="http://www.w3.org/1999/xlink" x="0px" y="0px"
	 viewBox="0 0 841 601" style="enable-background:new 0 0 841 601;" xml:space="preserve">
<style type="text/css">
	.st0{opacity:0.58;}
	.st1{clip-path:url(#SVGID_00000070837711253593584570000002591472804579637919_);fill:#FFFFFF;}
	.st2{clip-path:url(#SVGID_00000070837711253593584570000002591472804579637919_);}
	.st3{fill:url(#SVGID_00000032634102674207239120000002817825930106975925_);}
	.st4{fill:url(#SVGID_00000000182261701306757300000009165149100391688326_);}
	.st5{fill:url(#SVGID_00000019677925205053543930000016235228780940361879_);}
	.st6{fill:url(#SVGID_00000103960344627322403200000012649085895457153211_);}
	.st7{fill:url(#SVGID_00000052087970735321731170000017195850572596382114_);}
	.st8{fill:url(#SVGID_00000066505491393266860770000006343986010486922910_);}
	.st9{fill:url(#SVGID_00000062894187417942738970000013213155683020295582_);}
	.st10{fill:url(#SVGID_00000114076108201651848060000011607464117460514232_);}
	.st11{fill:url(#SVGID_00000124148448534766512300000001190553901557092026_);}
	.st12{fill:url(#SVGID_00000072965440780602952630000001549804772354315904_);}
	.st13{fill:url(#SVGID_00000144321584894166160790000001190858164148041092_);}
	.st14{fill:url(#SVGID_00000145746457967449572720000012659271049379030691_);}
	.st15{fill:url(#SVGID_00000018212247286553898620000002746823269380245175_);}
	.st16{fill:url(#SVGID_00000097502502604653400350000008971942957656210872_);}
	.st17{fill:url(#SVGID_00000106105692871375910510000011942275508054693564_);}
	.st18{fill:url(#SVGID_00000047052773400516347400000010440479200851266707_);}
	.st19{fill:url(#SVGID_00000034770445592433548290000017140754399001216899_);}
	.st20{fill:#010202;}
	.st21{fill:none;}
	.st22{fill:url(#SVGID_00000112625301944289330280000000999482586323539901_);}
	.st23{fill:#FCD80B;}
	.st24{fill:url(#SVGID_00000179615569725472743000000006343530990026406554_);}
	.st25{fill:url(#SVGID_00000122679583439620981140000009623163701060288439_);}
	.st26{fill:url(#SVGID_00000135659928871887479440000014383566850796703894_);}
	.st27{fill:url(#SVGID_00000182503850582422123680000010050209630317100688_);}
	.st28{fill:url(#SVGID_00000096034469757399712040000001168666833507609244_);}
	.st29{font-family:'HelveticaNeueLTStd-LtCnO';}
	.st30{font-size:22px;}
	.st31{fill-rule:evenodd;clip-rule:evenodd;}
	.st32{fill:none;stroke:#5E5E5E;stroke-miterlimit:10;}
	.st33{fill-rule:evenodd;clip-rule:evenodd;fill:#FCD80F;}
	.st34{fill-rule:evenodd;clip-rule:evenodd;fill:none;}
</style>
<g id="fondo">
	<g id="Business_card_13_" class="st0">
		<g>
			<g id="Artwork_138_15_">
			</g>
		</g>
	</g>
	<g>
		<defs>
			<rect id="SVGID_1_" x="-7.55" y="-5.6" width="856.3" height="615.06"/>
		</defs>
		<clipPath id="SVGID_00000085218846019601426870000004132401697816771727_">
			<use xlink:href="#SVGID_1_"  style="overflow:visible;"/>
		</clipPath>
		
			<rect x="-20.32" y="-15.17" style="clip-path:url(#SVGID_00000085218846019601426870000004132401697816771727_);fill:#FFFFFF;" width="885.37" height="637.45"/>
		<g style="clip-path:url(#SVGID_00000085218846019601426870000004132401697816771727_);">
			<g>
				
					<linearGradient id="SVGID_00000068656782989481875490000008468053282100209308_" gradientUnits="userSpaceOnUse" x1="358.4656" y1="252.6133" x2="358.4656" y2="91.4984" gradientTransform="matrix(0.9943 0.1063 -0.1063 0.9943 20.7566 -38.5894)">
					<stop  offset="0" style="stop-color:#FFFFFF"/>
					<stop  offset="1" style="stop-color:#D1D2D2"/>
				</linearGradient>
				<path style="fill:url(#SVGID_00000068656782989481875490000008468053282100209308_);" d="M819.27,580.34l-1.4-0.15
					c7.3-68.32,1.25-136-18-201.16c-18.59-62.94-48.65-120.89-89.33-172.25c-40.68-51.36-89.94-93.53-146.41-125.35
					C505.67,48.49,442,28.15,374.9,20.97s-133.63-0.75-197.74,19.08C115.24,59.22,58.18,90.02,7.56,131.62
					c-50.62,41.6-92.25,91.89-123.73,149.47c-32.59,59.62-52.82,124.49-60.12,192.81l-1.4-0.15
					c7.32-68.51,27.61-133.56,60.29-193.35c31.57-57.75,73.31-108.18,124.07-149.89C57.44,88.8,114.66,57.9,176.76,38.69
					c64.28-19.89,131-26.33,198.29-19.14c67.29,7.19,131.14,27.59,189.77,60.63c56.63,31.91,106.02,74.2,146.82,125.7
					c40.8,51.5,70.94,109.62,89.58,172.73C820.52,443.96,826.59,511.83,819.27,580.34z"/>
				
					<linearGradient id="SVGID_00000131333091736396732420000015463078090188409749_" gradientUnits="userSpaceOnUse" x1="361.0261" y1="252.6134" x2="361.0261" y2="91.4982" gradientTransform="matrix(0.9943 0.1063 -0.1063 0.9943 20.7566 -38.5894)">
					<stop  offset="0" style="stop-color:#FFFFFF"/>
					<stop  offset="1" style="stop-color:#D1D2D2"/>
				</linearGradient>
				<path style="fill:url(#SVGID_00000131333091736396732420000015463078090188409749_);" d="M823.34,566.35l-1.4-0.15
					c7.3-68.32,1.25-136-18-201.16c-18.59-62.94-48.65-120.89-89.33-172.25c-40.68-51.36-89.94-93.53-146.41-125.35
					C509.74,34.5,446.07,14.16,378.97,6.99S245.33,6.23,181.23,26.07c-61.92,19.16-118.98,49.97-169.6,91.56
					c-50.62,41.6-92.25,91.89-123.73,149.47c-32.59,59.62-52.82,124.49-60.12,192.81l-1.4-0.15
					c7.32-68.51,27.61-133.56,60.29-193.35c31.57-57.75,73.31-108.18,124.07-149.89C61.51,74.81,118.73,43.92,180.83,24.7
					c64.28-19.89,131-26.33,198.29-19.14c67.29,7.19,131.14,27.59,189.77,60.63c56.63,31.91,106.02,74.2,146.82,125.7
					c40.8,51.5,70.94,109.62,89.58,172.73C824.59,429.97,830.66,497.84,823.34,566.35z"/>
				
					<linearGradient id="SVGID_00000020372055100154178310000015069969281750930354_" gradientUnits="userSpaceOnUse" x1="363.5873" y1="252.6135" x2="363.5873" y2="91.4982" gradientTransform="matrix(0.9943 0.1063 -0.1063 0.9943 20.7566 -38.5894)">
					<stop  offset="0" style="stop-color:#FFFFFF"/>
					<stop  offset="1" style="stop-color:#D1D2D2"/>
				</linearGradient>
				<path style="fill:url(#SVGID_00000020372055100154178310000015069969281750930354_);" d="M827.41,552.37l-1.4-0.15
					c7.3-68.32,1.25-136-18-201.16c-18.59-62.94-48.65-120.89-89.33-172.25C678,127.45,628.74,85.28,572.27,53.46
					C513.81,20.52,450.14,0.18,383.04-7C315.93-14.17,249.4-7.75,185.3,12.09C123.38,31.25,66.32,62.05,15.7,103.65
					c-50.62,41.6-92.25,91.89-123.73,149.47c-32.59,59.62-52.82,124.49-60.12,192.81l-1.4-0.15
					c7.32-68.51,27.61-133.56,60.29-193.35c31.57-57.75,73.31-108.18,124.07-149.89C65.58,60.83,122.8,29.93,184.9,10.72
					c64.28-19.89,131-26.33,198.29-19.14c67.29,7.19,131.14,27.59,189.77,60.63c56.63,31.91,106.02,74.2,146.82,125.7
					c40.8,51.5,70.93,109.62,89.58,172.73C828.66,415.99,834.73,483.86,827.41,552.37z"/>
				
					<linearGradient id="SVGID_00000168811383723540893740000000751044745653092483_" gradientUnits="userSpaceOnUse" x1="366.1478" y1="252.6134" x2="366.1478" y2="91.4982" gradientTransform="matrix(0.9943 0.1063 -0.1063 0.9943 20.7566 -38.5894)">
					<stop  offset="0" style="stop-color:#FFFFFF"/>
					<stop  offset="1" style="stop-color:#D1D2D2"/>
				</linearGradient>
				<path style="fill:url(#SVGID_00000168811383723540893740000000751044745653092483_);" d="M831.48,538.39l-1.4-0.15
					c7.3-68.32,1.25-136-18-201.16c-18.59-62.94-48.65-120.89-89.33-172.25c-40.68-51.36-89.94-93.53-146.41-125.35
					C517.88,6.53,454.21-13.81,387.11-20.98C320-28.16,253.47-21.74,189.37-1.9C127.45,17.26,70.39,48.07,19.77,89.67
					c-50.62,41.6-92.25,91.89-123.73,149.47c-32.59,59.62-52.82,124.49-60.12,192.81l-1.4-0.15
					c7.32-68.51,27.61-133.56,60.29-193.35C-73.61,180.7-31.87,130.27,18.89,88.55C69.65,46.84,126.88,15.95,188.97-3.27
					c64.29-19.89,131-26.33,198.29-19.14c67.29,7.19,131.14,27.59,189.77,60.63c56.63,31.91,106.02,74.2,146.82,125.7
					c40.8,51.5,70.93,109.62,89.58,172.73C832.73,402,838.8,469.87,831.48,538.39z"/>
				
					<linearGradient id="SVGID_00000014635879633616764280000005006993257185120914_" gradientUnits="userSpaceOnUse" x1="368.7083" y1="252.6139" x2="368.7083" y2="91.4988" gradientTransform="matrix(0.9943 0.1063 -0.1063 0.9943 20.7566 -38.5894)">
					<stop  offset="0" style="stop-color:#FFFFFF"/>
					<stop  offset="1" style="stop-color:#D1D2D2"/>
				</linearGradient>
				<path style="fill:url(#SVGID_00000014635879633616764280000005006993257185120914_);" d="M835.55,524.4l-1.4-0.15
					c7.3-68.32,1.25-136-18-201.16c-18.59-62.94-48.65-120.89-89.33-172.25c-40.68-51.36-89.94-93.53-146.41-125.35
					C521.95-7.45,458.29-27.79,391.18-34.97c-67.11-7.17-133.63-0.75-197.74,19.08C131.52,3.28,74.46,34.08,23.84,75.68
					c-50.62,41.6-92.25,91.89-123.73,149.47c-32.59,59.62-52.82,124.49-60.12,192.81l-1.4-0.15
					c7.32-68.51,27.61-133.56,60.29-193.35C-69.54,166.71-27.8,116.28,22.96,74.57C73.73,32.86,130.95,1.96,193.04-17.25
					c64.28-19.89,131-26.33,198.29-19.14C458.62-29.19,522.47-8.8,581.1,24.24c56.62,31.91,106.02,74.2,146.82,125.7
					c40.8,51.5,70.93,109.62,89.58,172.73C836.8,388.02,842.87,455.89,835.55,524.4z"/>
				
					<linearGradient id="SVGID_00000078729289283285496570000002385781264049079196_" gradientUnits="userSpaceOnUse" x1="371.2689" y1="252.6139" x2="371.2689" y2="91.4989" gradientTransform="matrix(0.9943 0.1063 -0.1063 0.9943 20.7566 -38.5894)">
					<stop  offset="0" style="stop-color:#FFFFFF"/>
					<stop  offset="1" style="stop-color:#D1D2D2"/>
				</linearGradient>
				<path style="fill:url(#SVGID_00000078729289283285496570000002385781264049079196_);" d="M839.62,510.41l-1.4-0.15
					c7.3-68.32,1.25-136-18-201.16c-18.59-62.94-48.65-120.89-89.33-172.25C690.21,85.49,640.95,43.32,584.48,11.5
					c-58.46-32.94-122.13-53.28-189.23-60.46c-67.11-7.17-133.63-0.75-197.74,19.08C135.6-10.71,78.53,20.1,27.91,61.7
					c-50.62,41.6-92.25,91.89-123.73,149.47c-32.59,59.62-52.82,124.49-60.12,192.81l-1.4-0.15
					c7.32-68.51,27.61-133.56,60.29-193.35C-65.47,152.73-23.73,102.3,27.03,60.58C77.8,18.87,135.02-12.02,197.11-31.24
					c64.28-19.89,131-26.33,198.29-19.14c67.29,7.19,131.14,27.59,189.77,60.63c56.62,31.91,106.02,74.2,146.82,125.7
					c40.8,51.5,70.93,109.62,89.58,172.73C840.87,374.03,846.94,441.9,839.62,510.41z"/>
				
					<linearGradient id="SVGID_00000038394156492685464540000012159343225941501112_" gradientUnits="userSpaceOnUse" x1="373.8294" y1="252.6135" x2="373.8294" y2="91.4983" gradientTransform="matrix(0.9943 0.1063 -0.1063 0.9943 20.7566 -38.5894)">
					<stop  offset="0" style="stop-color:#FFFFFF"/>
					<stop  offset="1" style="stop-color:#D1D2D2"/>
				</linearGradient>
				<path style="fill:url(#SVGID_00000038394156492685464540000012159343225941501112_);" d="M843.69,496.43l-1.4-0.15
					c7.3-68.32,1.25-136-18-201.16c-18.59-62.94-48.65-120.89-89.33-172.25C694.28,71.51,645.02,29.34,588.55-2.48
					c-58.46-32.94-122.13-53.28-189.23-60.46c-67.11-7.17-133.63-0.75-197.74,19.08C139.67-24.69,82.6,6.11,31.98,47.71
					c-50.62,41.6-92.25,91.89-123.73,149.47c-32.59,59.62-52.82,124.49-60.12,192.81l-1.4-0.15
					c7.32-68.51,27.61-133.56,60.29-193.35C-61.4,138.74-19.66,88.31,31.1,46.6C81.87,4.89,139.09-26.01,201.18-45.22
					c64.28-19.89,131-26.33,198.29-19.14c67.29,7.19,131.14,27.59,189.77,60.63c56.63,31.91,106.02,74.2,146.82,125.7
					c40.8,51.5,70.94,109.62,89.58,172.73C844.94,360.05,851.01,427.92,843.69,496.43z"/>
				
					<linearGradient id="SVGID_00000062181366155984276830000010900085165912249011_" gradientUnits="userSpaceOnUse" x1="376.3905" y1="252.6135" x2="376.3905" y2="91.4983" gradientTransform="matrix(0.9943 0.1063 -0.1063 0.9943 20.7566 -38.5894)">
					<stop  offset="0" style="stop-color:#FFFFFF"/>
					<stop  offset="1" style="stop-color:#D1D2D2"/>
				</linearGradient>
				<path style="fill:url(#SVGID_00000062181366155984276830000010900085165912249011_);" d="M847.76,482.44l-1.4-0.15
					c7.3-68.32,1.25-136-18-201.16c-18.59-62.94-48.65-120.89-89.33-172.25c-40.68-51.36-89.94-93.53-146.41-125.35
					C534.16-49.41,470.5-69.75,403.39-76.92c-67.11-7.17-133.63-0.75-197.74,19.08C143.74-38.68,86.68-7.87,36.06,33.72
					c-50.62,41.6-92.25,91.89-123.73,149.47c-32.59,59.62-52.82,124.49-60.12,192.81l-1.4-0.15
					c7.32-68.51,27.61-133.56,60.29-193.35C-57.33,124.76-15.59,74.33,35.18,32.61C85.94-9.1,143.16-39.99,205.25-59.21
					c64.28-19.89,131-26.33,198.29-19.14c67.29,7.19,131.14,27.59,189.77,60.63c56.63,31.91,106.02,74.2,146.82,125.7
					c40.8,51.5,70.94,109.62,89.58,172.73C849.01,346.06,855.08,413.93,847.76,482.44z"/>
				
					<linearGradient id="SVGID_00000054253927906683795990000004409874719999505804_" gradientUnits="userSpaceOnUse" x1="378.9511" y1="252.6135" x2="378.9511" y2="91.4983" gradientTransform="matrix(0.9943 0.1063 -0.1063 0.9943 20.7566 -38.5894)">
					<stop  offset="0" style="stop-color:#FFFFFF"/>
					<stop  offset="1" style="stop-color:#D1D2D2"/>
				</linearGradient>
				<path style="fill:url(#SVGID_00000054253927906683795990000004409874719999505804_);" d="M851.83,468.46l-1.4-0.15
					c7.3-68.32,1.25-136-18-201.16c-18.59-62.94-48.65-120.89-89.33-172.25C702.42,43.54,653.16,1.37,596.69-30.45
					c-58.46-32.94-122.13-53.28-189.23-60.46s-133.63-0.75-197.74,19.08C147.81-52.66,90.75-21.86,40.13,19.74
					c-50.62,41.6-92.25,91.89-123.73,149.47c-32.59,59.62-52.82,124.49-60.12,192.81l-1.4-0.15
					c7.32-68.51,27.61-133.56,60.29-193.35C-53.26,110.77-11.52,60.34,39.25,18.63c50.76-41.71,107.98-72.61,170.07-91.82
					c64.28-19.89,131-26.33,198.29-19.14c67.29,7.19,131.14,27.59,189.77,60.63C654,0.2,703.4,42.5,744.2,94
					c40.8,51.5,70.94,109.62,89.58,172.73C853.08,332.08,859.16,399.95,851.83,468.46z"/>
				
					<linearGradient id="SVGID_00000118399282389080771580000007622368657238290098_" gradientUnits="userSpaceOnUse" x1="381.5116" y1="252.6138" x2="381.5116" y2="91.4988" gradientTransform="matrix(0.9943 0.1063 -0.1063 0.9943 20.7566 -38.5894)">
					<stop  offset="0" style="stop-color:#FFFFFF"/>
					<stop  offset="1" style="stop-color:#D1D2D2"/>
				</linearGradient>
				<path style="fill:url(#SVGID_00000118399282389080771580000007622368657238290098_);" d="M855.9,454.47l-1.4-0.15
					c7.3-68.32,1.25-136-18-201.16c-18.59-62.94-48.65-120.89-89.33-172.25c-40.68-51.36-89.94-93.53-146.41-125.35
					c-58.46-32.94-122.13-53.28-189.23-60.46s-133.63-0.75-197.74,19.08C151.88-66.65,94.82-35.84,44.2,5.75
					C-6.42,47.35-48.05,97.64-79.53,155.23c-32.59,59.62-52.82,124.49-60.12,192.81l-1.4-0.15c7.32-68.51,27.61-133.56,60.29-193.35
					C-49.19,96.79-7.45,46.36,43.32,4.64C94.08-37.07,151.3-67.96,213.39-87.18c64.28-19.89,131-26.33,198.29-19.14
					c67.29,7.19,131.14,27.59,189.77,60.63c56.63,31.91,106.02,74.2,146.82,125.7c40.8,51.5,70.94,109.62,89.58,172.73
					C857.15,318.09,863.23,385.96,855.9,454.47z"/>
				
					<linearGradient id="SVGID_00000046318956039407026780000010493375567846853269_" gradientUnits="userSpaceOnUse" x1="384.0728" y1="252.6137" x2="384.0728" y2="91.4987" gradientTransform="matrix(0.9943 0.1063 -0.1063 0.9943 20.7566 -38.5894)">
					<stop  offset="0" style="stop-color:#FFFFFF"/>
					<stop  offset="1" style="stop-color:#D1D2D2"/>
				</linearGradient>
				<path style="fill:url(#SVGID_00000046318956039407026780000010493375567846853269_);" d="M859.97,440.49l-1.4-0.15
					c7.3-68.32,1.25-136-18-201.16c-18.59-62.94-48.65-120.89-89.33-172.25C710.56,15.57,661.3-26.6,604.83-58.42
					c-58.46-32.94-122.13-53.28-189.23-60.46c-67.11-7.17-133.63-0.75-197.74,19.08C155.95-80.63,98.89-49.83,48.27-8.23
					C-2.35,33.37-43.98,83.66-75.46,141.24c-32.59,59.62-52.82,124.49-60.12,192.81l-1.4-0.15c7.32-68.51,27.61-133.56,60.29-193.35
					C-45.12,82.8-3.38,32.37,47.39-9.34c50.76-41.71,107.98-72.61,170.07-91.82c64.28-19.89,131-26.33,198.29-19.14
					c67.29,7.19,131.14,27.59,189.77,60.63c56.63,31.91,106.02,74.2,146.82,125.7c40.8,51.5,70.93,109.62,89.58,172.73
					C861.22,304.11,867.3,371.98,859.97,440.49z"/>
				
					<linearGradient id="SVGID_00000141413528317192799430000016856066341802144935_" gradientUnits="userSpaceOnUse" x1="386.6333" y1="252.6135" x2="386.6333" y2="91.4983" gradientTransform="matrix(0.9943 0.1063 -0.1063 0.9943 20.7566 -38.5894)">
					<stop  offset="0" style="stop-color:#FFFFFF"/>
					<stop  offset="1" style="stop-color:#D1D2D2"/>
				</linearGradient>
				<path style="fill:url(#SVGID_00000141413528317192799430000016856066341802144935_);" d="M864.04,426.5l-1.4-0.15
					c7.3-68.32,1.25-136-18-201.16C826.05,162.25,796,104.3,755.31,52.94C714.63,1.58,665.37-40.59,608.91-72.41
					c-58.46-32.94-122.13-53.28-189.23-60.46c-67.11-7.17-133.63-0.75-197.74,19.08c-61.92,19.16-118.98,49.97-169.6,91.56
					C1.72,19.38-39.91,69.67-71.39,127.26c-32.59,59.62-52.82,124.49-60.12,192.81l-1.4-0.15c7.32-68.51,27.61-133.56,60.29-193.35
					C-41.05,68.82,0.69,18.39,51.46-23.33c50.76-41.71,107.98-72.61,170.07-91.82c64.29-19.89,131-26.33,198.29-19.14
					c67.29,7.19,131.14,27.59,189.77,60.63c56.63,31.91,106.02,74.2,146.82,125.7c40.8,51.5,70.93,109.62,89.58,172.73
					C865.29,290.12,871.37,357.99,864.04,426.5z"/>
				
					<linearGradient id="SVGID_00000167396252920044088330000017319154697422920603_" gradientUnits="userSpaceOnUse" x1="389.1938" y1="252.6136" x2="389.1938" y2="91.4983" gradientTransform="matrix(0.9943 0.1063 -0.1063 0.9943 20.7566 -38.5894)">
					<stop  offset="0" style="stop-color:#FFFFFF"/>
					<stop  offset="1" style="stop-color:#D1D2D2"/>
				</linearGradient>
				<path style="fill:url(#SVGID_00000167396252920044088330000017319154697422920603_);" d="M868.11,412.52l-1.4-0.15
					c7.3-68.32,1.25-136-18-201.16c-18.59-62.94-48.65-120.89-89.33-172.25C718.7-12.4,669.44-54.57,612.98-86.39
					c-58.46-32.94-122.13-53.28-189.23-60.46c-67.11-7.17-133.63-0.75-197.74,19.08C164.09-108.6,107.03-77.8,56.41-36.2
					C5.79,5.4-35.84,55.68-67.32,113.27c-32.59,59.62-52.82,124.49-60.12,192.81l-1.4-0.15c7.32-68.51,27.61-133.56,60.29-193.35
					C-36.98,54.83,4.77,4.4,55.53-37.31c50.76-41.71,107.98-72.61,170.07-91.82c64.28-19.89,131-26.33,198.29-19.14
					c67.29,7.19,131.14,27.59,189.77,60.63c56.62,31.91,106.02,74.2,146.82,125.7c40.8,51.5,70.93,109.62,89.58,172.73
					C869.36,276.14,875.44,344.01,868.11,412.52z"/>
				
					<linearGradient id="SVGID_00000067195340812746416240000013321984107569857461_" gradientUnits="userSpaceOnUse" x1="391.7543" y1="252.6136" x2="391.7543" y2="91.4983" gradientTransform="matrix(0.9943 0.1063 -0.1063 0.9943 20.7566 -38.5894)">
					<stop  offset="0" style="stop-color:#FFFFFF"/>
					<stop  offset="1" style="stop-color:#D1D2D2"/>
				</linearGradient>
				<path style="fill:url(#SVGID_00000067195340812746416240000013321984107569857461_);" d="M872.18,398.53l-1.4-0.15
					c7.3-68.32,1.25-136-18-201.16c-18.59-62.94-48.65-120.89-89.33-172.25c-40.68-51.36-89.94-93.53-146.41-125.35
					c-58.46-32.94-122.13-53.28-189.23-60.46c-67.11-7.17-133.63-0.75-197.74,19.08c-61.92,19.16-118.98,49.97-169.6,91.56
					C9.86-8.59-31.77,41.7-63.25,99.29c-32.59,59.62-52.82,124.49-60.12,192.81l-1.4-0.15c7.32-68.51,27.61-133.56,60.29-193.35
					C-32.91,40.85,8.84-9.58,59.6-51.3c50.76-41.71,107.98-72.61,170.07-91.82c64.28-19.89,131-26.33,198.29-19.14
					c67.29,7.19,131.14,27.59,189.77,60.63c56.62,31.91,106.02,74.2,146.82,125.7c40.8,51.5,70.93,109.62,89.58,172.73
					C873.43,262.15,879.51,330.02,872.18,398.53z"/>
				
					<linearGradient id="SVGID_00000183963905333345849140000004627180835860116143_" gradientUnits="userSpaceOnUse" x1="394.3149" y1="252.6138" x2="394.3149" y2="91.4988" gradientTransform="matrix(0.9943 0.1063 -0.1063 0.9943 20.7566 -38.5894)">
					<stop  offset="0" style="stop-color:#FFFFFF"/>
					<stop  offset="1" style="stop-color:#D1D2D2"/>
				</linearGradient>
				<path style="fill:url(#SVGID_00000183963905333345849140000004627180835860116143_);" d="M876.25,384.55l-1.4-0.15
					c7.3-68.32,1.25-136-18-201.16c-18.59-62.94-48.65-120.89-89.33-172.25c-40.68-51.36-89.94-93.53-146.41-125.35
					c-58.46-32.94-122.13-53.28-189.23-60.46c-67.11-7.17-133.63-0.75-197.74,19.08c-61.92,19.16-118.98,49.97-169.6,91.56
					C13.93-22.58-27.7,27.71-59.18,85.3C-91.77,144.92-112,209.79-119.3,278.11l-1.4-0.15c7.32-68.51,27.61-133.56,60.29-193.35
					C-28.84,26.86,12.91-23.57,63.67-65.28c50.76-41.71,107.98-72.61,170.07-91.82c64.28-19.89,131-26.33,198.29-19.14
					c67.29,7.19,131.14,27.59,189.77,60.63c56.63,31.91,106.02,74.2,146.82,125.7c40.8,51.5,70.94,109.62,89.58,172.73
					C877.5,248.17,883.58,316.04,876.25,384.55z"/>
				
					<linearGradient id="SVGID_00000085209553317499124320000007035151515053355939_" gradientUnits="userSpaceOnUse" x1="396.8761" y1="252.6138" x2="396.8761" y2="91.4988" gradientTransform="matrix(0.9943 0.1063 -0.1063 0.9943 20.7566 -38.5894)">
					<stop  offset="0" style="stop-color:#FFFFFF"/>
					<stop  offset="1" style="stop-color:#D1D2D2"/>
				</linearGradient>
				<path style="fill:url(#SVGID_00000085209553317499124320000007035151515053355939_);" d="M880.32,370.56l-1.4-0.15
					c7.3-68.32,1.25-136-18-201.16C842.33,106.31,812.28,48.36,771.59-3c-40.68-51.36-89.94-93.53-146.41-125.35
					c-58.46-32.94-122.13-53.28-189.23-60.46c-67.11-7.17-133.63-0.75-197.74,19.08c-61.92,19.16-118.98,49.97-169.6,91.56
					C18-36.56-23.63,13.73-55.11,71.32c-32.59,59.62-52.82,124.49-60.12,192.81l-1.4-0.15c7.32-68.51,27.61-133.56,60.29-193.35
					C-24.77,12.88,16.98-37.55,67.74-79.27c50.76-41.71,107.98-72.61,170.07-91.82c64.28-19.89,131-26.33,198.29-19.14
					c67.29,7.19,131.14,27.59,189.77,60.63C682.5-97.69,731.89-55.4,772.69-3.9c40.8,51.5,70.94,109.62,89.58,172.73
					C881.57,234.18,887.65,302.05,880.32,370.56z"/>
				
					<linearGradient id="SVGID_00000008119181991038319390000001627595852292229310_" gradientUnits="userSpaceOnUse" x1="399.4366" y1="252.6136" x2="399.4366" y2="91.4984" gradientTransform="matrix(0.9943 0.1063 -0.1063 0.9943 20.7566 -38.5894)">
					<stop  offset="0" style="stop-color:#FFFFFF"/>
					<stop  offset="1" style="stop-color:#D1D2D2"/>
				</linearGradient>
				<path style="fill:url(#SVGID_00000008119181991038319390000001627595852292229310_);" d="M884.39,356.58l-1.4-0.15
					c7.3-68.32,1.25-136-18-201.16C846.4,92.33,816.35,34.37,775.67-16.98c-40.68-51.36-89.94-93.53-146.41-125.35
					c-58.46-32.94-122.13-53.28-189.23-60.46c-67.11-7.17-133.63-0.75-197.74,19.08c-61.92,19.16-118.98,49.97-169.6,91.56
					C22.07-50.55-19.56-0.26-51.04,57.33c-32.59,59.62-52.82,124.49-60.12,192.81l-1.4-0.15c7.32-68.51,27.61-133.56,60.29-193.35
					C-20.7-1.11,21.05-51.54,71.81-93.25c50.76-41.71,107.98-72.61,170.07-91.82c64.28-19.89,131-26.33,198.29-19.14
					c67.29,7.19,131.14,27.59,189.77,60.63c56.63,31.91,106.02,74.2,146.82,125.7c40.8,51.5,70.94,109.62,89.58,172.73
					C885.64,220.2,891.72,288.07,884.39,356.58z"/>
			</g>
			<g>
				<path class="st20" d="M990.58-55.89l-18.72,406.85l-0.28,6c-53.27-80.76-121.39-150.77-200.62-205.79
					c-63.65-42.36-134.4-74.82-210.26-95.13c-46.95-12.58-95.85-20.5-146.23-23.23C243.92,23.57,84.05,75.29-44.73,169.29
					l1.95-37.37l9.09-173.94l1.03-19.78l100.27,0.58l262.92,1.52c0.01-0.01,0.02,0,0.02,0l107.61,0.62L990.58-55.89z"/>
				<g>
					<path class="st21" d="M193.64-69.59c-43.01,0-85.36,2.9-126.88,8.48l266.82,1.85C287.9-66.06,241.18-69.59,193.64-69.59z"/>
					
						<linearGradient id="SVGID_00000136370614531502484480000001709532373402480009_" gradientUnits="userSpaceOnUse" x1="496.6898" y1="519.7286" x2="338.048" y2="288.4686" gradientTransform="matrix(0.998 -0.0636 0.0636 0.998 -15.5357 94.8612)">
						<stop  offset="0" style="stop-color:#384A5B"/>
						<stop  offset="1" style="stop-color:#242D35"/>
					</linearGradient>
					<path style="fill:url(#SVGID_00000136370614531502484480000001709532373402480009_);" d="M-32.65-61.8l-1.03,19.79
						c32.85-8.12,66.37-14.51,100.45-19.1L-32.65-61.8z"/>
					<path class="st23" d="M790.66-12.16l-321.05-2.23c173.51,25.81,324.21,123.13,422.31,261.64l3.87-74.06
						C884.08,115.67,860.16,37.37,790.66-12.16z"/>
					<path class="st23" d="M972.65,315.16l-1.13,21.59c-15.51-24.06-32.56-47.03-51.03-68.75c-1.98-2.34-3.98-4.66-6-6.96
						c-0.01-0.01-0.02-0.02-0.03-0.03c-76.68-87.67-176.65-154.2-290.71-189.18c-20.57-6.31-41.61-11.6-63.05-15.79
						c-46.95-12.58-95.85-20.5-146.23-23.23C243.92,23.57,84.05,75.29-44.73,169.29l-5.78,110.55v0.01c-0.41,0.49-0.8,0.98-1.2,1.47
						l18.02-344.85c32.85-8.12,66.37-14.51,100.45-19.09l266.83,1.85c35.53,5.29,70.42,12.55,104.57,21.69
						c44.25,11.83,87.24,26.79,128.74,44.65h0.01c137.5,59.14,258.62,149.98,354.57,263.51
						C939.44,270.33,956.52,292.38,972.65,315.16z"/>
				</g>
				<path class="st20" d="M770.96,151.17c-63.65-42.36-134.4-74.82-210.26-95.13c-46.95-12.58-95.85-20.5-146.23-23.23
					C243.92,23.57,84.05,75.29-44.73,169.29l1.95-37.37C82.34,53.45,231.37,11.59,389.25,20.14c82.66,4.47,161.48,22.44,234.5,51.69
					C676.03,92.76,725.34,119.47,770.96,151.17z"/>
				<path class="st20" d="M971.59,356.98l-0.07,1.28l0.06-1.3C971.58,356.97,971.59,356.97,971.59,356.98z"/>
				
					<linearGradient id="SVGID_00000018203894855665938590000006949496012029262209_" gradientUnits="userSpaceOnUse" x1="954.835" y1="278.2587" x2="803.5671" y2="235.6549">
					<stop  offset="0" style="stop-color:#FFFFFF"/>
					<stop  offset="1" style="stop-color:#D1D2D2"/>
				</linearGradient>
				<path style="fill:url(#SVGID_00000018203894855665938590000006949496012029262209_);" d="M971.9,351.02l-0.31,5.96l-0.07,1.28
					l0.06-1.3c-53.27-80.76-121.39-150.77-200.62-205.79c79.25,52.71,147.5,120.77,200.9,199.79
					C971.87,350.98,971.89,351,971.9,351.02z"/>
			</g>
			<g>
				<g>
					
						<linearGradient id="SVGID_00000129164023091213294620000012452707355038095752_" gradientUnits="userSpaceOnUse" x1="2217.939" y1="20.3195" x2="1936.7582" y2="391.0801" gradientTransform="matrix(-0.8573 -0.5148 0.5148 -0.8573 1892.4307 1593.8267)">
						<stop  offset="0" style="stop-color:#FCBF00"/>
						<stop  offset="1" style="stop-color:#F28E13"/>
					</linearGradient>
					<path style="fill:url(#SVGID_00000129164023091213294620000012452707355038095752_);" d="M51.62,512.13
						C-143.61,392.78-259.76,190.45-279.42-23.94l-199.95,339.02l872.78,533.56l5.07-236.48
						C280.1,610.98,160.46,578.67,51.62,512.13z"/>
				</g>
				<g>
					
						<linearGradient id="SVGID_00000011747391088207454340000015833533070994040761_" gradientUnits="userSpaceOnUse" x1="463.1047" y1="211.8258" x2="202.9714" y2="345.8124" gradientTransform="matrix(0.9998 0.0218 -0.0218 0.9998 12.1674 -25.9116)">
						<stop  offset="0" style="stop-color:#384A5B"/>
						<stop  offset="1" style="stop-color:#242D35"/>
					</linearGradient>
					<path style="fill:url(#SVGID_00000011747391088207454340000015833533070994040761_);" d="M51.62,512.13
						C-143.61,392.78-259.76,190.45-279.42-23.94l-199.95,339.02l843.54,515.68c10.05-3.66,20.01-7.58,29.88-11.74l4.44-206.87
						C280.1,610.98,160.46,578.67,51.62,512.13z"/>
				</g>
				<g>
					<path class="st20" d="M51.62,512.13C-143.61,392.78-259.76,190.45-279.42-23.94l-199.95,730.83l539.12-62.23
						c112.4,22.46,226.67,24.76,337.86,8.15l0.87-40.66C280.1,610.98,160.46,578.67,51.62,512.13z"/>
				</g>
				<g>
					<path class="st23" d="M51.62,512.13C-143.61,392.78-259.76,190.45-279.42-23.94l-93.72,158.9
						c65.59,147.63,174.43,277.16,321.21,366.9c140.99,86.19,297.37,123.65,450.26,117.21l0.15-6.92
						C280.1,610.98,160.46,578.67,51.62,512.13z"/>
				</g>
			</g>
			
				<linearGradient id="SVGID_00000003827522478864712510000004197160007833579694_" gradientUnits="userSpaceOnUse" x1="53.0089" y1="317.2883" x2="391.5565" y2="426.7302">
				<stop  offset="0" style="stop-color:#FFFFFF"/>
				<stop  offset="1" style="stop-color:#D1D2D2"/>
			</linearGradient>
			<path style="fill:url(#SVGID_00000003827522478864712510000004197160007833579694_);" d="M52.61,510.45
				C-142.62,391.1-258.76,188.77-278.42-25.62l-74.22,125.84c59.63,163.83,172.33,308.88,330.9,405.82
				c131.63,80.47,277.15,116.94,420.07,113.62l0.2-9.2C280.45,609.12,161.15,576.81,52.61,510.45z"/>
			
				<linearGradient id="SVGID_00000158748485139107388900000011691315560417239689_" gradientUnits="userSpaceOnUse" x1="657.0558" y1="1017.5287" x2="657.0558" y2="756.299" gradientTransform="matrix(0.98 0.1989 -0.1989 0.98 118.4033 -260.7356)">
				<stop  offset="0" style="stop-color:#FFFFFF"/>
				<stop  offset="1" style="stop-color:#D1D2D2"/>
			</linearGradient>
			<path style="fill:url(#SVGID_00000158748485139107388900000011691315560417239689_);" d="M357.27,845.37c0.06,0,0.13,0,0.19,0
				l1.73-9.08L357.27,845.37z M365.52,802.46c0.05,0,0.1,0,0.14,0l1.3-6.82L365.52,802.46z M368.27,788.16c0.04,0,0.08,0,0.13,0
				l1.16-6.07L368.27,788.16z M362.77,816.76c0.05,0,0.11,0,0.16,0l1.45-7.57L362.77,816.76z M360.02,831.07c0.06,0,0.12,0,0.17,0
				l1.59-8.31L360.02,831.07z M346.28,902.58c0.08,0,0.17,0,0.25,0l2.32-12.13L346.28,902.58z M349.03,888.28c0.08,0,0.16,0,0.24,0
				l2.17-11.37L349.03,888.28z M351.78,873.97c0.07,0,0.15,0,0.22,0l2.03-10.63L351.78,873.97z M354.52,859.67c0.07,0,0.14,0,0.21,0
				l1.89-9.88L354.52,859.67z M382.01,716.65c0.02,0,0.03,0,0.05,0l0.43-2.25L382.01,716.65z M384.76,702.34c0.01,0,0.02,0,0.03,0
				l0.29-1.5L384.76,702.34z M387.51,688.04c0.01,0,0.01,0,0.02,0l0.14-0.75L387.51,688.04z M846.15,485.59
				c0.98-4.73,1.89-9.48,2.74-14.25c0.99-4.77,1.9-9.56,2.76-14.36c0.99-4.75,1.89-9.52,2.75-14.3c0.99-4.75,1.9-9.52,2.75-14.3
				c0.99-4.75,1.89-9.52,2.75-14.3c0.99-4.75,1.9-9.52,2.75-14.31c0.99-4.75,1.9-9.53,2.75-14.31c0.99-4.75,1.89-9.51,2.75-14.29
				c0.98-4.73,1.89-9.48,2.74-14.25c0.99-4.77,1.9-9.56,2.76-14.36c0.99-4.75,1.9-9.52,2.75-14.3c0.99-4.75,1.9-9.53,2.75-14.32
				c0.99-4.75,1.89-9.51,2.75-14.29c0.99-4.75,1.9-9.52,2.75-14.3c0.99-4.75,1.9-9.52,2.75-14.3c6.74-32.46,10.38-65.66,10.82-99.41
				l-1.4-0.02c-0.22,16.81-1.24,33.48-3.04,49.99c0.95-11.82,1.53-23.71,1.69-35.67l-1.4-0.02c-0.22,16.81-1.24,33.48-3.04,49.99
				c0.95-11.82,1.53-23.71,1.69-35.67l-1.4-0.02c-0.22,16.81-1.24,33.48-3.04,49.99c0.95-11.82,1.53-23.71,1.69-35.67l-1.4-0.02
				c-0.22,16.8-1.24,33.47-3.04,49.98c0.95-11.81,1.53-23.7,1.69-35.66l-1.4-0.02c-0.22,16.81-1.24,33.47-3.03,49.98
				c0.95-11.82,1.53-23.7,1.69-35.66l-1.4-0.02c-0.22,16.8-1.24,33.47-3.04,49.98c0.95-11.82,1.53-23.7,1.69-35.66l-1.4-0.02
				c-0.21,16.21-1.19,32.29-2.86,48.22c-0.02,0.07-0.04,0.15-0.06,0.22c0.88-11.31,1.43-22.68,1.58-34.12l-1.4-0.02
				c-0.18,13.74-0.91,27.39-2.14,40.94c-0.1,0.32-0.2,0.64-0.29,0.96c0.6-9.15,0.97-18.34,1.09-27.58l-1.4-0.02
				c-0.15,11.3-0.69,22.53-1.55,33.7c-0.18,0.57-0.34,1.15-0.53,1.72c0.37-7.01,0.64-14.04,0.73-21.1l-1.4-0.02
				c-0.11,8.76-0.45,17.48-0.99,26.16c-0.24,0.74-0.49,1.47-0.73,2.21c0.18-4.67,0.32-9.35,0.38-14.04l-1.4-0.02
				c-0.08,6.37-0.32,12.71-0.63,19.04c-0.29,0.83-0.6,1.66-0.9,2.49c0.06-2.4,0.15-4.8,0.18-7.21l-1.4-0.02
				c-0.05,3.82-0.16,7.63-0.29,11.43c-0.35,0.98-0.7,1.96-1.06,2.94c0-0.02,0-0.03,0-0.05l-1.4-0.02c-0.02,1.38-0.08,2.74-0.1,4.12
				c-2.77,7.32-5.69,14.6-8.8,21.81c-25.97,60.26-62.73,114.19-109.25,160.31c-46.52,46.11-100.46,82.08-160.32,106.9
				c-61.97,25.7-127.61,38.27-195.1,37.35l-2.59,13.56l2.57-12.13c67.67,0.92,133.5-11.68,195.64-37.45
				c60.03-24.89,114.12-60.96,160.77-107.2c46.65-46.24,83.51-100.33,109.55-160.76c1.67-3.87,3.28-7.75,4.85-11.65
				c-0.02,1.19-0.06,2.38-0.09,3.56c-2.77,7.32-5.69,14.6-8.8,21.81c-25.97,60.26-62.73,114.19-109.25,160.31
				c-46.52,46.11-100.46,82.08-160.32,106.9c-61.97,25.7-127.6,38.26-195.08,37.35l-2.45,12.8l2.41-11.37
				c67.67,0.92,133.5-11.68,195.64-37.45c60.03-24.89,114.12-60.96,160.77-107.2c46.65-46.24,83.51-100.33,109.55-160.76
				c1.67-3.87,3.28-7.75,4.85-11.65c-0.02,1.19-0.06,2.38-0.09,3.56c-2.77,7.32-5.69,14.6-8.8,21.81
				c-25.97,60.26-62.73,114.19-109.25,160.31c-46.52,46.11-100.46,82.08-160.32,106.9c-61.96,25.7-127.59,38.26-195.06,37.35
				l-2.3,12.05l2.25-10.62c67.67,0.92,133.5-11.68,195.64-37.45c60.03-24.89,114.12-60.96,160.77-107.2
				c46.65-46.24,83.51-100.33,109.55-160.76c1.67-3.87,3.28-7.75,4.85-11.64c-0.02,1.19-0.06,2.38-0.09,3.56
				c-2.77,7.32-5.68,14.59-8.79,21.81c-25.97,60.26-62.73,114.19-109.25,160.31c-46.52,46.11-100.46,82.08-160.32,106.9
				c-61.96,25.69-127.58,38.26-195.05,37.35l-2.15,11.25l2.08-9.82c67.67,0.92,133.49-11.68,195.64-37.45
				c60.03-24.89,114.12-60.96,160.77-107.2c46.65-46.24,83.51-100.33,109.55-160.76c1.67-3.87,3.28-7.75,4.85-11.64
				c-0.02,1.19-0.07,2.38-0.09,3.57c-2.77,7.32-5.68,14.59-8.79,21.81c-25.97,60.26-62.73,114.19-109.25,160.31
				c-46.52,46.11-100.46,82.08-160.32,106.9c-61.95,25.69-127.57,38.26-195.03,37.35l-2,10.49l1.92-9.06
				c67.67,0.92,133.5-11.68,195.64-37.45c60.03-24.89,114.12-60.96,160.77-107.2c46.65-46.24,83.51-100.33,109.55-160.76
				c2.6-6.03,5.04-12.11,7.4-18.22c-0.03,1.05-0.04,2.1-0.08,3.15c-3.5,9.69-7.26,19.29-11.36,28.8
				C815.2,500.95,778.45,554.89,731.93,601c-46.52,46.11-100.46,82.08-160.32,106.9c-61.95,25.69-127.56,38.25-195.02,37.35
				l-1.86,9.74l1.76-8.31c67.67,0.92,133.5-11.68,195.64-37.45c60.03-24.89,114.12-60.96,160.77-107.2
				c46.65-46.24,83.51-100.33,109.55-160.76c3.51-8.15,6.8-16.38,9.87-24.66c-0.04,0.97-0.1,1.93-0.14,2.9
				c-4.14,11.97-8.73,23.8-13.76,35.49c-25.97,60.26-62.73,114.19-109.25,160.31c-46.52,46.11-100.46,82.08-160.32,106.9
				c-61.94,25.69-127.55,38.25-195,37.35l-1.72,8.99l1.6-7.56c67.67,0.92,133.5-11.68,195.64-37.45
				c60.03-24.89,114.12-60.96,160.77-107.2c46.65-46.24,83.51-100.33,109.55-160.76c4.44-10.3,8.5-20.73,12.24-31.25
				c-0.04,0.77-0.08,1.53-0.13,2.3c-4.75,14.41-10.11,28.65-16.15,42.68c-25.97,60.26-62.73,114.19-109.25,160.31
				c-46.52,46.11-100.46,82.08-160.32,106.9c-61.94,25.69-127.54,38.25-194.98,37.35l-1.57,8.24l1.44-6.81
				c67.67,0.92,133.5-11.68,195.64-37.45c60.03-24.89,114.12-60.96,160.77-107.2c46.65-46.24,83.51-100.33,109.55-160.76
				c5.32-12.35,10.12-24.86,14.44-37.51c-0.04,0.6-0.09,1.2-0.13,1.8c-5.25,16.73-11.36,33.23-18.34,49.44
				c-25.97,60.26-62.73,114.19-109.25,160.31c-46.52,46.11-100.46,82.08-160.32,106.9c-61.93,25.68-127.53,38.25-194.97,37.35
				l-1.43,7.48l1.28-6.05c67.67,0.92,133.5-11.68,195.64-37.45c60.03-24.89,114.12-60.96,160.77-107.2
				c46.65-46.24,83.51-100.33,109.55-160.76c6.22-14.43,11.73-29.09,16.58-43.94c-0.03,0.39-0.08,0.78-0.11,1.17
				c-5.71,19.16-12.53,38.01-20.49,56.5c-25.97,60.26-62.73,114.19-109.25,160.31c-46.52,46.11-100.46,82.08-160.32,106.9
				c-61.93,25.68-127.52,38.25-194.95,37.35l-1.29,6.74l1.13-5.31c67.67,0.92,133.5-11.68,195.64-37.45
				c60.03-24.89,114.12-60.96,160.77-107.2c46.65-46.24,83.51-100.33,109.55-160.76c7.06-16.38,13.22-33.04,18.51-49.95
				c-0.01,0.05-0.01,0.11-0.02,0.16c-6.1,21.58-13.59,42.78-22.53,63.52c-25.97,60.26-62.73,114.19-109.25,160.31
				c-46.52,46.11-100.46,82.08-160.32,106.9c-61.92,25.68-127.51,38.24-194.94,37.35l-1.14,5.99l0.97-4.56
				c67.67,0.92,133.5-11.68,195.64-37.45c60.03-24.89,114.12-60.96,160.77-107.2c46.65-46.24,83.51-100.33,109.55-160.76
				c7.21-16.72,13.47-33.75,18.83-51.02c-6.16,22-13.76,43.61-22.87,64.75c-25.97,60.26-62.73,114.19-109.25,160.31
				c-46.52,46.11-100.46,82.08-160.32,106.9c-61.92,25.68-127.5,38.24-194.92,37.35l-1,5.22l0.8-3.79
				c67.67,0.92,133.49-11.68,195.64-37.45c60.03-24.89,114.12-60.96,160.77-107.2c46.65-46.24,83.51-100.33,109.55-160.76
				c7.21-16.72,13.47-33.75,18.83-51.02c-6.16,22-13.76,43.61-22.87,64.75C795.96,601.07,759.21,655,712.69,701.12
				c-46.52,46.11-100.46,82.08-160.32,106.9c-61.91,25.68-127.49,38.24-194.9,37.35l-0.85,4.43l0.64-3
				c67.67,0.92,133.5-11.68,195.64-37.45c60.03-24.89,114.12-60.96,160.77-107.2c46.65-46.24,83.51-100.33,109.55-160.76
				c7.21-16.72,13.47-33.75,18.83-51.02c-6.16,22-13.76,43.61-22.87,64.75c-25.97,60.26-62.73,114.19-109.25,160.31
				c-46.52,46.11-100.46,82.08-160.32,106.9c-61.91,25.67-127.48,38.24-194.89,37.35l-0.7,3.67l0.48-2.24
				c67.67,0.92,133.5-11.68,195.64-37.45c60.03-24.89,114.12-60.96,160.77-107.2c46.65-46.24,83.51-100.33,109.55-160.76
				c7.21-16.73,13.47-33.76,18.84-51.04c-6.16,22.01-13.76,43.62-22.87,64.76c-25.97,60.26-62.73,114.19-109.25,160.31
				c-46.52,46.11-100.46,82.08-160.32,106.9C484.97,862.3,419.4,874.86,352,873.97l-0.56,2.93l0.32-1.5
				c67.67,0.92,133.5-11.68,195.64-37.45c60.03-24.89,114.12-60.96,160.77-107.2c46.65-46.24,83.51-100.33,109.55-160.76
				c7.2-16.72,13.46-33.73,18.83-51c-6.15,21.99-13.76,43.6-22.86,64.72c-25.97,60.26-62.73,114.19-109.25,160.31
				c-46.52,46.11-100.46,82.08-160.32,106.9c-61.9,25.67-127.46,38.23-194.86,37.35l-0.41,2.17l0.16-0.74
				c67.67,0.92,133.5-11.68,195.64-37.45c60.03-24.89,114.12-60.96,160.77-107.2c46.65-46.24,83.51-100.33,109.55-160.76
				c7.21-16.73,13.47-33.77,18.84-51.05c-6.16,22.01-13.76,43.63-22.88,64.78c-25.97,60.26-62.73,114.19-109.25,160.31
				c-46.52,46.11-100.46,82.08-160.32,106.9c-61.9,25.67-127.45,38.23-194.84,37.35l-0.27,1.43c67.67,0.92,133.5-11.68,195.64-37.45
				c60.03-24.89,114.12-60.96,160.77-107.2c46.65-46.24,83.51-100.33,109.55-160.76C827.92,562.19,839.23,524.4,846.15,485.59z
				 M874.71,319.8c-0.01,0.05-0.01,0.11-0.02,0.16c-0.02,0.07-0.04,0.14-0.06,0.21c0-0.06,0.01-0.11,0.01-0.17
				C874.67,319.94,874.69,319.87,874.71,319.8z M872.78,325.82c-0.03,0.39-0.08,0.78-0.11,1.16c-0.1,0.32-0.2,0.64-0.29,0.96
				c0.03-0.39,0.06-0.77,0.09-1.16C872.56,326.46,872.67,326.14,872.78,325.82z M869.91,341.28c-0.1,0.32-0.2,0.64-0.29,0.96
				c0.03-0.39,0.06-0.77,0.09-1.16c0.11-0.32,0.22-0.65,0.32-0.97C869.99,340.51,869.95,340.89,869.91,341.28z M870.64,332.24
				c-0.04,0.6-0.09,1.2-0.13,1.8c-0.18,0.57-0.34,1.15-0.52,1.72c0.03-0.6,0.06-1.21,0.09-1.81
				C870.27,333.39,870.45,332.81,870.64,332.24z M867.76,348.35c-0.18,0.57-0.34,1.15-0.53,1.72c0.03-0.6,0.06-1.21,0.09-1.81
				c0.2-0.57,0.37-1.14,0.57-1.71C867.85,347.15,867.81,347.75,867.76,348.35z M868.44,338.5c-0.04,0.77-0.08,1.54-0.13,2.3
				c-0.24,0.74-0.49,1.47-0.73,2.21c0.03-0.79,0.06-1.58,0.09-2.36C867.93,339.93,868.19,339.22,868.44,338.5z M865.57,355.11
				c-0.24,0.74-0.49,1.47-0.73,2.21c0.03-0.79,0.06-1.58,0.09-2.36c0.26-0.71,0.52-1.43,0.77-2.14
				C865.65,353.57,865.62,354.34,865.57,355.11z M866.08,345.09c-0.04,0.97-0.1,1.93-0.14,2.9c-0.29,0.83-0.6,1.66-0.9,2.49
				c0.03-0.94,0.05-1.88,0.07-2.82C865.43,346.8,865.76,345.94,866.08,345.09z M863.19,362.29c-0.29,0.83-0.6,1.66-0.9,2.49
				c0.02-0.94,0.05-1.88,0.07-2.82c0.32-0.86,0.65-1.71,0.97-2.57C863.29,360.36,863.23,361.32,863.19,362.29z M861.27,357.56
				c0.8-2,1.56-4.02,2.34-6.03c-0.03,1.05-0.04,2.1-0.08,3.15c-0.35,0.98-0.7,1.96-1.06,2.94c0-0.02,0-0.03,0-0.05L861.27,357.56z
				 M858.52,371.86c0.8-2,1.56-4.02,2.34-6.03c-0.03,1.05-0.04,2.1-0.08,3.15c-0.35,0.98-0.7,1.96-1.06,2.94c0-0.02,0-0.03,0-0.05
				L858.52,371.86z M855.77,386.16c0.8-2,1.56-4.02,2.34-6.03c-0.03,1.05-0.04,2.1-0.08,3.15c-0.35,0.98-0.7,1.97-1.06,2.95
				c0-0.02,0-0.03,0-0.05L855.77,386.16z M854.22,400.53c0-0.02,0-0.03,0-0.05l-1.2-0.02c0.8-2,1.56-4.01,2.34-6.02
				c-0.03,1.05-0.04,2.1-0.08,3.15C854.93,398.57,854.58,399.55,854.22,400.53z M859.61,376.26c0.32-0.86,0.65-1.71,0.97-2.57
				c-0.04,0.97-0.1,1.93-0.14,2.9c-0.29,0.83-0.6,1.66-0.9,2.49C859.57,378.14,859.59,377.2,859.61,376.26z M857.83,387.99
				c-0.04,0.97-0.1,1.93-0.14,2.9c-0.29,0.84-0.6,1.66-0.9,2.5c0.02-0.94,0.05-1.88,0.07-2.82
				C857.19,389.71,857.51,388.85,857.83,387.99z M854.04,407.69c0.02-0.94,0.05-1.88,0.07-2.82c0.32-0.86,0.65-1.71,0.97-2.57
				c-0.04,0.97-0.1,1.93-0.14,2.9C854.65,406.04,854.34,406.86,854.04,407.69z M862.18,369.25c0.26-0.71,0.52-1.43,0.77-2.14
				c-0.04,0.77-0.08,1.53-0.13,2.3c-0.24,0.74-0.49,1.47-0.73,2.21C862.12,370.83,862.15,370.04,862.18,369.25z M860.2,381.41
				c-0.04,0.77-0.08,1.54-0.13,2.3c-0.24,0.74-0.49,1.47-0.73,2.21c0.03-0.79,0.06-1.58,0.09-2.36
				C859.69,382.84,859.94,382.13,860.2,381.41z M857.45,395.71c-0.04,0.77-0.08,1.53-0.13,2.3c-0.24,0.74-0.49,1.48-0.73,2.21
				c0.03-0.79,0.06-1.58,0.09-2.36C856.94,397.15,857.2,396.43,857.45,395.71z M853.84,414.53c0.03-0.79,0.06-1.58,0.09-2.36
				c0.26-0.71,0.52-1.43,0.77-2.14c-0.04,0.77-0.08,1.53-0.13,2.3C854.33,413.06,854.09,413.79,853.84,414.53z M864.58,362.56
				c0.2-0.57,0.37-1.14,0.57-1.71c-0.04,0.6-0.09,1.2-0.13,1.8c-0.18,0.57-0.34,1.15-0.52,1.72
				C864.52,363.77,864.55,363.16,864.58,362.56z M862.4,375.15c-0.04,0.6-0.09,1.2-0.13,1.8c-0.18,0.57-0.34,1.15-0.52,1.72
				c0.03-0.6,0.06-1.21,0.09-1.81C862.03,376.29,862.2,375.72,862.4,375.15z M859.65,389.45c-0.04,0.6-0.09,1.2-0.13,1.8
				c-0.18,0.57-0.34,1.15-0.53,1.72c0.03-0.6,0.06-1.21,0.09-1.81C859.28,390.6,859.46,390.02,859.65,389.45z M856.9,403.76
				c-0.04,0.6-0.09,1.2-0.13,1.8c-0.18,0.57-0.34,1.15-0.53,1.73c0.03-0.6,0.06-1.21,0.09-1.81
				C856.53,404.9,856.71,404.33,856.9,403.76z M853.49,421.58c0.03-0.6,0.06-1.2,0.09-1.81c0.2-0.57,0.37-1.14,0.57-1.71
				c-0.04,0.6-0.09,1.2-0.13,1.8C853.84,420.43,853.68,421.01,853.49,421.58z M866.96,355.39c0.11-0.32,0.22-0.65,0.32-0.97
				c-0.03,0.39-0.08,0.77-0.11,1.16c-0.1,0.32-0.2,0.64-0.29,0.96C866.9,356.16,866.93,355.78,866.96,355.39z M864.53,368.72
				c-0.03,0.39-0.08,0.78-0.11,1.16c-0.1,0.32-0.2,0.64-0.29,0.96c0.03-0.39,0.06-0.77,0.09-1.15
				C864.32,369.37,864.43,369.05,864.53,368.72z M861.78,383.03c-0.03,0.39-0.08,0.77-0.11,1.16c-0.1,0.32-0.2,0.64-0.29,0.96
				c0.02-0.38,0.06-0.77,0.08-1.15C861.57,383.67,861.68,383.35,861.78,383.03z M859.04,397.33c-0.03,0.39-0.08,0.77-0.11,1.16
				c-0.1,0.32-0.2,0.64-0.29,0.96c0.03-0.39,0.06-0.77,0.09-1.15C858.82,397.98,858.93,397.65,859.04,397.33z M856.29,411.63
				c-0.03,0.39-0.08,0.77-0.11,1.16c-0.1,0.32-0.2,0.65-0.3,0.97c0.03-0.38,0.06-0.77,0.09-1.15
				C856.07,412.28,856.18,411.96,856.29,411.63z M853.13,428.06c0.03-0.39,0.06-0.77,0.09-1.16c0.11-0.32,0.22-0.65,0.32-0.97
				c-0.03,0.39-0.08,0.78-0.11,1.16C853.33,427.42,853.23,427.74,853.13,428.06z M871.89,334.48c0-0.06,0.01-0.11,0.01-0.17
				c0.02-0.07,0.04-0.14,0.06-0.21c-0.01,0.05-0.01,0.11-0.02,0.16C871.93,334.34,871.91,334.41,871.89,334.48z M869.14,348.78
				c0-0.06,0.01-0.11,0.01-0.17c0.02-0.07,0.04-0.14,0.06-0.21c-0.01,0.05-0.01,0.11-0.02,0.16
				C869.18,348.64,869.16,348.71,869.14,348.78z M866.39,363.09c0-0.06,0.01-0.11,0.01-0.17c0.02-0.07,0.04-0.14,0.06-0.2
				c-0.01,0.05-0.01,0.11-0.02,0.16C866.43,362.94,866.41,363.02,866.39,363.09z M863.64,377.39c0-0.06,0.01-0.11,0.01-0.17
				c0.02-0.07,0.04-0.14,0.06-0.2c-0.01,0.05-0.01,0.11-0.02,0.16C863.68,377.25,863.66,377.32,863.64,377.39z M860.89,391.69
				c0-0.06,0.01-0.11,0.01-0.17c0.02-0.07,0.04-0.14,0.06-0.2c-0.01,0.05-0.01,0.11-0.02,0.16
				C860.93,391.55,860.91,391.62,860.89,391.69z M858.15,405.99c0-0.05,0.01-0.11,0.01-0.16c0.02-0.07,0.04-0.14,0.06-0.2
				c-0.01,0.05-0.01,0.1-0.02,0.16C858.18,405.85,858.17,405.92,858.15,405.99z M855.4,420.3c0-0.06,0.01-0.11,0.01-0.17
				c0.02-0.07,0.04-0.14,0.06-0.21c-0.01,0.05-0.01,0.11-0.02,0.16C855.44,420.15,855.42,420.22,855.4,420.3z M852.65,434.6
				c0-0.06,0.01-0.12,0.01-0.17c0.02-0.07,0.04-0.14,0.06-0.21c-0.01,0.06-0.01,0.11-0.02,0.17
				C852.69,434.46,852.67,434.53,852.65,434.6z M379.26,730.95c0.02,0,0.04,0,0.06,0l0.58-3.05L379.26,730.95z M373.76,759.55
				c0.03,0,0.06,0,0.1,0l0.87-4.56L373.76,759.55z M376.51,745.25c0.03,0,0.05,0,0.08,0l0.73-3.81L376.51,745.25z M371.01,773.86
				c0.04,0,0.07,0,0.11,0l1.01-5.31L371.01,773.86z"/>
		</g>
	</g>
</g>
<g id="logo">
	<rect x="123.99" y="235.04" class="st21" width="588.21" height="15.85"/>
	<text transform="matrix(1 0 0 1 279.6536 250.7448)" class="st20 st29 st30">Otorga el presente certificado a:</text>
	<g>
		<g>
			<g>
				<g>
					<g>
						<path class="st31" d="M462.32,186.18c0.25-1.13,0.5-2.26,0.76-3.4c-0.4,0-0.78,0-1.18,0c0.2-0.99,0.4-1.95,0.61-2.93
							c0.36,0,0.72,0,1.07,0c0.12,0,0.16-0.02,0.19-0.15c0.19-0.89,0.4-1.76,0.59-2.65c0.11-0.51-0.18-1.04-0.71-1.28
							c-0.86-0.39-2.33-0.17-2.64,1.29c-0.19,0.91-0.39,1.81-0.58,2.72c-0.01,0.01,0,0.03,0,0.07c0.38,0,0.76,0,1.15,0
							c-0.08,0.38-0.15,0.73-0.22,1.08c-0.12,0.57-0.24,1.14-0.35,1.71c-0.02,0.11-0.07,0.13-0.17,0.13c-0.32,0-0.64,0-0.97,0
							c-0.11-0.01-0.14,0.03-0.17,0.14c-0.23,1.05-0.47,2.1-0.7,3.16c-0.02,0.1-0.05,0.13-0.15,0.13c-1.67,0-3.34,0-5.02,0
							c-0.03,0-0.07,0-0.12-0.01c0.07-0.3,0.13-0.6,0.2-0.89c0.45-1.99,0.9-3.98,1.35-5.96c0.24-1.07,0.46-2.14,0.75-3.2
							c0.28-1.01,0.85-1.84,1.76-2.41c0.6-0.37,1.25-0.58,1.95-0.58c2.25-0.01,4.5-0.02,6.75,0.01c0.89,0.01,1.71,0.32,2.35,0.97
							c0.51,0.53,0.74,1.17,0.78,1.9c0.04,0.62-0.14,1.21-0.26,1.82c-0.21,1.05-0.41,2.11-0.62,3.16c-0.2,1-0.4,1.99-0.6,2.98
							c-0.14,0.71-0.28,1.41-0.42,2.12c0,0.01-0.01,0.03-0.02,0.06C465.9,186.18,464.12,186.18,462.32,186.18z"/>
						<path class="st31" d="M369.72,173.17c-0.25,1.13-1.42,6.36-1.44,6.48c-0.19,0.88-0.4,1.77-0.59,2.65
							c-0.11,0.51,0.18,1.04,0.71,1.28c0.86,0.39,2.33,0.17,2.64-1.29c0.19-0.91,1.78-7.96,2.01-9.01c0.02-0.09,0.05-0.13,0.15-0.13
							c1.67,0,3.34,0,5.01,0c0.03,0,0.07,0,0.12,0.01c-0.07,0.3-0.13,0.6-0.2,0.89c-0.45,1.99-0.89,3.98-1.35,5.96
							c-0.24,1.07-0.46,2.14-0.75,3.2c-0.28,1.01-0.85,1.84-1.76,2.4c-0.6,0.37-1.25,0.58-1.95,0.58c-2.25,0.01-4.5,0.02-6.75-0.01
							c-0.89-0.01-1.71-0.32-2.35-0.97c-0.51-0.53-0.74-1.17-0.78-1.9c-0.03-0.63,0.15-1.22,0.26-1.82
							c0.21-1.06,0.42-2.11,0.63-3.17c0.19-0.99,0.39-1.99,0.59-2.98c0.14-0.71,0.28-1.41,0.42-2.12c0-0.01,0.01-0.03,0.02-0.06
							C366.14,173.17,367.92,173.17,369.72,173.17z"/>
						<path class="st31" d="M453.91,177.36c-1.7,0-3.37,0-5.04,0c0-0.19,0.02-0.38-0.01-0.57c-0.04-0.32-0.21-0.57-0.49-0.75
							c-1.11-0.69-2.39-0.32-3.11,0.51c-0.29,0.32-0.42,0.74-0.36,1.18c0.07,0.5,0.54,0.88,1.08,0.9c0.66,0.01,1.33,0.01,1.99,0.01
							c0.86,0.01,1.73-0.02,2.58,0.03c1.28,0.07,2.23,0.82,2.4,2.26c0.08,0.7-0.11,1.34-0.28,1.99c-0.19,0.69-0.43,1.36-0.87,1.93
							c-0.52,0.69-1.23,1.1-2.07,1.25c-0.43,0.08-0.87,0.11-1.31,0.11c-2.67,0.01-5.34,0-8.01,0.01c-0.68,0-1.18-0.29-1.52-0.85
							c-0.54-0.86-0.62-1.8-0.39-2.77c0.02-0.09,0.04-0.17,0.18-0.17c1.65,0,3.31,0,4.96,0c0.03,0,0.07,0,0.1,0.01
							c-0.05,0.97,0.5,1.55,1.48,1.56c0.44,0.01,0.87-0.04,1.28-0.18c0.84-0.28,1.28-1.24,0.92-2.01c-0.2-0.42-0.58-0.59-1-0.66
							c-0.26-0.05-0.54-0.07-0.81-0.07c-1.42-0.01-2.83-0.01-4.25,0c-0.8,0-1.38-0.42-1.62-1.19c-0.17-0.54-0.2-1.09-0.14-1.66
							c0.09-0.96,0.34-1.88,0.8-2.74c0.56-1.04,1.36-1.83,2.53-2.17c0.33-0.09,0.67-0.16,1.01-0.16c2.39-0.01,4.78-0.05,7.17,0.01
							c0.97,0.02,1.89,0.36,2.51,1.2c0.35,0.48,0.45,1.04,0.42,1.61C454.04,176.43,453.96,176.89,453.91,177.36z"/>
						<path class="st31" d="M414.9,182.31c-0.36,1-0.77,1.95-1.49,2.74c-0.54,0.59-1.2,0.95-2,1.05c-0.4,0.05-0.8,0.07-1.2,0.07
							c-2.32,0.02-4.63,0.04-6.95,0.03c-0.7,0-1.37-0.16-1.93-0.62c-0.43-0.36-0.63-0.83-0.68-1.39c-0.05-0.61,0.12-1.19,0.25-1.77
							c0.35-1.59,0.69-3.18,1.05-4.76c0.1-0.47,0.19-0.95,0.31-1.42c0.1-0.41,0.35-0.76,0.62-1.07c0.85-0.96,1.88-1.62,3.14-1.88
							c0.38-0.08,0.78-0.09,1.18-0.1c0.58-0.02,1.16-0.01,1.73-0.01c1.6,0.01,3.21,0,4.81,0.01c0.52,0,1.02,0.12,1.5,0.34
							c0.8,0.37,1.2,1,1.2,1.88c0,0.62-0.15,1.21-0.36,1.78c-0.02,0.05-0.12,0.09-0.18,0.09c-0.85,0.01-1.7,0-2.55,0
							c-0.72,0-1.44,0-2.16,0c-0.06,0-0.12,0-0.17,0c0.04-0.28,0.09-0.54,0.1-0.81c0.02-0.31-0.15-0.54-0.44-0.65
							c-0.12-0.05-0.24-0.08-0.36-0.09c-0.5-0.03-0.99-0.08-1.49,0.03c-0.83,0.19-1.35,0.74-1.61,1.52
							c-0.17,0.51-0.28,1.04-0.4,1.57c-0.25,1.12-0.46,2.25-0.73,3.36c-0.21,0.89,0.26,1.47,1.03,1.6c0.87,0.15,1.64-0.04,2.24-0.72
							c0.19-0.21,0.31-0.47,0.47-0.71c0.04-0.05,0.11-0.11,0.16-0.11c1.62,0,3.23,0.01,4.84,0.02
							C414.85,182.3,414.87,182.3,414.9,182.31z"/>
						<path class="st31" d="M430.48,175.7c-0.04,0.18-0.08,0.39-0.14,0.59c-0.01,0.05-0.08,0.11-0.12,0.11
							c-1.64,0.01-3.29,0.01-4.93,0.01c-0.01,0-0.02-0.01-0.04-0.01c0.24-1.07,0.48-2.14,0.72-3.24c0.3,0,0.59,0,0.89,0
							c1.51,0,3.01-0.01,4.52-0.02c1.24,0,2.49-0.03,3.74-0.02c0.82,0,1.6,0.19,2.29,0.67c0.62,0.44,0.92,1.05,1,1.79
							c0.1,0.96-0.17,1.85-0.53,2.72c-0.22,0.51-0.44,1.03-0.73,1.51c-0.68,1.12-1.72,1.73-3,1.91c-0.44,0.06-0.89,0.07-1.34,0.08
							c-1.16,0.01-2.31,0-3.47,0c-0.13,0-0.2,0.02-0.23,0.18c-0.3,1.4-0.61,2.79-0.91,4.19c0,0.01-0.01,0.02-0.02,0.04
							c-1.69,0-3.39,0-5.1,0c0.07-0.34,0.15-0.67,0.22-1c0.33-1.46,0.65-2.91,0.98-4.37c0.26-1.16,0.52-2.32,0.78-3.47
							c0.01-0.05,0.08-0.11,0.12-0.11c1.65-0.01,3.3,0,4.95,0c0.01,0,0.01,0,0.02,0.01c-0.11,0.49-0.22,0.98-0.33,1.49
							c0.07,0.01,0.12,0.01,0.18,0.01c0.49,0,0.99,0.01,1.48-0.03c0.79-0.06,1.41-0.53,1.57-1.4c0.05-0.27,0.05-0.56,0.01-0.82
							c-0.09-0.46-0.42-0.76-0.88-0.79C431.59,175.68,431.04,175.7,430.48,175.7z"/>
						<path class="st31" d="M423.9,173.16c-0.12,0.53-0.23,1.05-0.34,1.56c-0.35,1.57-0.69,3.14-1.04,4.71
							c-0.31,1.41-0.62,2.83-0.93,4.23c-0.17,0.79-0.35,1.58-0.52,2.37c-0.02,0.1-0.05,0.13-0.15,0.13c-1.63,0-3.26,0-4.89,0
							c-0.01,0-0.02,0-0.05-0.01c0.94-4.34,1.88-8.67,2.83-13C420.49,173.16,422.19,173.16,423.9,173.16z"/>
						<path class="st31" d="M401.15,173.16c-0.11,0.53-0.23,1.05-0.34,1.56c-0.34,1.57-0.69,3.14-1.04,4.71
							c-0.31,1.41-0.62,2.83-0.93,4.23c-0.18,0.79-0.36,1.58-0.53,2.37c-0.02,0.1-0.05,0.13-0.15,0.13c-1.63,0-3.26,0-4.89,0
							c-0.01,0-0.02,0-0.06-0.01c0.94-4.34,1.89-8.67,2.83-13C397.74,173.16,399.43,173.16,401.15,173.16z"/>
						<path class="st31" d="M389.2,173.16l-1.18,5.49l-2.4-5.49c0,0-2.23,0-2.47,0c-0.7,0-1.33,0.19-1.93,0.57
							c-0.74,0.46-1.26,1.1-1.57,1.87c0,0.01,0,0.01,0,0.01h0c-0.07,0.17-0.13,0.34-0.18,0.52c-0.29,1.06-0.51,2.13-0.75,3.2
							c-0.45,1.98-0.9,3.97-1.34,5.95c-0.07,0.29-0.13,0.59-0.2,0.89c0.06,0,0.09,0.01,0.12,0.01c0.02,0,0.03,0,0.04,0l0,0l5.01,0
							l1.38-6.18l2.57,6.18h5.14l2.83-13.02H389.2z"/>
					</g>
					<path class="st32" d="M463.17,180.15"/>
					<path class="st31" d="M472.82,106.6c-2.35-1.05-4.82-1.63-7.39-1.62c-7.86,0.04-15.72,0.11-23.58,0.16c-0.5,0-0.99,0-1.49,0
						c-0.33-0.01-2.81,0-6.2,0.01l-0.33,0.34l-41.87,52.65l-23.98-32.54l22.16,15.41c0.27-1.24,0.54-2.48,0.8-3.72
						c0.13-0.61,5.75-26.78,6.95-32.32h-26.21c-0.76,3.73-1.6,7.94-2.26,11.41c-0.93,4.88-1.88,9.76-2.8,14.63
						c-0.99,5.18-1.99,10.36-2.96,15.54c-0.55,2.96-1.4,5.86-1.21,8.93c0.22,3.55,1.37,6.72,3.89,9.28
						c3.16,3.2,7.18,4.66,11.55,4.69c8.24,0.05,16.48-0.01,24.72-0.1l0,0l21.06-0.23l0,0c8.31-0.08,16.62-0.2,24.94-0.32
						c1.96-0.03,3.94-0.13,5.88-0.38c3.88-0.5,7.13-2.31,9.75-5.21c3.5-3.88,5.49-8.58,7.22-13.51c-0.17-0.02-0.25-0.04-0.33-0.04
						c-7.91,0.01-15.83,0.02-23.74,0.05c-0.27,0.01-0.62,0.28-0.79,0.53c-0.77,1.15-1.36,2.45-2.26,3.47
						c-2.92,3.34-6.7,4.32-10.97,3.59c-3.77-0.64-6.14-3.46-5.12-7.81c1.28-5.48,2.3-11.02,3.49-16.51c0.56-2.58,1.07-5.2,1.91-7.7
						c1.27-3.82,3.79-6.53,7.87-7.49c2.41-0.57,4.85-0.33,7.28-0.2c0.59,0.03,1.2,0.21,1.77,0.42c1.43,0.53,2.25,1.67,2.18,3.19
						c-0.06,1.31-0.29,2.6-0.46,3.95c0.23,0,0.53,0,0.83-0.01c3.53-0.03,7.05-0.05,10.58-0.07c4.17-0.03,8.33-0.05,12.49-0.11
						c0.32-0.01,0.82-0.21,0.9-0.43c1.01-2.82,1.75-5.71,1.71-8.74C478.71,111.48,476.76,108.38,472.82,106.6z"/>
					<polygon class="st33" points="367.97,125.61 391.95,158.15 434.1,105.15 392.06,142.37 					"/>
				</g>
				<rect x="336.38" y="78.87" class="st34" width="168.44" height="133.36"/>
			</g>
		</g>
	</g>
</g>
</svg>
