<?xml version="1.0" encoding="utf-8"?>
<!-- Generator: Adobe Illustrator 27.4.1, SVG Export Plug-In . SVG Version: 6.00 Build 0)  -->
<svg version="1.1" xmlns="http://www.w3.org/2000/svg" xmlns:xlink="http://www.w3.org/1999/xlink" x="0px" y="0px"
	 viewBox="0 0 841 601" style="enable-background:new 0 0 841 601;" xml:space="preserve">
<style type="text/css">
	.st0{opacity:0.58;}
	.st1{clip-path:url(#SVGID_00000111179358435862808240000010369808718612107429_);fill:#FFFFFF;}
	.st2{clip-path:url(#SVGID_00000111179358435862808240000010369808718612107429_);}
	.st3{fill:url(#SVGID_00000053510402983945259320000000712789321422826920_);}
	.st4{fill:url(#SVGID_00000089546341654051089470000000433627374255128749_);}
	.st5{fill:url(#SVGID_00000029010354644761064930000009720049894824901039_);}
	.st6{fill:url(#SVGID_00000102541813129274598680000015134745006027146915_);}
	.st7{fill:url(#SVGID_00000013154781555681521470000015064857772789368468_);}
	.st8{fill:url(#SVGID_00000062899156634750957720000016005864016919567027_);}
	.st9{fill:url(#SVGID_00000016797742633292373710000014773477414683516824_);}
	.st10{fill:url(#SVGID_00000039103688379054417740000001610292809165496976_);}
	.st11{fill:url(#SVGID_00000138542706145246180230000014823728586411196550_);}
	.st12{fill:url(#SVGID_00000129179197731681304740000016966789029461399231_);}
	.st13{fill:url(#SVGID_00000128484795527076110780000015925751283407208591_);}
	.st14{fill:url(#SVGID_00000109017736822200964350000000608189780973075075_);}
	.st15{fill:url(#SVGID_00000104699639535792138520000002403842936299681950_);}
	.st16{fill:url(#SVGID_00000093898594309876009140000008507301482635642297_);}
	.st17{fill:url(#SVGID_00000155836125610843721400000004843330402820413588_);}
	.st18{fill:url(#SVGID_00000139979566843774300180000010046627102207887516_);}
	.st19{fill:url(#SVGID_00000142878611563832424250000004046291510532793017_);}
	.st20{fill:#010202;}
	.st21{fill:none;}
	.st22{fill:url(#SVGID_00000160192028620041710810000002022556969456494233_);}
	.st23{fill:#FCD80B;}
	.st24{fill:url(#SVGID_00000150788801966347745810000003504152158872532622_);}
	.st25{fill:url(#SVGID_00000009581682690646030320000004972300240789010594_);}
	.st26{fill:url(#SVGID_00000123419342881504438600000000545463878804795318_);}
	.st27{fill:url(#SVGID_00000098939753793344346510000013191865265171686286_);}
	.st28{fill:url(#SVGID_00000155141770547095812920000010449335476206080901_);}
	.st29{font-family:'HelveticaNeueLTStd-LtCnO';}
	.st30{font-size:22px;}
	.st31{fill-rule:evenodd;clip-rule:evenodd;fill:#212A2C;}
	.st32{fill:#212A2C;}
	.st33{fill-rule:evenodd;clip-rule:evenodd;fill:#F8E925;}
</style>
<g id="fondo">
	<g id="Business_card_13_" class="st0">
		<g>
			<g id="Artwork_138_15_">
			</g>
		</g>
	</g>
	<g>
		<defs>
			<rect id="SVGID_1_" x="-7.55" y="-5.6" width="856.3" height="615.06"/>
		</defs>
		<clipPath id="SVGID_00000052097718100141454100000003268905745376478883_">
			<use xlink:href="#SVGID_1_"  style="overflow:visible;"/>
		</clipPath>
		
			<rect x="-20.32" y="-15.17" style="clip-path:url(#SVGID_00000052097718100141454100000003268905745376478883_);fill:#FFFFFF;" width="885.37" height="637.45"/>
		<g style="clip-path:url(#SVGID_00000052097718100141454100000003268905745376478883_);">
			<g>
				
					<linearGradient id="SVGID_00000054253485367049187630000003307295444911293085_" gradientUnits="userSpaceOnUse" x1="358.4656" y1="252.6133" x2="358.4656" y2="91.4984" gradientTransform="matrix(0.9943 0.1063 -0.1063 0.9943 20.7566 -38.5894)">
					<stop  offset="0" style="stop-color:#FFFFFF"/>
					<stop  offset="1" style="stop-color:#D1D2D2"/>
				</linearGradient>
				<path style="fill:url(#SVGID_00000054253485367049187630000003307295444911293085_);" d="M819.27,580.34l-1.4-0.15
					c7.3-68.32,1.25-136-18-201.16c-18.59-62.94-48.65-120.89-89.33-172.25c-40.68-51.36-89.94-93.53-146.41-125.35
					C505.67,48.49,442,28.15,374.9,20.97s-133.63-0.75-197.74,19.08C115.24,59.22,58.18,90.02,7.56,131.62
					c-50.62,41.6-92.25,91.89-123.73,149.47c-32.59,59.62-52.82,124.49-60.12,192.81l-1.4-0.15
					c7.32-68.51,27.61-133.56,60.29-193.35c31.57-57.75,73.31-108.18,124.07-149.89C57.44,88.8,114.66,57.9,176.76,38.69
					c64.28-19.89,131-26.33,198.29-19.14c67.29,7.19,131.14,27.59,189.77,60.63c56.63,31.91,106.02,74.2,146.82,125.7
					c40.8,51.5,70.94,109.62,89.58,172.73C820.52,443.96,826.59,511.83,819.27,580.34z"/>
				
					<linearGradient id="SVGID_00000172403670521576134280000001563589459472680864_" gradientUnits="userSpaceOnUse" x1="361.0261" y1="252.6134" x2="361.0261" y2="91.4982" gradientTransform="matrix(0.9943 0.1063 -0.1063 0.9943 20.7566 -38.5894)">
					<stop  offset="0" style="stop-color:#FFFFFF"/>
					<stop  offset="1" style="stop-color:#D1D2D2"/>
				</linearGradient>
				<path style="fill:url(#SVGID_00000172403670521576134280000001563589459472680864_);" d="M823.34,566.35l-1.4-0.15
					c7.3-68.32,1.25-136-18-201.16c-18.59-62.94-48.65-120.89-89.33-172.25c-40.68-51.36-89.94-93.53-146.41-125.35
					C509.74,34.5,446.07,14.16,378.97,6.99S245.33,6.23,181.23,26.07c-61.92,19.16-118.98,49.97-169.6,91.56
					c-50.62,41.6-92.25,91.89-123.73,149.47c-32.59,59.62-52.82,124.49-60.12,192.81l-1.4-0.15
					c7.32-68.51,27.61-133.56,60.29-193.35c31.57-57.75,73.31-108.18,124.07-149.89C61.51,74.81,118.73,43.92,180.83,24.7
					c64.28-19.89,131-26.33,198.29-19.14c67.29,7.19,131.14,27.59,189.77,60.63c56.63,31.91,106.02,74.2,146.82,125.7
					c40.8,51.5,70.94,109.62,89.58,172.73C824.59,429.97,830.66,497.84,823.34,566.35z"/>
				
					<linearGradient id="SVGID_00000021089037096719817690000000868346329695890097_" gradientUnits="userSpaceOnUse" x1="363.5873" y1="252.6135" x2="363.5873" y2="91.4982" gradientTransform="matrix(0.9943 0.1063 -0.1063 0.9943 20.7566 -38.5894)">
					<stop  offset="0" style="stop-color:#FFFFFF"/>
					<stop  offset="1" style="stop-color:#D1D2D2"/>
				</linearGradient>
				<path style="fill:url(#SVGID_00000021089037096719817690000000868346329695890097_);" d="M827.41,552.37l-1.4-0.15
					c7.3-68.32,1.25-136-18-201.16c-18.59-62.94-48.65-120.89-89.33-172.25C678,127.45,628.74,85.28,572.27,53.46
					C513.81,20.52,450.14,0.18,383.04-7C315.93-14.17,249.4-7.75,185.3,12.09C123.38,31.25,66.32,62.05,15.7,103.65
					c-50.62,41.6-92.25,91.89-123.73,149.47c-32.59,59.62-52.82,124.49-60.12,192.81l-1.4-0.15
					c7.32-68.51,27.61-133.56,60.29-193.35c31.57-57.75,73.31-108.18,124.07-149.89C65.58,60.83,122.8,29.93,184.9,10.72
					c64.28-19.89,131-26.33,198.29-19.14c67.29,7.19,131.14,27.59,189.77,60.63c56.63,31.91,106.02,74.2,146.82,125.7
					c40.8,51.5,70.93,109.62,89.58,172.73C828.66,415.99,834.73,483.86,827.41,552.37z"/>
				
					<linearGradient id="SVGID_00000183964424419443170050000017712420963120768693_" gradientUnits="userSpaceOnUse" x1="366.1478" y1="252.6134" x2="366.1478" y2="91.4982" gradientTransform="matrix(0.9943 0.1063 -0.1063 0.9943 20.7566 -38.5894)">
					<stop  offset="0" style="stop-color:#FFFFFF"/>
					<stop  offset="1" style="stop-color:#D1D2D2"/>
				</linearGradient>
				<path style="fill:url(#SVGID_00000183964424419443170050000017712420963120768693_);" d="M831.48,538.39l-1.4-0.15
					c7.3-68.32,1.25-136-18-201.16c-18.59-62.94-48.65-120.89-89.33-172.25c-40.68-51.36-89.94-93.53-146.41-125.35
					C517.88,6.53,454.21-13.81,387.11-20.98C320-28.16,253.47-21.74,189.37-1.9C127.45,17.26,70.39,48.07,19.77,89.67
					c-50.62,41.6-92.25,91.89-123.73,149.47c-32.59,59.62-52.82,124.49-60.12,192.81l-1.4-0.15
					c7.32-68.51,27.61-133.56,60.29-193.35C-73.61,180.7-31.87,130.27,18.89,88.55C69.65,46.84,126.88,15.95,188.97-3.27
					c64.29-19.89,131-26.33,198.29-19.14c67.29,7.19,131.14,27.59,189.77,60.63c56.63,31.91,106.02,74.2,146.82,125.7
					c40.8,51.5,70.93,109.62,89.58,172.73C832.73,402,838.8,469.87,831.48,538.39z"/>
				
					<linearGradient id="SVGID_00000127726399798598552520000013079820149057393593_" gradientUnits="userSpaceOnUse" x1="368.7083" y1="252.6139" x2="368.7083" y2="91.4988" gradientTransform="matrix(0.9943 0.1063 -0.1063 0.9943 20.7566 -38.5894)">
					<stop  offset="0" style="stop-color:#FFFFFF"/>
					<stop  offset="1" style="stop-color:#D1D2D2"/>
				</linearGradient>
				<path style="fill:url(#SVGID_00000127726399798598552520000013079820149057393593_);" d="M835.55,524.4l-1.4-0.15
					c7.3-68.32,1.25-136-18-201.16c-18.59-62.94-48.65-120.89-89.33-172.25c-40.68-51.36-89.94-93.53-146.41-125.35
					C521.95-7.45,458.29-27.79,391.18-34.97c-67.11-7.17-133.63-0.75-197.74,19.08C131.52,3.28,74.46,34.08,23.84,75.68
					c-50.62,41.6-92.25,91.89-123.73,149.47c-32.59,59.62-52.82,124.49-60.12,192.81l-1.4-0.15
					c7.32-68.51,27.61-133.56,60.29-193.35C-69.54,166.71-27.8,116.28,22.96,74.57C73.73,32.86,130.95,1.96,193.04-17.25
					c64.28-19.89,131-26.33,198.29-19.14C458.62-29.19,522.47-8.8,581.1,24.24c56.62,31.91,106.02,74.2,146.82,125.7
					c40.8,51.5,70.93,109.62,89.58,172.73C836.8,388.02,842.87,455.89,835.55,524.4z"/>
				
					<linearGradient id="SVGID_00000093871487539014311890000005625922789447662470_" gradientUnits="userSpaceOnUse" x1="371.2689" y1="252.6139" x2="371.2689" y2="91.4989" gradientTransform="matrix(0.9943 0.1063 -0.1063 0.9943 20.7566 -38.5894)">
					<stop  offset="0" style="stop-color:#FFFFFF"/>
					<stop  offset="1" style="stop-color:#D1D2D2"/>
				</linearGradient>
				<path style="fill:url(#SVGID_00000093871487539014311890000005625922789447662470_);" d="M839.62,510.41l-1.4-0.15
					c7.3-68.32,1.25-136-18-201.16c-18.59-62.94-48.65-120.89-89.33-172.25C690.21,85.49,640.95,43.32,584.48,11.5
					c-58.46-32.94-122.13-53.28-189.23-60.46c-67.11-7.17-133.63-0.75-197.74,19.08C135.6-10.71,78.53,20.1,27.91,61.7
					c-50.62,41.6-92.25,91.89-123.73,149.47c-32.59,59.62-52.82,124.49-60.12,192.81l-1.4-0.15
					c7.32-68.51,27.61-133.56,60.29-193.35C-65.47,152.73-23.73,102.3,27.03,60.58C77.8,18.87,135.02-12.02,197.11-31.24
					c64.28-19.89,131-26.33,198.29-19.14c67.29,7.19,131.14,27.59,189.77,60.63c56.62,31.91,106.02,74.2,146.82,125.7
					c40.8,51.5,70.93,109.62,89.58,172.73C840.87,374.03,846.94,441.9,839.62,510.41z"/>
				
					<linearGradient id="SVGID_00000147215235276173084240000005546161919753976198_" gradientUnits="userSpaceOnUse" x1="373.8294" y1="252.6135" x2="373.8294" y2="91.4983" gradientTransform="matrix(0.9943 0.1063 -0.1063 0.9943 20.7566 -38.5894)">
					<stop  offset="0" style="stop-color:#FFFFFF"/>
					<stop  offset="1" style="stop-color:#D1D2D2"/>
				</linearGradient>
				<path style="fill:url(#SVGID_00000147215235276173084240000005546161919753976198_);" d="M843.69,496.43l-1.4-0.15
					c7.3-68.32,1.25-136-18-201.16c-18.59-62.94-48.65-120.89-89.33-172.25C694.28,71.51,645.02,29.34,588.55-2.48
					c-58.46-32.94-122.13-53.28-189.23-60.46c-67.11-7.17-133.63-0.75-197.74,19.08C139.67-24.69,82.6,6.11,31.98,47.71
					c-50.62,41.6-92.25,91.89-123.73,149.47c-32.59,59.62-52.82,124.49-60.12,192.81l-1.4-0.15
					c7.32-68.51,27.61-133.56,60.29-193.35C-61.4,138.74-19.66,88.31,31.1,46.6C81.87,4.89,139.09-26.01,201.18-45.22
					c64.28-19.89,131-26.33,198.29-19.14c67.29,7.19,131.14,27.59,189.77,60.63c56.63,31.91,106.02,74.2,146.82,125.7
					c40.8,51.5,70.94,109.62,89.58,172.73C844.94,360.05,851.01,427.92,843.69,496.43z"/>
				
					<linearGradient id="SVGID_00000058554819175319989650000017478844137434894247_" gradientUnits="userSpaceOnUse" x1="376.3905" y1="252.6135" x2="376.3905" y2="91.4983" gradientTransform="matrix(0.9943 0.1063 -0.1063 0.9943 20.7566 -38.5894)">
					<stop  offset="0" style="stop-color:#FFFFFF"/>
					<stop  offset="1" style="stop-color:#D1D2D2"/>
				</linearGradient>
				<path style="fill:url(#SVGID_00000058554819175319989650000017478844137434894247_);" d="M847.76,482.44l-1.4-0.15
					c7.3-68.32,1.25-136-18-201.16c-18.59-62.94-48.65-120.89-89.33-172.25c-40.68-51.36-89.94-93.53-146.41-125.35
					C534.16-49.41,470.5-69.75,403.39-76.92c-67.11-7.17-133.63-0.75-197.74,19.08C143.74-38.68,86.68-7.87,36.06,33.72
					c-50.62,41.6-92.25,91.89-123.73,149.47c-32.59,59.62-52.82,124.49-60.12,192.81l-1.4-0.15
					c7.32-68.51,27.61-133.56,60.29-193.35C-57.33,124.76-15.59,74.33,35.18,32.61C85.94-9.1,143.16-39.99,205.25-59.21
					c64.28-19.89,131-26.33,198.29-19.14c67.29,7.19,131.14,27.59,189.77,60.63c56.63,31.91,106.02,74.2,146.82,125.7
					c40.8,51.5,70.94,109.62,89.58,172.73C849.01,346.06,855.08,413.93,847.76,482.44z"/>
				
					<linearGradient id="SVGID_00000085936407192418605750000011813694888329809587_" gradientUnits="userSpaceOnUse" x1="378.9511" y1="252.6135" x2="378.9511" y2="91.4983" gradientTransform="matrix(0.9943 0.1063 -0.1063 0.9943 20.7566 -38.5894)">
					<stop  offset="0" style="stop-color:#FFFFFF"/>
					<stop  offset="1" style="stop-color:#D1D2D2"/>
				</linearGradient>
				<path style="fill:url(#SVGID_00000085936407192418605750000011813694888329809587_);" d="M851.83,468.46l-1.4-0.15
					c7.3-68.32,1.25-136-18-201.16c-18.59-62.94-48.65-120.89-89.33-172.25C702.42,43.54,653.16,1.37,596.69-30.45
					c-58.46-32.94-122.13-53.28-189.23-60.46s-133.63-0.75-197.74,19.08C147.81-52.66,90.75-21.86,40.13,19.74
					c-50.62,41.6-92.25,91.89-123.73,149.47c-32.59,59.62-52.82,124.49-60.12,192.81l-1.4-0.15
					c7.32-68.51,27.61-133.56,60.29-193.35C-53.26,110.77-11.52,60.34,39.25,18.63c50.76-41.71,107.98-72.61,170.07-91.82
					c64.28-19.89,131-26.33,198.29-19.14c67.29,7.19,131.14,27.59,189.77,60.63C654,0.2,703.4,42.5,744.2,94
					c40.8,51.5,70.94,109.62,89.58,172.73C853.08,332.08,859.16,399.95,851.83,468.46z"/>
				
					<linearGradient id="SVGID_00000074421018543265895920000011977717782073117339_" gradientUnits="userSpaceOnUse" x1="381.5116" y1="252.6138" x2="381.5116" y2="91.4988" gradientTransform="matrix(0.9943 0.1063 -0.1063 0.9943 20.7566 -38.5894)">
					<stop  offset="0" style="stop-color:#FFFFFF"/>
					<stop  offset="1" style="stop-color:#D1D2D2"/>
				</linearGradient>
				<path style="fill:url(#SVGID_00000074421018543265895920000011977717782073117339_);" d="M855.9,454.47l-1.4-0.15
					c7.3-68.32,1.25-136-18-201.16c-18.59-62.94-48.65-120.89-89.33-172.25c-40.68-51.36-89.94-93.53-146.41-125.35
					c-58.46-32.94-122.13-53.28-189.23-60.46s-133.63-0.75-197.74,19.08C151.88-66.65,94.82-35.84,44.2,5.75
					C-6.42,47.35-48.05,97.64-79.53,155.23c-32.59,59.62-52.82,124.49-60.12,192.81l-1.4-0.15c7.32-68.51,27.61-133.56,60.29-193.35
					C-49.19,96.79-7.45,46.36,43.32,4.64C94.08-37.07,151.3-67.96,213.39-87.18c64.28-19.89,131-26.33,198.29-19.14
					c67.29,7.19,131.14,27.59,189.77,60.63c56.63,31.91,106.02,74.2,146.82,125.7c40.8,51.5,70.94,109.62,89.58,172.73
					C857.15,318.09,863.23,385.96,855.9,454.47z"/>
				
					<linearGradient id="SVGID_00000011740973136230148350000017218681511659235487_" gradientUnits="userSpaceOnUse" x1="384.0728" y1="252.6137" x2="384.0728" y2="91.4987" gradientTransform="matrix(0.9943 0.1063 -0.1063 0.9943 20.7566 -38.5894)">
					<stop  offset="0" style="stop-color:#FFFFFF"/>
					<stop  offset="1" style="stop-color:#D1D2D2"/>
				</linearGradient>
				<path style="fill:url(#SVGID_00000011740973136230148350000017218681511659235487_);" d="M859.97,440.49l-1.4-0.15
					c7.3-68.32,1.25-136-18-201.16c-18.59-62.94-48.65-120.89-89.33-172.25C710.56,15.57,661.3-26.6,604.83-58.42
					c-58.46-32.94-122.13-53.28-189.23-60.46c-67.11-7.17-133.63-0.75-197.74,19.08C155.95-80.63,98.89-49.83,48.27-8.23
					C-2.35,33.37-43.98,83.66-75.46,141.24c-32.59,59.62-52.82,124.49-60.12,192.81l-1.4-0.15c7.32-68.51,27.61-133.56,60.29-193.35
					C-45.12,82.8-3.38,32.37,47.39-9.34c50.76-41.71,107.98-72.61,170.07-91.82c64.28-19.89,131-26.33,198.29-19.14
					c67.29,7.19,131.14,27.59,189.77,60.63c56.63,31.91,106.02,74.2,146.82,125.7c40.8,51.5,70.93,109.62,89.58,172.73
					C861.22,304.11,867.3,371.98,859.97,440.49z"/>
				
					<linearGradient id="SVGID_00000181049684535124119070000015141394240589698958_" gradientUnits="userSpaceOnUse" x1="386.6333" y1="252.6135" x2="386.6333" y2="91.4983" gradientTransform="matrix(0.9943 0.1063 -0.1063 0.9943 20.7566 -38.5894)">
					<stop  offset="0" style="stop-color:#FFFFFF"/>
					<stop  offset="1" style="stop-color:#D1D2D2"/>
				</linearGradient>
				<path style="fill:url(#SVGID_00000181049684535124119070000015141394240589698958_);" d="M864.04,426.5l-1.4-0.15
					c7.3-68.32,1.25-136-18-201.16C826.05,162.25,796,104.3,755.31,52.94C714.63,1.58,665.37-40.59,608.91-72.41
					c-58.46-32.94-122.13-53.28-189.23-60.46c-67.11-7.17-133.63-0.75-197.74,19.08c-61.92,19.16-118.98,49.97-169.6,91.56
					C1.72,19.38-39.91,69.67-71.39,127.26c-32.59,59.62-52.82,124.49-60.12,192.81l-1.4-0.15c7.32-68.51,27.61-133.56,60.29-193.35
					C-41.05,68.82,0.69,18.39,51.46-23.33c50.76-41.71,107.98-72.61,170.07-91.82c64.29-19.89,131-26.33,198.29-19.14
					c67.29,7.19,131.14,27.59,189.77,60.63c56.63,31.91,106.02,74.2,146.82,125.7c40.8,51.5,70.93,109.62,89.58,172.73
					C865.29,290.12,871.37,357.99,864.04,426.5z"/>
				
					<linearGradient id="SVGID_00000173850500940134290040000011758084504327388093_" gradientUnits="userSpaceOnUse" x1="389.1938" y1="252.6136" x2="389.1938" y2="91.4983" gradientTransform="matrix(0.9943 0.1063 -0.1063 0.9943 20.7566 -38.5894)">
					<stop  offset="0" style="stop-color:#FFFFFF"/>
					<stop  offset="1" style="stop-color:#D1D2D2"/>
				</linearGradient>
				<path style="fill:url(#SVGID_00000173850500940134290040000011758084504327388093_);" d="M868.11,412.52l-1.4-0.15
					c7.3-68.32,1.25-136-18-201.16c-18.59-62.94-48.65-120.89-89.33-172.25C718.7-12.4,669.44-54.57,612.98-86.39
					c-58.46-32.94-122.13-53.28-189.23-60.46c-67.11-7.17-133.63-0.75-197.74,19.08C164.09-108.6,107.03-77.8,56.41-36.2
					C5.79,5.4-35.84,55.68-67.32,113.27c-32.59,59.62-52.82,124.49-60.12,192.81l-1.4-0.15c7.32-68.51,27.61-133.56,60.29-193.35
					C-36.98,54.83,4.77,4.4,55.53-37.31c50.76-41.71,107.98-72.61,170.07-91.82c64.28-19.89,131-26.33,198.29-19.14
					c67.29,7.19,131.14,27.59,189.77,60.63c56.62,31.91,106.02,74.2,146.82,125.7c40.8,51.5,70.93,109.62,89.58,172.73
					C869.36,276.14,875.44,344.01,868.11,412.52z"/>
				
					<linearGradient id="SVGID_00000181774047217950317850000016691410433639970464_" gradientUnits="userSpaceOnUse" x1="391.7543" y1="252.6136" x2="391.7543" y2="91.4983" gradientTransform="matrix(0.9943 0.1063 -0.1063 0.9943 20.7566 -38.5894)">
					<stop  offset="0" style="stop-color:#FFFFFF"/>
					<stop  offset="1" style="stop-color:#D1D2D2"/>
				</linearGradient>
				<path style="fill:url(#SVGID_00000181774047217950317850000016691410433639970464_);" d="M872.18,398.53l-1.4-0.15
					c7.3-68.32,1.25-136-18-201.16c-18.59-62.94-48.65-120.89-89.33-172.25c-40.68-51.36-89.94-93.53-146.41-125.35
					c-58.46-32.94-122.13-53.28-189.23-60.46c-67.11-7.17-133.63-0.75-197.74,19.08c-61.92,19.16-118.98,49.97-169.6,91.56
					C9.86-8.59-31.77,41.7-63.25,99.29c-32.59,59.62-52.82,124.49-60.12,192.81l-1.4-0.15c7.32-68.51,27.61-133.56,60.29-193.35
					C-32.91,40.85,8.84-9.58,59.6-51.3c50.76-41.71,107.98-72.61,170.07-91.82c64.28-19.89,131-26.33,198.29-19.14
					c67.29,7.19,131.14,27.59,189.77,60.63c56.62,31.91,106.02,74.2,146.82,125.7c40.8,51.5,70.93,109.62,89.58,172.73
					C873.43,262.15,879.51,330.02,872.18,398.53z"/>
				
					<linearGradient id="SVGID_00000155853441429508689460000000895253882932576914_" gradientUnits="userSpaceOnUse" x1="394.3149" y1="252.6138" x2="394.3149" y2="91.4988" gradientTransform="matrix(0.9943 0.1063 -0.1063 0.9943 20.7566 -38.5894)">
					<stop  offset="0" style="stop-color:#FFFFFF"/>
					<stop  offset="1" style="stop-color:#D1D2D2"/>
				</linearGradient>
				<path style="fill:url(#SVGID_00000155853441429508689460000000895253882932576914_);" d="M876.25,384.55l-1.4-0.15
					c7.3-68.32,1.25-136-18-201.16c-18.59-62.94-48.65-120.89-89.33-172.25c-40.68-51.36-89.94-93.53-146.41-125.35
					c-58.46-32.94-122.13-53.28-189.23-60.46c-67.11-7.17-133.63-0.75-197.74,19.08c-61.92,19.16-118.98,49.97-169.6,91.56
					C13.93-22.58-27.7,27.71-59.18,85.3C-91.77,144.92-112,209.79-119.3,278.11l-1.4-0.15c7.32-68.51,27.61-133.56,60.29-193.35
					C-28.84,26.86,12.91-23.57,63.67-65.28c50.76-41.71,107.98-72.61,170.07-91.82c64.28-19.89,131-26.33,198.29-19.14
					c67.29,7.19,131.14,27.59,189.77,60.63c56.63,31.91,106.02,74.2,146.82,125.7c40.8,51.5,70.94,109.62,89.58,172.73
					C877.5,248.17,883.58,316.04,876.25,384.55z"/>
				
					<linearGradient id="SVGID_00000117677922381643452160000005610175427779335852_" gradientUnits="userSpaceOnUse" x1="396.8761" y1="252.6138" x2="396.8761" y2="91.4988" gradientTransform="matrix(0.9943 0.1063 -0.1063 0.9943 20.7566 -38.5894)">
					<stop  offset="0" style="stop-color:#FFFFFF"/>
					<stop  offset="1" style="stop-color:#D1D2D2"/>
				</linearGradient>
				<path style="fill:url(#SVGID_00000117677922381643452160000005610175427779335852_);" d="M880.32,370.56l-1.4-0.15
					c7.3-68.32,1.25-136-18-201.16C842.33,106.31,812.28,48.36,771.59-3c-40.68-51.36-89.94-93.53-146.41-125.35
					c-58.46-32.94-122.13-53.28-189.23-60.46c-67.11-7.17-133.63-0.75-197.74,19.08c-61.92,19.16-118.98,49.97-169.6,91.56
					C18-36.56-23.63,13.73-55.11,71.32c-32.59,59.62-52.82,124.49-60.12,192.81l-1.4-0.15c7.32-68.51,27.61-133.56,60.29-193.35
					C-24.77,12.88,16.98-37.55,67.74-79.27c50.76-41.71,107.98-72.61,170.07-91.82c64.28-19.89,131-26.33,198.29-19.14
					c67.29,7.19,131.14,27.59,189.77,60.63C682.5-97.69,731.89-55.4,772.69-3.9c40.8,51.5,70.94,109.62,89.58,172.73
					C881.57,234.18,887.65,302.05,880.32,370.56z"/>
				
					<linearGradient id="SVGID_00000101812736409796141800000000792229551929672104_" gradientUnits="userSpaceOnUse" x1="399.4366" y1="252.6136" x2="399.4366" y2="91.4984" gradientTransform="matrix(0.9943 0.1063 -0.1063 0.9943 20.7566 -38.5894)">
					<stop  offset="0" style="stop-color:#FFFFFF"/>
					<stop  offset="1" style="stop-color:#D1D2D2"/>
				</linearGradient>
				<path style="fill:url(#SVGID_00000101812736409796141800000000792229551929672104_);" d="M884.39,356.58l-1.4-0.15
					c7.3-68.32,1.25-136-18-201.16C846.4,92.33,816.35,34.37,775.67-16.98c-40.68-51.36-89.94-93.53-146.41-125.35
					c-58.46-32.94-122.13-53.28-189.23-60.46c-67.11-7.17-133.63-0.75-197.74,19.08c-61.92,19.16-118.98,49.97-169.6,91.56
					C22.07-50.55-19.56-0.26-51.04,57.33c-32.59,59.62-52.82,124.49-60.12,192.81l-1.4-0.15c7.32-68.51,27.61-133.56,60.29-193.35
					C-20.7-1.11,21.05-51.54,71.81-93.25c50.76-41.71,107.98-72.61,170.07-91.82c64.28-19.89,131-26.33,198.29-19.14
					c67.29,7.19,131.14,27.59,189.77,60.63c56.63,31.91,106.02,74.2,146.82,125.7c40.8,51.5,70.94,109.62,89.58,172.73
					C885.64,220.2,891.72,288.07,884.39,356.58z"/>
			</g>
			<g>
				<path class="st20" d="M990.58-55.89l-18.72,406.85l-0.28,6c-53.27-80.76-121.39-150.77-200.62-205.79
					c-63.65-42.36-134.4-74.82-210.26-95.13c-46.95-12.58-95.85-20.5-146.23-23.23C243.92,23.57,84.05,75.29-44.73,169.29
					l1.95-37.37l9.09-173.94l1.03-19.78l100.27,0.58l262.92,1.52c0.01-0.01,0.02,0,0.02,0l107.61,0.62L990.58-55.89z"/>
				<g>
					<path class="st21" d="M193.64-69.59c-43.01,0-85.36,2.9-126.88,8.48l266.82,1.85C287.9-66.06,241.18-69.59,193.64-69.59z"/>
					
						<linearGradient id="SVGID_00000082367406096093313550000012235028774587637135_" gradientUnits="userSpaceOnUse" x1="496.6898" y1="519.7286" x2="338.048" y2="288.4686" gradientTransform="matrix(0.998 -0.0636 0.0636 0.998 -15.5357 94.8612)">
						<stop  offset="0" style="stop-color:#384A5B"/>
						<stop  offset="1" style="stop-color:#242D35"/>
					</linearGradient>
					<path style="fill:url(#SVGID_00000082367406096093313550000012235028774587637135_);" d="M-32.65-61.8l-1.03,19.79
						c32.85-8.12,66.37-14.51,100.45-19.1L-32.65-61.8z"/>
					<path class="st23" d="M790.66-12.16l-321.05-2.23c173.51,25.81,324.21,123.13,422.31,261.64l3.87-74.06
						C884.08,115.67,860.16,37.37,790.66-12.16z"/>
					<path class="st23" d="M972.65,315.16l-1.13,21.59c-15.51-24.06-32.56-47.03-51.03-68.75c-1.98-2.34-3.98-4.66-6-6.96
						c-0.01-0.01-0.02-0.02-0.03-0.03c-76.68-87.67-176.65-154.2-290.71-189.18c-20.57-6.31-41.61-11.6-63.05-15.79
						c-46.95-12.58-95.85-20.5-146.23-23.23C243.92,23.57,84.05,75.29-44.73,169.29l-5.78,110.55v0.01c-0.41,0.49-0.8,0.98-1.2,1.47
						l18.02-344.85c32.85-8.12,66.37-14.51,100.45-19.09l266.83,1.85c35.53,5.29,70.42,12.55,104.57,21.69
						c44.25,11.83,87.24,26.79,128.74,44.65h0.01c137.5,59.14,258.62,149.98,354.57,263.51
						C939.44,270.33,956.52,292.38,972.65,315.16z"/>
				</g>
				<path class="st20" d="M770.96,151.17c-63.65-42.36-134.4-74.82-210.26-95.13c-46.95-12.58-95.85-20.5-146.23-23.23
					C243.92,23.57,84.05,75.29-44.73,169.29l1.95-37.37C82.34,53.45,231.37,11.59,389.25,20.14c82.66,4.47,161.48,22.44,234.5,51.69
					C676.03,92.76,725.34,119.47,770.96,151.17z"/>
				<path class="st20" d="M971.59,356.98l-0.07,1.28l0.06-1.3C971.58,356.97,971.59,356.97,971.59,356.98z"/>
				
					<linearGradient id="SVGID_00000090254928019100995430000007808766091060621970_" gradientUnits="userSpaceOnUse" x1="954.835" y1="278.2587" x2="803.5671" y2="235.6549">
					<stop  offset="0" style="stop-color:#FFFFFF"/>
					<stop  offset="1" style="stop-color:#D1D2D2"/>
				</linearGradient>
				<path style="fill:url(#SVGID_00000090254928019100995430000007808766091060621970_);" d="M971.9,351.02l-0.31,5.96l-0.07,1.28
					l0.06-1.3c-53.27-80.76-121.39-150.77-200.62-205.79c79.25,52.71,147.5,120.77,200.9,199.79
					C971.87,350.98,971.89,351,971.9,351.02z"/>
			</g>
			<g>
				<g>
					
						<linearGradient id="SVGID_00000101791974195889380630000001469923937397129344_" gradientUnits="userSpaceOnUse" x1="2217.939" y1="20.3195" x2="1936.7582" y2="391.0801" gradientTransform="matrix(-0.8573 -0.5148 0.5148 -0.8573 1892.4307 1593.8267)">
						<stop  offset="0" style="stop-color:#FCBF00"/>
						<stop  offset="1" style="stop-color:#F28E13"/>
					</linearGradient>
					<path style="fill:url(#SVGID_00000101791974195889380630000001469923937397129344_);" d="M51.62,512.13
						C-143.61,392.78-259.76,190.45-279.42-23.94l-199.95,339.02l872.78,533.56l5.07-236.48
						C280.1,610.98,160.46,578.67,51.62,512.13z"/>
				</g>
				<g>
					
						<linearGradient id="SVGID_00000043425450776582260960000014893701087068243866_" gradientUnits="userSpaceOnUse" x1="463.1047" y1="211.8258" x2="202.9714" y2="345.8124" gradientTransform="matrix(0.9998 0.0218 -0.0218 0.9998 12.1674 -25.9116)">
						<stop  offset="0" style="stop-color:#384A5B"/>
						<stop  offset="1" style="stop-color:#242D35"/>
					</linearGradient>
					<path style="fill:url(#SVGID_00000043425450776582260960000014893701087068243866_);" d="M51.62,512.13
						C-143.61,392.78-259.76,190.45-279.42-23.94l-199.95,339.02l843.54,515.68c10.05-3.66,20.01-7.58,29.88-11.74l4.44-206.87
						C280.1,610.98,160.46,578.67,51.62,512.13z"/>
				</g>
				<g>
					<path class="st20" d="M51.62,512.13C-143.61,392.78-259.76,190.45-279.42-23.94l-199.95,730.83l539.12-62.23
						c112.4,22.46,226.67,24.76,337.86,8.15l0.87-40.66C280.1,610.98,160.46,578.67,51.62,512.13z"/>
				</g>
				<g>
					<path class="st23" d="M51.62,512.13C-143.61,392.78-259.76,190.45-279.42-23.94l-93.72,158.9
						c65.59,147.63,174.43,277.16,321.21,366.9c140.99,86.19,297.37,123.65,450.26,117.21l0.15-6.92
						C280.1,610.98,160.46,578.67,51.62,512.13z"/>
				</g>
			</g>
			
				<linearGradient id="SVGID_00000103251575941135621280000001895811442519648951_" gradientUnits="userSpaceOnUse" x1="53.0089" y1="317.2883" x2="391.5565" y2="426.7302">
				<stop  offset="0" style="stop-color:#FFFFFF"/>
				<stop  offset="1" style="stop-color:#D1D2D2"/>
			</linearGradient>
			<path style="fill:url(#SVGID_00000103251575941135621280000001895811442519648951_);" d="M52.61,510.45
				C-142.62,391.1-258.76,188.77-278.42-25.62l-74.22,125.84c59.63,163.83,172.33,308.88,330.9,405.82
				c131.63,80.47,277.15,116.94,420.07,113.62l0.2-9.2C280.45,609.12,161.15,576.81,52.61,510.45z"/>
			
				<linearGradient id="SVGID_00000030487220150392359030000005481743406658024626_" gradientUnits="userSpaceOnUse" x1="657.0558" y1="1017.5287" x2="657.0558" y2="756.299" gradientTransform="matrix(0.98 0.1989 -0.1989 0.98 118.4033 -260.7356)">
				<stop  offset="0" style="stop-color:#FFFFFF"/>
				<stop  offset="1" style="stop-color:#D1D2D2"/>
			</linearGradient>
			<path style="fill:url(#SVGID_00000030487220150392359030000005481743406658024626_);" d="M357.27,845.37c0.06,0,0.13,0,0.19,0
				l1.73-9.08L357.27,845.37z M365.52,802.46c0.05,0,0.1,0,0.14,0l1.3-6.82L365.52,802.46z M368.27,788.16c0.04,0,0.08,0,0.13,0
				l1.16-6.07L368.27,788.16z M362.77,816.76c0.05,0,0.11,0,0.16,0l1.45-7.57L362.77,816.76z M360.02,831.07c0.06,0,0.12,0,0.17,0
				l1.59-8.31L360.02,831.07z M346.28,902.58c0.08,0,0.17,0,0.25,0l2.32-12.13L346.28,902.58z M349.03,888.28c0.08,0,0.16,0,0.24,0
				l2.17-11.37L349.03,888.28z M351.78,873.97c0.07,0,0.15,0,0.22,0l2.03-10.63L351.78,873.97z M354.52,859.67c0.07,0,0.14,0,0.21,0
				l1.89-9.88L354.52,859.67z M382.01,716.65c0.02,0,0.03,0,0.05,0l0.43-2.25L382.01,716.65z M384.76,702.34c0.01,0,0.02,0,0.03,0
				l0.29-1.5L384.76,702.34z M387.51,688.04c0.01,0,0.01,0,0.02,0l0.14-0.75L387.51,688.04z M846.15,485.59
				c0.98-4.73,1.89-9.48,2.74-14.25c0.99-4.77,1.9-9.56,2.76-14.36c0.99-4.75,1.89-9.52,2.75-14.3c0.99-4.75,1.9-9.52,2.75-14.3
				c0.99-4.75,1.89-9.52,2.75-14.3c0.99-4.75,1.9-9.52,2.75-14.31c0.99-4.75,1.9-9.53,2.75-14.31c0.99-4.75,1.89-9.51,2.75-14.29
				c0.98-4.73,1.89-9.48,2.74-14.25c0.99-4.77,1.9-9.56,2.76-14.36c0.99-4.75,1.9-9.52,2.75-14.3c0.99-4.75,1.9-9.53,2.75-14.32
				c0.99-4.75,1.89-9.51,2.75-14.29c0.99-4.75,1.9-9.52,2.75-14.3c0.99-4.75,1.9-9.52,2.75-14.3c6.74-32.46,10.38-65.66,10.82-99.41
				l-1.4-0.02c-0.22,16.81-1.24,33.48-3.04,49.99c0.95-11.82,1.53-23.71,1.69-35.67l-1.4-0.02c-0.22,16.81-1.24,33.48-3.04,49.99
				c0.95-11.82,1.53-23.71,1.69-35.67l-1.4-0.02c-0.22,16.81-1.24,33.48-3.04,49.99c0.95-11.82,1.53-23.71,1.69-35.67l-1.4-0.02
				c-0.22,16.8-1.24,33.47-3.04,49.98c0.95-11.81,1.53-23.7,1.69-35.66l-1.4-0.02c-0.22,16.81-1.24,33.47-3.03,49.98
				c0.95-11.82,1.53-23.7,1.69-35.66l-1.4-0.02c-0.22,16.8-1.24,33.47-3.04,49.98c0.95-11.82,1.53-23.7,1.69-35.66l-1.4-0.02
				c-0.21,16.21-1.19,32.29-2.86,48.22c-0.02,0.07-0.04,0.15-0.06,0.22c0.88-11.31,1.43-22.68,1.58-34.12l-1.4-0.02
				c-0.18,13.74-0.91,27.39-2.14,40.94c-0.1,0.32-0.2,0.64-0.29,0.96c0.6-9.15,0.97-18.34,1.09-27.58l-1.4-0.02
				c-0.15,11.3-0.69,22.53-1.55,33.7c-0.18,0.57-0.34,1.15-0.53,1.72c0.37-7.01,0.64-14.04,0.73-21.1l-1.4-0.02
				c-0.11,8.76-0.45,17.48-0.99,26.16c-0.24,0.74-0.49,1.47-0.73,2.21c0.18-4.67,0.32-9.35,0.38-14.04l-1.4-0.02
				c-0.08,6.37-0.32,12.71-0.63,19.04c-0.29,0.83-0.6,1.66-0.9,2.49c0.06-2.4,0.15-4.8,0.18-7.21l-1.4-0.02
				c-0.05,3.82-0.16,7.63-0.29,11.43c-0.35,0.98-0.7,1.96-1.06,2.94c0-0.02,0-0.03,0-0.05l-1.4-0.02c-0.02,1.38-0.08,2.74-0.1,4.12
				c-2.77,7.32-5.69,14.6-8.8,21.81c-25.97,60.26-62.73,114.19-109.25,160.31c-46.52,46.11-100.46,82.08-160.32,106.9
				c-61.97,25.7-127.61,38.27-195.1,37.35l-2.59,13.56l2.57-12.13c67.67,0.92,133.5-11.68,195.64-37.45
				c60.03-24.89,114.12-60.96,160.77-107.2c46.65-46.24,83.51-100.33,109.55-160.76c1.67-3.87,3.28-7.75,4.85-11.65
				c-0.02,1.19-0.06,2.38-0.09,3.56c-2.77,7.32-5.69,14.6-8.8,21.81c-25.97,60.26-62.73,114.19-109.25,160.31
				c-46.52,46.11-100.46,82.08-160.32,106.9c-61.97,25.7-127.6,38.26-195.08,37.35l-2.45,12.8l2.41-11.37
				c67.67,0.92,133.5-11.68,195.64-37.45c60.03-24.89,114.12-60.96,160.77-107.2c46.65-46.24,83.51-100.33,109.55-160.76
				c1.67-3.87,3.28-7.75,4.85-11.65c-0.02,1.19-0.06,2.38-0.09,3.56c-2.77,7.32-5.69,14.6-8.8,21.81
				c-25.97,60.26-62.73,114.19-109.25,160.31c-46.52,46.11-100.46,82.08-160.32,106.9c-61.96,25.7-127.59,38.26-195.06,37.35
				l-2.3,12.05l2.25-10.62c67.67,0.92,133.5-11.68,195.64-37.45c60.03-24.89,114.12-60.96,160.77-107.2
				c46.65-46.24,83.51-100.33,109.55-160.76c1.67-3.87,3.28-7.75,4.85-11.64c-0.02,1.19-0.06,2.38-0.09,3.56
				c-2.77,7.32-5.68,14.59-8.79,21.81c-25.97,60.26-62.73,114.19-109.25,160.31c-46.52,46.11-100.46,82.08-160.32,106.9
				c-61.96,25.69-127.58,38.26-195.05,37.35l-2.15,11.25l2.08-9.82c67.67,0.92,133.49-11.68,195.64-37.45
				c60.03-24.89,114.12-60.96,160.77-107.2c46.65-46.24,83.51-100.33,109.55-160.76c1.67-3.87,3.28-7.75,4.85-11.64
				c-0.02,1.19-0.07,2.38-0.09,3.57c-2.77,7.32-5.68,14.59-8.79,21.81c-25.97,60.26-62.73,114.19-109.25,160.31
				c-46.52,46.11-100.46,82.08-160.32,106.9c-61.95,25.69-127.57,38.26-195.03,37.35l-2,10.49l1.92-9.06
				c67.67,0.92,133.5-11.68,195.64-37.45c60.03-24.89,114.12-60.96,160.77-107.2c46.65-46.24,83.51-100.33,109.55-160.76
				c2.6-6.03,5.04-12.11,7.4-18.22c-0.03,1.05-0.04,2.1-0.08,3.15c-3.5,9.69-7.26,19.29-11.36,28.8
				C815.2,500.95,778.45,554.89,731.93,601c-46.52,46.11-100.46,82.08-160.32,106.9c-61.95,25.69-127.56,38.25-195.02,37.35
				l-1.86,9.74l1.76-8.31c67.67,0.92,133.5-11.68,195.64-37.45c60.03-24.89,114.12-60.96,160.77-107.2
				c46.65-46.24,83.51-100.33,109.55-160.76c3.51-8.15,6.8-16.38,9.87-24.66c-0.04,0.97-0.1,1.93-0.14,2.9
				c-4.14,11.97-8.73,23.8-13.76,35.49c-25.97,60.26-62.73,114.19-109.25,160.31c-46.52,46.11-100.46,82.08-160.32,106.9
				c-61.94,25.69-127.55,38.25-195,37.35l-1.72,8.99l1.6-7.56c67.67,0.92,133.5-11.68,195.64-37.45
				c60.03-24.89,114.12-60.96,160.77-107.2c46.65-46.24,83.51-100.33,109.55-160.76c4.44-10.3,8.5-20.73,12.24-31.25
				c-0.04,0.77-0.08,1.53-0.13,2.3c-4.75,14.41-10.11,28.65-16.15,42.68c-25.97,60.26-62.73,114.19-109.25,160.31
				c-46.52,46.11-100.46,82.08-160.32,106.9c-61.94,25.69-127.54,38.25-194.98,37.35l-1.57,8.24l1.44-6.81
				c67.67,0.92,133.5-11.68,195.64-37.45c60.03-24.89,114.12-60.96,160.77-107.2c46.65-46.24,83.51-100.33,109.55-160.76
				c5.32-12.35,10.12-24.86,14.44-37.51c-0.04,0.6-0.09,1.2-0.13,1.8c-5.25,16.73-11.36,33.23-18.34,49.44
				c-25.97,60.26-62.73,114.19-109.25,160.31c-46.52,46.11-100.46,82.08-160.32,106.9c-61.93,25.68-127.53,38.25-194.97,37.35
				l-1.43,7.48l1.28-6.05c67.67,0.92,133.5-11.68,195.64-37.45c60.03-24.89,114.12-60.96,160.77-107.2
				c46.65-46.24,83.51-100.33,109.55-160.76c6.22-14.43,11.73-29.09,16.58-43.94c-0.03,0.39-0.08,0.78-0.11,1.17
				c-5.71,19.16-12.53,38.01-20.49,56.5c-25.97,60.26-62.73,114.19-109.25,160.31c-46.52,46.11-100.46,82.08-160.32,106.9
				c-61.93,25.68-127.52,38.25-194.95,37.35l-1.29,6.74l1.13-5.31c67.67,0.92,133.5-11.68,195.64-37.45
				c60.03-24.89,114.12-60.96,160.77-107.2c46.65-46.24,83.51-100.33,109.55-160.76c7.06-16.38,13.22-33.04,18.51-49.95
				c-0.01,0.05-0.01,0.11-0.02,0.16c-6.1,21.58-13.59,42.78-22.53,63.52c-25.97,60.26-62.73,114.19-109.25,160.31
				c-46.52,46.11-100.46,82.08-160.32,106.9c-61.92,25.68-127.51,38.24-194.94,37.35l-1.14,5.99l0.97-4.56
				c67.67,0.92,133.5-11.68,195.64-37.45c60.03-24.89,114.12-60.96,160.77-107.2c46.65-46.24,83.51-100.33,109.55-160.76
				c7.21-16.72,13.47-33.75,18.83-51.02c-6.16,22-13.76,43.61-22.87,64.75c-25.97,60.26-62.73,114.19-109.25,160.31
				c-46.52,46.11-100.46,82.08-160.32,106.9c-61.92,25.68-127.5,38.24-194.92,37.35l-1,5.22l0.8-3.79
				c67.67,0.92,133.49-11.68,195.64-37.45c60.03-24.89,114.12-60.96,160.77-107.2c46.65-46.24,83.51-100.33,109.55-160.76
				c7.21-16.72,13.47-33.75,18.83-51.02c-6.16,22-13.76,43.61-22.87,64.75C795.96,601.07,759.21,655,712.69,701.12
				c-46.52,46.11-100.46,82.08-160.32,106.9c-61.91,25.68-127.49,38.24-194.9,37.35l-0.85,4.43l0.64-3
				c67.67,0.92,133.5-11.68,195.64-37.45c60.03-24.89,114.12-60.96,160.77-107.2c46.65-46.24,83.51-100.33,109.55-160.76
				c7.21-16.72,13.47-33.75,18.83-51.02c-6.16,22-13.76,43.61-22.87,64.75c-25.97,60.26-62.73,114.19-109.25,160.31
				c-46.52,46.11-100.46,82.08-160.32,106.9c-61.91,25.67-127.48,38.24-194.89,37.35l-0.7,3.67l0.48-2.24
				c67.67,0.92,133.5-11.68,195.64-37.45c60.03-24.89,114.12-60.96,160.77-107.2c46.65-46.24,83.51-100.33,109.55-160.76
				c7.21-16.73,13.47-33.76,18.84-51.04c-6.16,22.01-13.76,43.62-22.87,64.76c-25.97,60.26-62.73,114.19-109.25,160.31
				c-46.52,46.11-100.46,82.08-160.32,106.9C484.97,862.3,419.4,874.86,352,873.97l-0.56,2.93l0.32-1.5
				c67.67,0.92,133.5-11.68,195.64-37.45c60.03-24.89,114.12-60.96,160.77-107.2c46.65-46.24,83.51-100.33,109.55-160.76
				c7.2-16.72,13.46-33.73,18.83-51c-6.15,21.99-13.76,43.6-22.86,64.72c-25.97,60.26-62.73,114.19-109.25,160.31
				c-46.52,46.11-100.46,82.08-160.32,106.9c-61.9,25.67-127.46,38.23-194.86,37.35l-0.41,2.17l0.16-0.74
				c67.67,0.92,133.5-11.68,195.64-37.45c60.03-24.89,114.12-60.96,160.77-107.2c46.65-46.24,83.51-100.33,109.55-160.76
				c7.21-16.73,13.47-33.77,18.84-51.05c-6.16,22.01-13.76,43.63-22.88,64.78c-25.97,60.26-62.73,114.19-109.25,160.31
				c-46.52,46.11-100.46,82.08-160.32,106.9c-61.9,25.67-127.45,38.23-194.84,37.35l-0.27,1.43c67.67,0.92,133.5-11.68,195.64-37.45
				c60.03-24.89,114.12-60.96,160.77-107.2c46.65-46.24,83.51-100.33,109.55-160.76C827.92,562.19,839.23,524.4,846.15,485.59z
				 M874.71,319.8c-0.01,0.05-0.01,0.11-0.02,0.16c-0.02,0.07-0.04,0.14-0.06,0.21c0-0.06,0.01-0.11,0.01-0.17
				C874.67,319.94,874.69,319.87,874.71,319.8z M872.78,325.82c-0.03,0.39-0.08,0.78-0.11,1.16c-0.1,0.32-0.2,0.64-0.29,0.96
				c0.03-0.39,0.06-0.77,0.09-1.16C872.56,326.46,872.67,326.14,872.78,325.82z M869.91,341.28c-0.1,0.32-0.2,0.64-0.29,0.96
				c0.03-0.39,0.06-0.77,0.09-1.16c0.11-0.32,0.22-0.65,0.32-0.97C869.99,340.51,869.95,340.89,869.91,341.28z M870.64,332.24
				c-0.04,0.6-0.09,1.2-0.13,1.8c-0.18,0.57-0.34,1.15-0.52,1.72c0.03-0.6,0.06-1.21,0.09-1.81
				C870.27,333.39,870.45,332.81,870.64,332.24z M867.76,348.35c-0.18,0.57-0.34,1.15-0.53,1.72c0.03-0.6,0.06-1.21,0.09-1.81
				c0.2-0.57,0.37-1.14,0.57-1.71C867.85,347.15,867.81,347.75,867.76,348.35z M868.44,338.5c-0.04,0.77-0.08,1.54-0.13,2.3
				c-0.24,0.74-0.49,1.47-0.73,2.21c0.03-0.79,0.06-1.58,0.09-2.36C867.93,339.93,868.19,339.22,868.44,338.5z M865.57,355.11
				c-0.24,0.74-0.49,1.47-0.73,2.21c0.03-0.79,0.06-1.58,0.09-2.36c0.26-0.71,0.52-1.43,0.77-2.14
				C865.65,353.57,865.62,354.34,865.57,355.11z M866.08,345.09c-0.04,0.97-0.1,1.93-0.14,2.9c-0.29,0.83-0.6,1.66-0.9,2.49
				c0.03-0.94,0.05-1.88,0.07-2.82C865.43,346.8,865.76,345.94,866.08,345.09z M863.19,362.29c-0.29,0.83-0.6,1.66-0.9,2.49
				c0.02-0.94,0.05-1.88,0.07-2.82c0.32-0.86,0.65-1.71,0.97-2.57C863.29,360.36,863.23,361.32,863.19,362.29z M861.27,357.56
				c0.8-2,1.56-4.02,2.34-6.03c-0.03,1.05-0.04,2.1-0.08,3.15c-0.35,0.98-0.7,1.96-1.06,2.94c0-0.02,0-0.03,0-0.05L861.27,357.56z
				 M858.52,371.86c0.8-2,1.56-4.02,2.34-6.03c-0.03,1.05-0.04,2.1-0.08,3.15c-0.35,0.98-0.7,1.96-1.06,2.94c0-0.02,0-0.03,0-0.05
				L858.52,371.86z M855.77,386.16c0.8-2,1.56-4.02,2.34-6.03c-0.03,1.05-0.04,2.1-0.08,3.15c-0.35,0.98-0.7,1.97-1.06,2.95
				c0-0.02,0-0.03,0-0.05L855.77,386.16z M854.22,400.53c0-0.02,0-0.03,0-0.05l-1.2-0.02c0.8-2,1.56-4.01,2.34-6.02
				c-0.03,1.05-0.04,2.1-0.08,3.15C854.93,398.57,854.58,399.55,854.22,400.53z M859.61,376.26c0.32-0.86,0.65-1.71,0.97-2.57
				c-0.04,0.97-0.1,1.93-0.14,2.9c-0.29,0.83-0.6,1.66-0.9,2.49C859.57,378.14,859.59,377.2,859.61,376.26z M857.83,387.99
				c-0.04,0.97-0.1,1.93-0.14,2.9c-0.29,0.84-0.6,1.66-0.9,2.5c0.02-0.94,0.05-1.88,0.07-2.82
				C857.19,389.71,857.51,388.85,857.83,387.99z M854.04,407.69c0.02-0.94,0.05-1.88,0.07-2.82c0.32-0.86,0.65-1.71,0.97-2.57
				c-0.04,0.97-0.1,1.93-0.14,2.9C854.65,406.04,854.34,406.86,854.04,407.69z M862.18,369.25c0.26-0.71,0.52-1.43,0.77-2.14
				c-0.04,0.77-0.08,1.53-0.13,2.3c-0.24,0.74-0.49,1.47-0.73,2.21C862.12,370.83,862.15,370.04,862.18,369.25z M860.2,381.41
				c-0.04,0.77-0.08,1.54-0.13,2.3c-0.24,0.74-0.49,1.47-0.73,2.21c0.03-0.79,0.06-1.58,0.09-2.36
				C859.69,382.84,859.94,382.13,860.2,381.41z M857.45,395.71c-0.04,0.77-0.08,1.53-0.13,2.3c-0.24,0.74-0.49,1.48-0.73,2.21
				c0.03-0.79,0.06-1.58,0.09-2.36C856.94,397.15,857.2,396.43,857.45,395.71z M853.84,414.53c0.03-0.79,0.06-1.58,0.09-2.36
				c0.26-0.71,0.52-1.43,0.77-2.14c-0.04,0.77-0.08,1.53-0.13,2.3C854.33,413.06,854.09,413.79,853.84,414.53z M864.58,362.56
				c0.2-0.57,0.37-1.14,0.57-1.71c-0.04,0.6-0.09,1.2-0.13,1.8c-0.18,0.57-0.34,1.15-0.52,1.72
				C864.52,363.77,864.55,363.16,864.58,362.56z M862.4,375.15c-0.04,0.6-0.09,1.2-0.13,1.8c-0.18,0.57-0.34,1.15-0.52,1.72
				c0.03-0.6,0.06-1.21,0.09-1.81C862.03,376.29,862.2,375.72,862.4,375.15z M859.65,389.45c-0.04,0.6-0.09,1.2-0.13,1.8
				c-0.18,0.57-0.34,1.15-0.53,1.72c0.03-0.6,0.06-1.21,0.09-1.81C859.28,390.6,859.46,390.02,859.65,389.45z M856.9,403.76
				c-0.04,0.6-0.09,1.2-0.13,1.8c-0.18,0.57-0.34,1.15-0.53,1.73c0.03-0.6,0.06-1.21,0.09-1.81
				C856.53,404.9,856.71,404.33,856.9,403.76z M853.49,421.58c0.03-0.6,0.06-1.2,0.09-1.81c0.2-0.57,0.37-1.14,0.57-1.71
				c-0.04,0.6-0.09,1.2-0.13,1.8C853.84,420.43,853.68,421.01,853.49,421.58z M866.96,355.39c0.11-0.32,0.22-0.65,0.32-0.97
				c-0.03,0.39-0.08,0.77-0.11,1.16c-0.1,0.32-0.2,0.64-0.29,0.96C866.9,356.16,866.93,355.78,866.96,355.39z M864.53,368.72
				c-0.03,0.39-0.08,0.78-0.11,1.16c-0.1,0.32-0.2,0.64-0.29,0.96c0.03-0.39,0.06-0.77,0.09-1.15
				C864.32,369.37,864.43,369.05,864.53,368.72z M861.78,383.03c-0.03,0.39-0.08,0.77-0.11,1.16c-0.1,0.32-0.2,0.64-0.29,0.96
				c0.02-0.38,0.06-0.77,0.08-1.15C861.57,383.67,861.68,383.35,861.78,383.03z M859.04,397.33c-0.03,0.39-0.08,0.77-0.11,1.16
				c-0.1,0.32-0.2,0.64-0.29,0.96c0.03-0.39,0.06-0.77,0.09-1.15C858.82,397.98,858.93,397.65,859.04,397.33z M856.29,411.63
				c-0.03,0.39-0.08,0.77-0.11,1.16c-0.1,0.32-0.2,0.65-0.3,0.97c0.03-0.38,0.06-0.77,0.09-1.15
				C856.07,412.28,856.18,411.96,856.29,411.63z M853.13,428.06c0.03-0.39,0.06-0.77,0.09-1.16c0.11-0.32,0.22-0.65,0.32-0.97
				c-0.03,0.39-0.08,0.78-0.11,1.16C853.33,427.42,853.23,427.74,853.13,428.06z M871.89,334.48c0-0.06,0.01-0.11,0.01-0.17
				c0.02-0.07,0.04-0.14,0.06-0.21c-0.01,0.05-0.01,0.11-0.02,0.16C871.93,334.34,871.91,334.41,871.89,334.48z M869.14,348.78
				c0-0.06,0.01-0.11,0.01-0.17c0.02-0.07,0.04-0.14,0.06-0.21c-0.01,0.05-0.01,0.11-0.02,0.16
				C869.18,348.64,869.16,348.71,869.14,348.78z M866.39,363.09c0-0.06,0.01-0.11,0.01-0.17c0.02-0.07,0.04-0.14,0.06-0.2
				c-0.01,0.05-0.01,0.11-0.02,0.16C866.43,362.94,866.41,363.02,866.39,363.09z M863.64,377.39c0-0.06,0.01-0.11,0.01-0.17
				c0.02-0.07,0.04-0.14,0.06-0.2c-0.01,0.05-0.01,0.11-0.02,0.16C863.68,377.25,863.66,377.32,863.64,377.39z M860.89,391.69
				c0-0.06,0.01-0.11,0.01-0.17c0.02-0.07,0.04-0.14,0.06-0.2c-0.01,0.05-0.01,0.11-0.02,0.16
				C860.93,391.55,860.91,391.62,860.89,391.69z M858.15,405.99c0-0.05,0.01-0.11,0.01-0.16c0.02-0.07,0.04-0.14,0.06-0.2
				c-0.01,0.05-0.01,0.1-0.02,0.16C858.18,405.85,858.17,405.92,858.15,405.99z M855.4,420.3c0-0.06,0.01-0.11,0.01-0.17
				c0.02-0.07,0.04-0.14,0.06-0.21c-0.01,0.05-0.01,0.11-0.02,0.16C855.44,420.15,855.42,420.22,855.4,420.3z M852.65,434.6
				c0-0.06,0.01-0.12,0.01-0.17c0.02-0.07,0.04-0.14,0.06-0.21c-0.01,0.06-0.01,0.11-0.02,0.17
				C852.69,434.46,852.67,434.53,852.65,434.6z M379.26,730.95c0.02,0,0.04,0,0.06,0l0.58-3.05L379.26,730.95z M373.76,759.55
				c0.03,0,0.06,0,0.1,0l0.87-4.56L373.76,759.55z M376.51,745.25c0.03,0,0.05,0,0.08,0l0.73-3.81L376.51,745.25z M371.01,773.86
				c0.04,0,0.07,0,0.11,0l1.01-5.31L371.01,773.86z"/>
		</g>
	</g>
</g>
<g id="logo">
	<rect x="123.99" y="235.04" class="st21" width="588.21" height="15.85"/>
	<text transform="matrix(1 0 0 1 279.6536 250.7448)" class="st20 st29 st30">Otorga el presente certificado a:</text>
	<g>
		<g>
			<g>
				<g>
					<g>
						<path class="st31" d="M432.99,104.98l-0.8,3.73c-1.56,0.11-4.21,1.13-6.99,2.6c-2.63,1.39-4.98,3.39-7.1,5.83
							c-0.94,1.08-2.26,2.78-2.79,4.93c-0.34,1.35-0.62,2.72-0.9,4.05c-0.14,0.67-0.27,1.34-0.42,2.01c-0.52,2.4-1.04,4.8-1.56,7.19
							c-0.95,4.37-1.9,8.73-2.84,13.11c-0.09,0.43-0.19,0.86-0.29,1.3c-0.01,0.04-0.02,0.07-0.02,0.11
							c-0.89,3.95-3.98,7.03-7.94,7.9c-2.55,0.56-5.13,0.77-7.64,0.77c-16.26,0-22.05-8.08-22.05-15.64c0-1.05,0.45-3.44,0.59-4.21
							l4.63-22.16h-6.64l2.54-11.53h21.43l-5.9,28.43c-0.39,1.69-0.85,4.47-0.85,5.39v0.29c-0.02,1.28-0.05,3.94,1.76,5.79
							c1.21,1.22,3,1.84,5.33,1.84c7.4,0,9.71-6.48,11-12.81l6.05-28.93H432.99z"/>
					</g>
				</g>
			</g>
			<g>
				<g>
					<path class="st32" d="M470.67,118.92c0.01,1.05-0.1,2.16-0.35,3.31l-4.57,2.95c-1.26,0-2.61,0-3.87,0h-9.67
						c0-0.04,0.01-0.08,0.01-0.12c0.11-0.69,0.21-1.42,0.25-2.13c0.07-1.45-0.71-2.62-2.09-3.16c-0.38-0.14-0.95-0.34-1.54-0.37
						l-0.66-0.04c-1.64-0.11-3.33-0.22-5.03,0.17c-3.18,0.73-5.36,2.8-6.48,6.14c-0.57,1.68-0.95,3.44-1.32,5.14l-0.17,0.79
						c-0.36,1.63-0.7,3.27-1.04,4.9c-0.22,1.07-0.45,2.16-0.68,3.25l-2.88-2.01l-0.15-0.09c-0.61-0.31-1.34-0.19-1.81,0.3
						c-0.47,0.49-0.58,1.22-0.27,1.8l5.83,11.4c0.77,1.44,2.14,2.4,3.75,2.65c0.27,0.04,0.53,0.06,0.79,0.06
						c1.33,0,2.61-0.51,3.58-1.46l7.25-7.08c4.53,0.01,9.07,0.04,13.6,0.07l1.51,0.01c-1.17,3.19-2.63,6.43-5.03,9.08
						c-1.9,2.11-4.23,3.35-6.91,3.68c-1.28,0.16-2.67,0.24-4.35,0.26l-0.53,0c-8.23,0.06-16.74,0.12-25.11,0.11
						c-2.76,0-4.94-0.7-6.65-2.15c-1.33-1.12-2.06-2.63-2.24-4.6c0-0.03-0.01-0.06-0.01-0.09c-0.02-0.26-0.03-0.52-0.03-0.77
						c0-0.3,0.01-0.61,0.04-0.91c0.1-1.18,0.36-2.34,0.64-3.56c0.09-0.38,0.18-0.77,0.26-1.15c0.82-3.84,1.65-7.66,2.48-11.49
						c0.46-2.1,0.91-4.2,1.37-6.3c0.13-0.59,0.25-1.19,0.37-1.77c0.24-1.16,0.49-2.35,0.77-3.5c0.3-1.21,0.98-2.39,2.14-3.72
						c1.44-1.66,3.02-3.04,4.73-4.13c0.28-0.18,0.56-0.35,0.85-0.51c0.27-0.16,0.55-0.31,0.83-0.45c1.51-0.78,3.1-1.35,4.78-1.71
						c1.27-0.28,2.66-0.32,3.99-0.35l0.22-0.01c0.8-0.02,1.62-0.03,2.42-0.03c0.66,0,1.32,0.01,1.97,0.01
						c0.66,0,1.33,0.01,1.99,0.01l5.53-0.01c4.08,0,8.15,0,12.22,0.01c1.77,0,3.54,0.41,5.25,1.2
						C469.33,113.79,470.65,115.87,470.67,118.92z"/>
				</g>
			</g>
			<g>
				<g>
					<path class="st32" d="M378.35,167.66v12.55c0,1.84-0.44,3.22-2.18,3.22s-2.18-1.38-2.18-3.22v-12.55h-3.74v12.55
						c0,4.96,2.88,5.97,5.92,5.97s5.92-1.25,5.92-5.97v-12.55H378.35z"/>
					<path class="st32" d="M393.97,167.66v12.69h-0.05l-4.52-12.69h-4.31v18.54h3.43v-12.98h0.05l3.48,9.89
						c0.65,1.85,2.4,3.09,4.36,3.09h0.99v-18.54H393.97z"/>
					<path class="st32" d="M400.83,167.66v18.54l0,0c2.07,0,3.74-1.68,3.74-3.74v-14.79H400.83z"/>
					<path class="st32" d="M415.29,178.96c0,3.82-0.99,4.49-2.34,4.49c-1.61,0-2.39-0.97-2.39-6.33c0-5.01,0.44-6.82,2.34-6.82
						c1.68,0,2.23,1.11,2.23,3.7h3.74c0-2.58-0.39-6.33-5.73-6.33c-5.61,0-6.31,3.82-6.31,9.2c0,5.39,0.71,9.21,6.31,9.21
						c4.9,0,5.89-3.3,5.89-7.12H415.29z"/>
					<path class="st32" d="M421.99,167.67v18.43h3.74v-18.43H421.99z"/>
					<path class="st32" d="M435.7,167.67h-6.54v18.43h3.74v-7.36h2c3.53,0,5.89-1.73,5.89-5.55
						C440.79,170.43,439.49,167.67,435.7,167.67z M434.55,176.01h-1.66v-5.6h1.56c1.87,0,2.6,1.03,2.6,2.84
						C437.05,175.13,436.04,176.01,434.55,176.01z"/>
					<path class="st32" d="M451.35,175.96l-2.88-1.2c-1.59-0.64-1.92-1.31-1.92-2.4c0-1.04,0.44-2.06,2.13-2.06
						c1.43,0,2.02,0.97,2.02,2.63h3.58v-0.5c0-3.4-2.41-4.76-5.74-4.76c-3.53,0-5.73,1.76-5.73,5.21c0,2.95,1.53,4.27,4.85,5.36
						c2.47,0.82,3.33,1.41,3.33,3.02c0,1.49-1.09,2.19-2.24,2.19c-1.97,0-2.47-1.07-2.47-2.73v-0.52h-3.74v0.72
						c0,3.27,1.66,5.16,5.89,5.16c4.05,0,6.44-1.69,6.44-5.44C454.88,178.49,454.16,177.13,451.35,175.96z"/>
					<path class="st32" d="M470.66,178h-2.29l-2.41-9.06c-0.2-0.75-0.87-1.27-1.65-1.27h-2c-0.77,0-1.45,0.52-1.65,1.27l-4.57,17.16
						h3.89l0.46-2.06l0.7-3.21h4.35l0.63,2.91l0.06,0.3l0.46,2.06h3.9l-1.41-5.28h1.54V178z M461.89,177.37l1.4-6.49h0.05l1.3,6.01
						l0.24,1.11h-3.13L461.89,177.37z"/>
				</g>
			</g>
			<path class="st33" d="M470.76,124.56l-30,25.92c-1.41,1.38-3.76,1.02-4.69-0.72l-0.02-0.03l-2.23-4.36l-2.81-5.09
				c-0.1-0.19,0.1-0.41,0.3-0.31l3.13,2.56l4.23,2.96L470.76,124.56z"/>
		</g>
	</g>
</g>
</svg>
